<?xml version="1.0" standalone="no"?>
<!DOCTYPE svg PUBLIC "-//W3C//DTD SVG 20010904//EN"
 "http://www.w3.org/TR/2001/REC-SVG-20010904/DTD/svg10.dtd">
<svg version="1.0" xmlns="http://www.w3.org/2000/svg"
 width="900.000000pt" height="900.000000pt" viewBox="0 0 900.000000 900.000000"
 preserveAspectRatio="xMidYMid meet">
<metadata>
Created by potrace 1.10, written by Peter Selinger 2001-2011
</metadata>
<g transform="translate(0.000000,900.000000) scale(0.100000,-0.100000)"
fill="#000000" stroke="none">
<path d="M2930 8713 c0 -159 -4 -294 -8 -300 -6 -10 -138 -13 -583 -15 l-574
-3 -5 -285 -5 -285 -284 -3 c-187 -1 -289 -6 -298 -13 -10 -9 -13 -75 -15
-298 l-3 -286 -285 -5 -285 -5 -3 -379 c-2 -289 -5 -382 -15 -388 -6 -4 -137
-8 -289 -8 l-278 0 0 -1655 0 -1655 271 0 c167 0 278 -4 290 -10 18 -10 19
-25 19 -383 0 -205 4 -378 9 -385 6 -10 65 -13 277 -13 148 1 275 -3 281 -7
10 -6 13 -79 15 -287 l3 -280 578 -3 578 -2 9 -26 c11 -27 14 -514 4 -551 l-6
-23 -282 -2 -281 -3 -3 -274 c-1 -182 -6 -279 -13 -288 -9 -10 -69 -13 -285
-13 -234 0 -275 -2 -288 -16 -14 -13 -16 -54 -16 -290 l0 -274 1765 0 1765 0
2 288 3 287 675 5 675 5 5 285 5 285 580 5 580 5 3 286 c2 223 5 289 15 298 9
7 111 12 298 13 l284 3 3 280 c2 208 5 281 15 287 6 5 133 8 280 7 148 0 272
2 275 6 4 4 8 176 10 383 2 339 4 378 19 390 13 9 89 12 300 12 l283 0 0 1655
0 1655 -287 0 c-159 0 -294 4 -300 8 -10 6 -13 99 -15 388 l-3 379 -285 5
-285 5 -3 284 c-1 187 -6 289 -13 298 -9 10 -75 13 -298 15 l-286 3 -5 285 -5
285 -574 3 c-445 2 -577 5 -583 15 -4 6 -8 141 -8 300 l0 287 -1560 0 -1560 0
0 -287z m-5 -3638 l0 -580 -585 0 -585 0 -3 570 c-1 314 0 576 3 583 3 10 126
12 587 10 l583 -3 0 -580z m2155 7 c3 -356 1 -577 -4 -583 -13 -12 -1163 -12
-1171 1 -7 12 -7 1139 1 1151 3 5 256 8 587 7 l582 -3 5 -573z m2145 -7 l0
-580 -585 0 -585 0 -3 570 c-1 314 0 576 3 583 3 10 126 12 587 10 l583 -3 0
-580z"/>
</g>
</svg>
