<?xml version="1.0" standalone="no"?>
<!DOCTYPE svg PUBLIC "-//W3C//DTD SVG 20010904//EN"
 "http://www.w3.org/TR/2001/REC-SVG-20010904/DTD/svg10.dtd">
<svg version="1.0" xmlns="http://www.w3.org/2000/svg"
 width="900.000000pt" height="900.000000pt" viewBox="0 0 900.000000 900.000000"
 preserveAspectRatio="xMidYMid meet">
<metadata>
Created by potrace 1.10, written by Peter Selinger 2001-2011
</metadata>
<g transform="translate(0.000000,900.000000) scale(0.100000,-0.100000)"
fill="#000000" stroke="none">
<path d="M0 7425 l0 -485 476 0 c262 0 479 -2 483 -5 3 -4 8 -136 11 -293 l5
-287 388 -3 c213 -1 388 -3 389 -5 1 -1 5 -132 8 -292 l5 -290 379 -2 c304 -1
380 -4 387 -15 5 -7 9 -138 9 -290 l0 -278 374 0 c206 0 381 -3 390 -6 14 -5
16 -41 16 -295 l0 -289 374 0 c206 0 381 -3 390 -6 14 -5 16 -40 16 -290 l0
-284 390 0 390 0 0 284 c0 250 2 285 16 290 9 3 184 6 390 6 l374 0 0 289 c0
254 2 290 16 295 9 3 184 6 390 6 l374 0 0 278 c0 152 4 283 9 290 6 11 85 14
387 15 l379 2 5 290 c3 160 7 291 8 292 1 2 176 4 390 5 l387 3 5 287 c3 157
8 289 11 293 4 3 225 5 493 5 l486 0 0 485 0 485 -4500 0 -4500 0 0 -485z"/>
<path d="M0 3710 l0 -2640 4500 0 4500 0 0 2640 0 2640 -492 -2 -493 -3 -2
-274 c-1 -151 -4 -283 -6 -293 -5 -17 -26 -18 -391 -18 l-386 0 0 -285 c0
-273 -1 -285 -20 -295 -13 -7 -146 -10 -386 -10 -202 1 -371 -3 -375 -7 -5 -5
-10 -137 -11 -293 l-3 -285 -387 -3 -388 -2 -2 -288 -3 -287 -385 -5 -385 -5
-5 -290 -5 -290 -385 0 -385 0 -5 290 -5 290 -385 5 -385 5 -3 287 -2 288
-388 2 -387 3 -3 285 c-1 156 -6 288 -11 293 -4 4 -173 8 -375 7 -240 0 -373
3 -386 10 -19 10 -20 22 -20 295 l0 285 -385 0 c-332 0 -386 2 -391 15 -3 8
-7 140 -8 292 l-1 278 -482 3 -483 2 0 -2640z"/>
</g>
</svg>
