<?xml version="1.0" standalone="no"?>
<!DOCTYPE svg PUBLIC "-//W3C//DTD SVG 20010904//EN"
 "http://www.w3.org/TR/2001/REC-SVG-20010904/DTD/svg10.dtd">
<svg version="1.0" xmlns="http://www.w3.org/2000/svg"
 width="900.000000pt" height="783.000000pt" viewBox="0 0 900.000000 783.000000"
 preserveAspectRatio="xMidYMid meet">
<metadata>
Created by potrace 1.10, written by Peter Selinger 2001-2011
</metadata>
<g transform="translate(0.000000,783.000000) scale(0.100000,-0.100000)"
fill="#000000" stroke="none">
<path d="M2808 6439 c-16 -9 -18 -28 -18 -169 l0 -160 -167 -2 -168 -3 -5
-165 -5 -165 -150 -2 c-82 -1 -156 -2 -163 -2 -10 -1 -12 -241 -10 -1183 l3
-1183 163 -3 162 -2 0 -163 c0 -113 4 -167 12 -175 8 -8 60 -12 170 -12 l158
0 2 -162 3 -163 675 -5 675 -5 3 -664 c1 -478 5 -668 14 -678 8 -11 44 -13
167 -11 l156 3 5 165 5 165 165 5 165 5 3 160 c2 112 6 162 15 167 6 5 78 8
159 7 81 0 152 2 157 6 7 4 11 66 11 170 l0 165 168 2 167 3 5 165 5 165 335
5 335 5 3 163 2 162 158 0 c110 0 162 4 170 12 8 8 12 62 12 175 l0 163 163 2
162 3 3 1183 c2 942 0 1182 -10 1183 -7 0 -80 1 -163 2 l-150 2 -5 165 -5 165
-167 3 -168 2 0 160 c0 147 -1 160 -19 170 -27 14 -3339 14 -3363 -1z m3378
-493 c1 -122 5 -160 15 -167 8 -5 85 -9 172 -9 l157 0 0 -1185 0 -1185 -159 0
c-126 0 -161 -3 -171 -14 -7 -10 -12 -66 -13 -166 -2 -122 -5 -153 -17 -160
-9 -6 -204 -10 -498 -9 -265 0 -487 -3 -492 -6 -6 -4 -10 -128 -10 -336 l0
-329 -164 0 c-104 0 -167 -4 -171 -11 -4 -5 -6 -76 -6 -157 1 -81 -3 -153 -7
-160 -6 -9 -47 -12 -168 -10 l-159 3 -3 502 c-2 392 -5 503 -15 503 -6 0 -381
0 -832 0 -505 0 -826 4 -835 10 -12 7 -15 38 -17 160 -1 100 -6 156 -13 166
-10 11 -45 14 -171 14 l-159 0 0 1185 0 1185 158 0 c86 0 163 4 171 9 11 7 13
40 12 160 -1 83 1 156 4 161 4 7 577 9 1698 8 l1692 -3 1 -159z"/>
<path d="M3146 5421 c-4 -6 -9 -1357 -6 -1668 0 -10 40 -13 165 -13 l165 0 2
333 3 332 335 0 335 0 5 -330 5 -330 168 -3 167 -2 -2 842 -3 843 -154 3
c-104 2 -158 -1 -167 -9 -11 -9 -14 -72 -14 -335 l0 -324 -337 2 -338 3 -5
330 -5 330 -157 3 c-87 1 -159 -2 -162 -7z"/>
<path d="M4836 5421 c-4 -7 -9 -1350 -6 -1669 0 -10 37 -12 168 -10 l167 3 3
834 c2 661 0 836 -10 843 -18 11 -316 10 -322 -1z"/>
<path d="M5515 5418 c-3 -7 -4 -236 -3 -508 l3 -495 160 0 160 0 0 505 0 505
-158 3 c-120 2 -159 0 -162 -10z"/>
<path d="M5510 3905 l0 -165 165 0 c103 0 165 4 165 10 0 6 1 75 1 155 0 80
-1 150 -1 155 0 6 -62 10 -165 10 l-165 0 0 -165z"/>
</g>
</svg>
