<?xml version="1.0" standalone="no"?>
<!DOCTYPE svg PUBLIC "-//W3C//DTD SVG 20010904//EN"
 "http://www.w3.org/TR/2001/REC-SVG-20010904/DTD/svg10.dtd">
<svg version="1.0" xmlns="http://www.w3.org/2000/svg"
 width="900.000000pt" height="900.000000pt" viewBox="0 0 900.000000 900.000000"
 preserveAspectRatio="xMidYMid meet">
<metadata>
Created by potrace 1.10, written by Peter Selinger 2001-2011
</metadata>
<g transform="translate(0.000000,900.000000) scale(0.100000,-0.100000)"
fill="#000000" stroke="none">
<path d="M500 8941 l0 -59 -120 -7 c-70 -4 -123 -12 -129 -19 -5 -6 -11 -34
-13 -61 l-3 -50 -50 -3 c-27 -2 -54 -8 -60 -13 -5 -5 -14 -63 -20 -127 l-10
-117 -47 3 -48 4 0 -4021 0 -4021 50 0 50 0 0 -107 c0 -138 9 -158 70 -159 28
0 45 -5 44 -12 -5 -56 -6 -58 -13 -32 -5 19 -13 25 -36 25 -27 0 -30 -3 -33
-38 l-3 -38 43 2 c62 3 88 -14 88 -56 l0 -35 4260 0 4260 0 0 35 c0 38 3 39
63 35 51 -3 69 14 67 64 -3 67 -3 66 45 66 l45 0 0 4260 0 4260 -44 0 c-25 0
-48 6 -53 13 -4 6 -10 37 -13 67 l-5 55 -43 -3 c-26 -2 -49 2 -59 10 -11 8
-57 15 -136 18 l-121 5 3 58 2 57 -4015 0 -4016 0 0 -59z m1777 -1236 c14 -10
23 -28 25 -53 3 -41 2 -41 168 -60 l65 -7 5 -60 5 -60 57 -3 57 -3 3 -62 3
-62 56 -3 56 -3 13 -177 c14 -190 15 -250 5 -439 -4 -75 -11 -126 -19 -132 -6
-5 -34 -11 -61 -13 l-50 -3 -7 -70 c-4 -38 -7 -92 -7 -118 l0 -48 -48 0 c-26
0 -79 -3 -118 -7 l-70 -7 -3 -57 c-4 -69 13 -63 -207 -79 -127 -9 -200 -9
-353 2 -111 7 -196 17 -202 24 -5 6 -10 33 -12 60 l-3 50 -57 3 -57 3 -3 57
-3 57 -55 3 c-69 4 -83 16 -77 63 7 55 -11 83 -58 89 -39 5 -40 6 -41 45 -1
22 -7 53 -13 68 -7 18 -11 110 -11 250 0 253 4 269 65 265 19 -1 38 1 42 6 4
4 13 58 18 119 l10 112 62 3 62 3 3 62 3 62 113 10 c122 11 135 18 125 66 -4
20 1 30 18 43 34 23 463 24 496 1z m4383 -2043 l55 -7 6 -42 c3 -24 9 -46 13
-50 4 -4 60 -12 124 -18 l117 -10 3 -42 c4 -49 21 -63 79 -63 21 0 67 -3 103
-7 l65 -8 5 -55 5 -55 65 -5 65 -5 8 -110 c4 -60 10 -116 12 -122 3 -8 22 -13
49 -13 33 0 48 -5 55 -17 5 -10 12 -66 16 -125 l7 -108 48 0 c26 0 52 -6 58
-12 5 -7 13 -69 17 -138 3 -69 9 -179 13 -245 l7 -120 31 3 c43 4 58 -18 51
-72 -4 -23 -2 -47 3 -52 7 -7 9 -544 8 -1470 l-3 -1459 -675 0 c-371 0 -683 3
-692 7 -17 7 -18 80 -19 1310 -1 717 -4 1371 -8 1453 l-6 150 -55 5 -55 5 -10
115 -10 114 -50 2 c-91 3 -192 19 -209 33 -11 9 -16 26 -14 44 3 30 2 31 -40
32 -23 1 -47 6 -54 13 -8 8 -65 12 -190 12 -159 0 -178 -2 -187 -18 -5 -9 -7
-29 -4 -43 9 -48 -16 -59 -137 -59 -122 0 -120 1 -120 -80 l0 -49 -62 -3 -63
-3 -3 -55 c-2 -30 -9 -58 -15 -62 -7 -4 -30 -8 -53 -8 l-41 0 -11 -147 c-9
-104 -12 -536 -12 -1441 0 -873 -3 -1300 -10 -1313 -10 -18 -29 -19 -694 -19
-614 0 -684 2 -690 16 -9 24 -7 4277 2 4292 7 10 140 12 633 10 l624 -3 5
-240 c3 -132 9 -246 13 -252 10 -16 89 -17 105 -1 7 7 12 33 12 58 0 56 12 70
65 70 58 0 69 10 62 59 -7 57 11 74 77 69 l51 -3 3 58 3 57 52 0 c64 0 77 11
77 66 0 46 11 55 66 54 16 0 92 5 169 12 l140 13 3 40 c1 22 5 46 7 53 3 9
100 12 442 11 241 -1 463 -4 493 -7z m-4002 -2274 l2 -2158 -628 0 c-475 0
-631 3 -640 12 -18 18 -17 4279 0 4296 9 9 159 12 638 10 l625 -3 3 -2157z
m3265 1078 c10 -26 -23 -36 -53 -16 -13 9 -13 11 0 20 22 14 47 12 53 -4z"/>
<path d="M2557 6423 c-2 -1 -1 -18 1 -35 5 -31 6 -32 12 -8 3 15 15 27 30 30
24 6 23 7 -8 12 -17 2 -34 3 -35 1z"/>
</g>
</svg>
