<?xml version="1.0" encoding="UTF-8"?>
<!DOCTYPE svg PUBLIC "-//W3C//DTD SVG 1.1//EN" "http://www.w3.org/Graphics/SVG/1.1/DTD/svg11.dtd">
<svg xmlns="http://www.w3.org/2000/svg" version="1.1" width="550px" height="400px" style="shape-rendering:geometricPrecision; text-rendering:geometricPrecision; image-rendering:optimizeQuality; fill-rule:evenodd; clip-rule:evenodd" xmlns:xlink="http://www.w3.org/1999/xlink">
<g><path style="opacity:0.006" fill="#000000" d="M 62.5,51.5 C 64.0878,52.6353 64.4212,53.9686 63.5,55.5C 61.2997,54.6754 60.9663,53.3421 62.5,51.5 Z"/></g>
<g><path style="opacity:1" fill="#000000" d="M 206.5,-0.5 C 207.5,-0.5 208.5,-0.5 209.5,-0.5C 212.697,1.93402 215.697,4.60069 218.5,7.5C 219.205,5.32786 220.205,3.32786 221.5,1.5C 223.098,3.97343 224.598,3.97343 226,1.5C 227.191,4.53408 229.358,6.20075 232.5,6.5C 231.685,10.8328 233.352,13.1662 237.5,13.5C 237.044,17.1186 238.544,19.4519 242,20.5C 242.307,23.8762 244.14,25.2096 247.5,24.5C 247.325,27.3289 248.658,28.9955 251.5,29.5C 252.025,31.9879 252.858,34.3213 254,36.5C 254.483,35.552 254.649,34.552 254.5,33.5C 258.119,32.7564 261.785,32.423 265.5,32.5C 265.201,34.604 265.534,36.604 266.5,38.5C 269.191,40.0263 271.857,41.3596 274.5,42.5C 274.859,44.7659 274.192,46.5993 272.5,48C 277.372,48.2462 282.205,48.7462 287,49.5C 288.285,49.0496 289.452,48.3829 290.5,47.5C 292.432,48.5202 294.432,48.6869 296.5,48C 296.45,45.9443 297.45,44.1109 299.5,42.5C 300.425,43.6405 301.259,43.6405 302,42.5C 303.353,43.6853 304.52,45.0186 305.5,46.5C 307.071,45.6906 308.738,45.3573 310.5,45.5C 310.5,47.1667 310.5,48.8333 310.5,50.5C 313.167,50.5 315.833,50.5 318.5,50.5C 318.656,54.1351 319.822,54.4685 322,51.5C 324.303,53.393 326.47,55.393 328.5,57.5C 329.429,56.3112 329.762,54.9778 329.5,53.5C 332.157,53.162 334.49,53.8287 336.5,55.5C 338.098,54.5153 339.765,54.3486 341.5,55C 342.983,59.0845 344.983,62.9178 347.5,66.5C 349.562,64.6397 350.895,62.3064 351.5,59.5C 352.814,58.6872 353.981,57.6872 355,56.5C 356,57.8333 357,57.8333 358,56.5C 358.956,57.5786 359.789,58.7453 360.5,60C 364.57,61.4686 368.57,63.1353 372.5,65C 375.672,67.8282 377.505,71.3282 378,75.5C 378.739,76.5742 379.739,77.2409 381,77.5C 387.49,74.3507 393.99,71.1841 400.5,68C 399.313,66.9805 398.313,65.8139 397.5,64.5C 398.641,63.5745 398.641,62.7412 397.5,62C 397.998,60.8419 398.831,60.0085 400,59.5C 403.808,59.594 407.641,59.594 411.5,59.5C 413.288,57.4189 415.121,55.4189 417,53.5C 418.892,54.13 420.559,55.13 422,56.5C 422.26,54.3825 423.26,52.7158 425,51.5C 425.743,49.5594 425.576,47.7261 424.5,46C 425.46,44.5806 426.293,43.0806 427,41.5C 429.105,42.3114 431.105,43.3114 433,44.5C 434.333,43.8333 435.667,43.1667 437,42.5C 438.326,43.7989 439.66,45.1322 441,46.5C 441.055,44.1148 442.222,42.7814 444.5,42.5C 446.447,43.277 448.28,44.277 450,45.5C 480.843,44.506 511.51,44.1727 542,44.5C 545.032,46.9396 545.199,49.6063 542.5,52.5C 542.756,53.6891 543.089,54.8558 543.5,56C 542.796,59.1275 542.296,62.2942 542,65.5C 540.333,65.8333 538.667,66.1667 537,66.5C 536.798,68.2556 536.298,69.9223 535.5,71.5C 534.914,71.2907 534.414,70.9574 534,70.5C 533.667,73.5 533.333,76.5 533,79.5C 527.963,80.3716 525.129,83.3716 524.5,88.5C 523.956,92.9121 524.623,97.2455 526.5,101.5C 524.726,104.352 525.226,106.686 528,108.5C 528.718,113.91 531.218,118.41 535.5,122C 533.2,124.809 531.533,127.976 530.5,131.5C 527.971,133.063 526.971,135.396 527.5,138.5C 525.315,138.888 523.482,139.888 522,141.5C 518.033,140.534 515.866,138.034 515.5,134C 514.552,133.517 513.552,133.351 512.5,133.5C 512.379,127.787 510.546,126.787 507,130.5C 504.059,130.714 501.893,132.047 500.5,134.5C 494.706,136.14 489.206,135.474 484,132.5C 480.181,132.567 476.347,132.901 472.5,133.5C 470.244,132.579 469.244,130.912 469.5,128.5C 465.062,127.425 463.062,129.092 463.5,133.5C 460.739,132.915 459.073,133.915 458.5,136.5C 459.797,141.017 460.797,145.517 461.5,150C 461.658,155.374 459.658,156.541 455.5,153.5C 454.541,149.291 452.874,148.791 450.5,152C 447.021,152.566 444.355,151.233 442.5,148C 441.167,147.667 439.833,147.333 438.5,147C 437.274,145.365 435.941,143.865 434.5,142.5C 433.059,143.865 431.726,145.365 430.5,147C 427.937,147.918 425.77,147.418 424,145.5C 422.649,147.019 421.149,148.352 419.5,149.5C 422.194,151.527 424.527,153.861 426.5,156.5C 426.32,157.554 425.987,158.554 425.5,159.5C 427.256,161.191 427.756,163.191 427,165.5C 423.117,168.026 418.951,169.859 414.5,171C 411.43,173.427 409.596,176.594 409,180.5C 405.651,181.741 404.818,183.908 406.5,187C 405.288,191.855 403.621,196.522 401.5,201C 403.197,204.572 405.697,207.405 409,209.5C 409.296,212.706 409.796,215.872 410.5,219C 409.427,220.416 409.427,221.75 410.5,223C 409.304,224.364 408.304,225.864 407.5,227.5C 408.438,232.774 408.771,237.941 408.5,243C 405.037,245.195 403.704,248.361 404.5,252.5C 406.971,252.233 408.638,253.233 409.5,255.5C 408.892,258.145 408.392,260.812 408,263.5C 400.6,270.758 394.767,279.258 390.5,289C 391.793,289.49 393.127,289.657 394.5,289.5C 394.632,294.36 394.798,299.027 395,303.5C 397.069,304.264 399.236,304.764 401.5,305C 402.059,305.725 402.392,306.558 402.5,307.5C 401.167,309.5 401.167,311.5 402.5,313.5C 401.51,320.273 397.844,322.273 391.5,319.5C 390.167,320.167 388.833,320.833 387.5,321.5C 381.749,320.917 376.082,319.917 370.5,318.5C 368.063,318.598 366.063,319.598 364.5,321.5C 363.914,321.291 363.414,320.957 363,320.5C 361.897,322.629 361.397,324.963 361.5,327.5C 363.744,336.296 361.077,338.296 353.5,333.5C 352.534,331.604 352.201,329.604 352.5,327.5C 350.167,326.833 347.833,326.167 345.5,325.5C 345.5,324.167 345.5,322.833 345.5,321.5C 344.5,321.5 343.5,321.5 342.5,321.5C 343.397,328.536 340.897,330.203 335,326.5C 334.667,326.833 334.333,327.167 334,327.5C 334.129,323.418 332.462,320.418 329,318.5C 328.667,318.833 328.333,319.167 328,319.5C 326.314,313.912 324.98,308.245 324,302.5C 323.667,302.833 323.333,303.167 323,303.5C 322.691,302.234 322.191,301.067 321.5,300C 317.92,299.275 314.92,297.609 312.5,295C 308.066,293.622 304.566,294.788 302,298.5C 299.815,297.242 297.648,297.242 295.5,298.5C 293.528,297.695 292.028,296.361 291,294.5C 290.667,294.833 290.333,295.167 290,295.5C 286.982,295.019 284.148,294.019 281.5,292.5C 279.946,294.933 279.28,297.6 279.5,300.5C 275.206,300.818 271.206,299.985 267.5,298C 267.146,296.374 267.146,294.541 267.5,292.5C 265.009,292.84 262.842,293.84 261,295.5C 256.983,293.627 253.817,294.461 251.5,298C 253.029,299.582 253.529,301.415 253,303.5C 249.303,306.538 246.303,310.205 244,314.5C 243.765,318.32 242.932,321.987 241.5,325.5C 238.744,326.633 236.911,325.633 236,322.5C 234.672,324.022 234.838,325.689 236.5,327.5C 235.872,329.258 234.872,330.758 233.5,332C 236.806,335.306 240.14,338.64 243.5,342C 240.9,345.128 240.9,348.295 243.5,351.5C 242.96,352.748 242.293,353.915 241.5,355C 243.647,357.237 245.98,359.237 248.5,361C 247.833,362 247.167,363 246.5,364C 240.012,363.601 233.679,362.268 227.5,360C 226.667,359.167 225.833,358.333 225,357.5C 223.17,357.333 221.17,357.666 219,358.5C 217.113,358.031 215.613,357.031 214.5,355.5C 211.854,359.299 208.187,361.133 203.5,361C 200.92,364.158 198.587,367.492 196.5,371C 194.005,371.157 191.672,371.324 189.5,371.5C 186.472,377.751 184.139,384.251 182.5,391C 177.942,390.945 173.275,391.279 168.5,392C 166.231,393.807 164.397,393.307 163,390.5C 162.517,391.448 162.351,392.448 162.5,393.5C 159.282,394.188 156.116,395.188 153,396.5C 150.08,396.084 147.414,395.084 145,393.5C 143.233,394.34 141.899,395.673 141,397.5C 139.795,396.929 138.628,396.262 137.5,395.5C 137.418,392.667 137.252,389.667 137,386.5C 135.13,384.595 133.63,382.428 132.5,380C 129.004,377.67 126.004,374.837 123.5,371.5C 121.892,370.682 120.225,370.015 118.5,369.5C 110.778,360.278 102.278,351.944 93,344.5C 92.2825,345.451 91.4491,345.617 90.5,345C 87.3226,341.11 84.1559,337.944 81,335.5C 80.6667,335.833 80.3333,336.167 80,336.5C 77.3053,334.306 74.472,332.306 71.5,330.5C 70.914,330.709 70.414,331.043 70,331.5C 67.254,326.746 68.5873,323.746 74,322.5C 80.7434,325.801 87.2434,328.801 93.5,331.5C 96.1719,334.193 98.8386,336.859 101.5,339.5C 103.415,341.071 104.415,343.071 104.5,345.5C 113.708,346.412 122.708,346.412 131.5,345.5C 137.047,342.2 142.881,340.534 149,340.5C 153.26,338.622 157.094,336.122 160.5,333C 162.167,332.667 163.833,332.333 165.5,332C 167.179,329.799 169.179,327.966 171.5,326.5C 167.754,324.843 166.754,322.177 168.5,318.5C 169.325,317.614 170.325,317.281 171.5,317.5C 171.351,316.448 171.517,315.448 172,314.5C 175.582,310.927 178.748,307.093 181.5,303C 180.903,301.111 180.569,299.278 180.5,297.5C 182.093,291.903 185.76,288.903 191.5,288.5C 192.04,285.255 193.706,282.755 196.5,281C 195.483,279.951 195.316,278.784 196,277.5C 199.342,273.146 203.509,269.98 208.5,268C 209.773,257.961 209.773,247.961 208.5,238C 206.215,234.923 204.882,231.423 204.5,227.5C 203.251,224.414 201.084,222.08 198,220.5C 197.358,218.238 196.525,216.071 195.5,214C 193.22,213.767 191.22,212.934 189.5,211.5C 184.485,218.552 181.652,217.552 181,208.5C 179.413,209.727 178.079,209.394 177,207.5C 176.667,205.833 176.333,204.167 176,202.5C 173.701,197.516 170.868,192.849 167.5,188.5C 168.107,186.225 168.441,183.891 168.5,181.5C 167.968,177.123 167.135,172.79 166,168.5C 161.623,164.455 156.956,160.788 152,157.5C 151,158.833 150,158.833 149,157.5C 147.848,159.649 146.348,161.482 144.5,163C 148.239,165.514 147.906,167.681 143.5,169.5C 141.291,168.894 139.124,168.227 137,167.5C 134.772,168.299 133.439,167.299 133,164.5C 129.19,167.804 124.69,169.304 119.5,169C 118.042,171.46 116.209,173.627 114,175.5C 113.316,176.784 113.483,177.951 114.5,179C 111.773,181.241 111.106,183.907 112.5,187C 110.852,190.053 108.518,191.053 105.5,190C 102.536,191.618 99.7031,193.452 97,195.5C 93.9288,194.793 91.2622,195.793 89,198.5C 87.2477,204.8 83.081,207.633 76.5,207C 73.3874,210.289 70.2208,213.456 67,216.5C 62.385,216.43 57.7183,216.097 53,215.5C 51.2158,216.309 49.3825,216.976 47.5,217.5C 43.6571,215.184 39.6571,213.017 35.5,211C 33.4516,205.599 30.4516,205.099 26.5,209.5C 23.243,208.449 19.9097,207.782 16.5,207.5C 16.2155,205.123 16.2155,202.956 16.5,201C 14.1647,198.52 12.498,195.686 11.5,192.5C 12.5998,189.615 12.5998,186.782 11.5,184C 11.4387,181.721 12.1054,179.721 13.5,178C 13.3535,176.273 12.6869,176.106 11.5,177.5C 9.02166,176.278 8.02166,174.278 8.5,171.5C 5.83344,170.634 3.16677,169.634 0.5,168.5C 0.452606,163.756 1.61927,159.089 4,154.5C 5.35613,153.62 6.85613,153.286 8.5,153.5C 10.1442,138.945 12.6442,124.278 16,109.5C 16.2492,108.376 16.7492,107.376 17.5,106.5C 18.8333,107.5 20.1667,108.5 21.5,109.5C 22.1667,109.167 22.8333,108.833 23.5,108.5C 23.8129,95.547 24.6462,82.547 26,69.5C 28.4216,66.9967 30.0882,63.9967 31,60.5C 32.2547,59.7894 33.4214,58.956 34.5,58C 33.1667,57 33.1667,56 34.5,55C 35.9122,53.6936 37.5789,52.8603 39.5,52.5C 47.9317,53.7912 56.5984,55.1245 65.5,56.5C 65.6602,54.8008 65.4935,53.1341 65,51.5C 61.2368,49.742 59.4035,46.742 59.5,42.5C 60.0196,39.0884 60.8529,35.755 62,32.5C 62.5613,31.9781 63.228,31.6448 64,31.5C 65.7201,32.723 67.5534,33.723 69.5,34.5C 72.2037,33.4278 74.8704,32.4278 77.5,31.5C 77.7286,29.567 78.5619,27.9003 80,26.5C 81.7959,27.767 83.6293,27.767 85.5,26.5C 87.1792,27.782 89.0126,28.782 91,29.5C 92.6667,29.1667 94.3333,28.8333 96,28.5C 97.3333,30.5 98.6667,32.5 100,34.5C 104.524,34.2132 108.691,34.2132 112.5,34.5C 117.788,35.9639 123.121,37.2973 128.5,38.5C 131.271,38.2438 133.438,36.9104 135,34.5C 136.667,35.8333 138.333,35.8333 140,34.5C 140.5,35 141,35.5 141.5,36C 150.967,35.9199 160.134,37.0866 169,39.5C 170.509,38.9103 172.009,38.2436 173.5,37.5C 172.758,36.7132 171.925,36.0465 171,35.5C 170.772,29.6658 171.605,23.6658 173.5,17.5C 172.708,15.8051 173.042,14.1385 174.5,12.5C 177.997,12.5276 181.664,12.6943 185.5,13C 187.798,14.4377 189.965,15.271 192,15.5C 192.98,13.9411 193.813,12.2744 194.5,10.5C 195.086,10.7093 195.586,11.0426 196,11.5C 197.115,10.0001 197.948,8.3334 198.5,6.5C 201.663,5.67593 203.33,3.67593 203.5,0.5C 204.791,0.737305 205.791,0.403972 206.5,-0.5 Z"/></g>
<g><path style="opacity:1" fill="#fdf6e3" d="M 38.5,55.5 C 49.9708,56.7767 61.3042,58.4434 72.5,60.5C 74.881,65.5287 77.7144,70.1954 81,74.5C 83.4548,77.0775 86.1215,79.4108 89,81.5C 90.0053,86.8609 92.3386,91.5275 96,95.5C 96.3333,100.167 96.6667,104.833 97,109.5C 98.0674,110.191 99.2341,110.691 100.5,111C 99.703,114.745 99.203,118.579 99,122.5C 98.3333,123.167 97.6667,123.833 97,124.5C 96.5004,131.492 96.3337,138.492 96.5,145.5C 80.9454,143.401 65.4454,141.068 50,138.5C 46.2785,138.221 43.9452,139.888 43,143.5C 40.7717,141.032 37.9383,139.865 34.5,140C 32.9991,138.748 31.3325,137.748 29.5,137C 23.555,137.298 18.2217,135.798 13.5,132.5C 16.4256,125.907 17.7589,118.907 17.5,111.5C 20.2492,111.726 22.9159,111.393 25.5,110.5C 26.7977,106.285 26.7977,102.118 25.5,98C 26.2401,96.2151 26.9067,94.3817 27.5,92.5C 26.9545,88.4864 26.6211,84.4864 26.5,80.5C 28.9703,71.4172 32.9703,63.0839 38.5,55.5 Z"/></g>
<g><path style="opacity:1" fill="#fdf6e3" d="M 459.5,151.5 C 458.448,151.649 457.448,151.483 456.5,151C 454.084,146.623 451.417,146.456 448.5,150.5C 447.618,149.24 446.618,148.074 445.5,147C 441.437,145.31 437.771,143.143 434.5,140.5C 431.91,141.749 429.576,143.416 427.5,145.5C 426.167,144.833 424.833,144.167 423.5,143.5C 421.07,145.053 419.07,147.053 417.5,149.5C 418.137,151.303 419.303,152.636 421,153.5C 421.483,154.448 421.649,155.448 421.5,156.5C 422.552,156.351 423.552,156.517 424.5,157C 419.186,159.585 419.519,161.585 425.5,163C 421.629,166.08 417.296,168.247 412.5,169.5C 411.472,171.361 409.972,172.695 408,173.5C 408.415,179.538 405.915,180.871 400.5,177.5C 399.184,176.193 398.184,174.693 397.5,173C 395.567,172.217 394.067,172.717 393,174.5C 390.667,173.123 388.167,172.123 385.5,171.5C 383.096,172.008 382.429,173.175 383.5,175C 381.089,175.198 379.423,176.364 378.5,178.5C 378.818,179.647 379.484,180.481 380.5,181C 375.836,181.351 371.669,182.851 368,185.5C 366.943,183.781 366.11,181.947 365.5,180C 363.833,179.667 362.167,179.333 360.5,179C 361.833,178 361.833,177 360.5,176C 357.24,175.216 354.073,175.383 351,176.5C 349.491,173.994 347.991,171.494 346.5,169C 343.531,167.516 340.531,166.016 337.5,164.5C 335.833,164.833 334.833,165.833 334.5,167.5C 335.583,169.875 335.583,172.208 334.5,174.5C 332.184,175.496 330.517,177.163 329.5,179.5C 327.167,178.167 324.833,176.833 322.5,175.5C 320.823,177.676 318.989,179.676 317,181.5C 316.586,181.043 316.086,180.709 315.5,180.5C 312.823,181.074 310.157,181.741 307.5,182.5C 306.196,185.092 304.196,186.925 301.5,188C 298.955,187.199 296.288,186.866 293.5,187C 293.105,189.781 291.772,191.947 289.5,193.5C 290.04,194.748 290.707,195.915 291.5,197C 291.631,199.465 291.631,201.965 291.5,204.5C 290.228,205.046 288.894,205.379 287.5,205.5C 280.78,202.737 273.78,201.404 266.5,201.5C 266.183,198.428 266.516,195.428 267.5,192.5C 268.946,191.829 269.612,190.662 269.5,189C 269.192,186.047 267.858,183.714 265.5,182C 265.833,181.5 266.167,181 266.5,180.5C 269.568,182.151 271.902,181.485 273.5,178.5C 272.527,176.36 271.027,174.693 269,173.5C 268.503,171.19 268.337,168.857 268.5,166.5C 271.469,167.329 274.469,167.495 277.5,167C 281.176,165.272 281.509,162.939 278.5,160C 276.754,159.529 275.087,158.862 273.5,158C 274.602,155.599 274.769,153.099 274,150.5C 271.907,149.214 270.073,147.714 268.5,146C 269.62,144.263 270.62,142.429 271.5,140.5C 268.983,138.543 267.816,135.876 268,132.5C 266.351,128.536 264.184,124.869 261.5,121.5C 263.555,119.445 265.221,117.112 266.5,114.5C 269.361,112.907 272.028,111.073 274.5,109C 273.556,107.523 272.223,106.523 270.5,106C 272.061,105.682 273.228,104.849 274,103.5C 274.718,104.451 275.551,104.617 276.5,104C 279.924,101.114 280.59,97.9478 278.5,94.5C 281.891,89.9147 284.558,84.9147 286.5,79.5C 285.917,77.9984 285.084,76.6651 284,75.5C 283.363,67.7586 284.863,60.4253 288.5,53.5C 288.291,52.914 287.957,52.414 287.5,52C 291.102,50.9238 294.769,50.0905 298.5,49.5C 299.429,48.3112 299.762,46.9778 299.5,45.5C 301.698,46.0144 303.698,47.0144 305.5,48.5C 308.167,47.1667 308.833,47.8333 307.5,50.5C 310.193,52.2702 313.193,52.9368 316.5,52.5C 316.183,56.1716 317.849,57.8383 321.5,57.5C 321.351,56.448 321.517,55.448 322,54.5C 324.033,58.7718 327.2,60.1052 331.5,58.5C 331.998,57.3966 332.331,56.3966 332.5,55.5C 334.51,60.0446 336.843,60.378 339.5,56.5C 340.882,62.0383 343.882,66.3717 348.5,69.5C 350.671,67.1604 352.338,64.4937 353.5,61.5C 354.532,59.9604 355.865,59.4604 357.5,60C 360.428,62.3113 363.762,63.9779 367.5,65C 368.22,67.1223 369.387,67.6223 371,66.5C 373.878,69.6294 375.712,73.2961 376.5,77.5C 377.631,78.7515 378.964,79.7515 380.5,80.5C 387.13,77.1848 393.797,73.8515 400.5,70.5C 402.784,68.1371 402.784,65.6371 400.5,63C 401.796,60.3318 403.463,59.9985 405.5,62C 410.91,62.7655 415.244,60.9321 418.5,56.5C 420.859,59.9758 423.526,60.3092 426.5,57.5C 423.771,55.6329 424.104,54.6329 427.5,54.5C 427.18,51.1016 427.513,47.7683 428.5,44.5C 429.429,45.6888 429.762,47.0222 429.5,48.5C 432.511,48.1727 435.011,46.8394 437,44.5C 437.49,45.7932 437.657,47.1266 437.5,48.5C 440.885,48.9752 443.218,47.6418 444.5,44.5C 445.5,44.8333 446.167,45.5 446.5,46.5C 478.495,47.3332 510.495,47.8332 542.5,48C 540.746,52.8702 539.913,58.0369 540,63.5C 538.32,62.3966 536.82,62.7299 535.5,64.5C 534.571,65.6888 534.238,67.0222 534.5,68.5C 530.071,68.4567 529.071,69.9567 531.5,73C 530.862,74.7067 530.862,76.54 531.5,78.5C 529.533,78.2606 527.699,78.5939 526,79.5C 523.165,85.1432 521.665,91.1432 521.5,97.5C 522.297,99.1315 523.297,100.632 524.5,102C 523.783,103.531 522.783,104.864 521.5,106C 522.613,107.394 523.947,108.561 525.5,109.5C 525.728,115.039 528.061,119.372 532.5,122.5C 531.675,123.386 530.675,123.719 529.5,123.5C 530.303,127.169 529.136,129.836 526,131.5C 525.667,133.167 525.333,134.833 525,136.5C 523.667,137.167 522.667,138.167 522,139.5C 521.29,138.027 520.124,137.36 518.5,137.5C 519.401,133.759 518.068,131.759 514.5,131.5C 514.762,130.022 514.429,128.689 513.5,127.5C 512.281,126.737 511.281,125.737 510.5,124.5C 508.866,124.968 507.7,125.968 507,127.5C 506.282,126.549 505.449,126.383 504.5,127C 501.929,130.563 498.429,132.396 494,132.5C 486.631,130.841 479.131,130.174 471.5,130.5C 471.719,129.325 471.386,128.325 470.5,127.5C 468.5,126.833 466.5,126.167 464.5,125.5C 463.248,127.001 462.248,128.668 461.5,130.5C 456.098,133.241 455.098,137.241 458.5,142.5C 457.737,143.719 456.737,144.719 455.5,145.5C 456.077,147.55 457.41,148.55 459.5,148.5C 459.5,149.5 459.5,150.5 459.5,151.5 Z"/></g>
<g><path style="opacity:1" fill="#fdf6e3" d="M 247.5,30.5 C 248.496,30.4142 249.329,30.7476 250,31.5C 249.65,35.5062 251.15,38.5062 254.5,40.5C 255.994,36.2522 258.994,34.2522 263.5,34.5C 263.162,37.1569 263.829,39.4902 265.5,41.5C 266.274,42.7112 267.107,42.7112 268,41.5C 268.979,43.3203 270.479,44.487 272.5,45C 270.479,45.4012 269.145,46.5679 268.5,48.5C 270.637,49.7381 271.971,51.5714 272.5,54C 275.064,54.4502 276.564,53.2836 277,50.5C 279.042,50.8179 281.209,50.9846 283.5,51C 284.672,51.4186 285.672,52.0853 286.5,53C 284.691,58.7866 283.025,64.6199 281.5,70.5C 281.143,73.9766 282.143,76.9766 284.5,79.5C 281.939,84.4374 279.272,89.4374 276.5,94.5C 276.919,95.6721 277.585,96.6721 278.5,97.5C 276.879,100.736 274.212,102.736 270.5,103.5C 267.727,106.291 268.393,108.125 272.5,109C 270.61,110.112 268.61,110.946 266.5,111.5C 264.895,110.57 263.395,110.57 262,111.5C 260.255,110.044 258.422,108.711 256.5,107.5C 252.614,109.055 249.28,111.388 246.5,114.5C 247.025,115.192 247.692,115.692 248.5,116C 247.382,117.074 246.382,118.24 245.5,119.5C 243.045,118.685 240.711,117.685 238.5,116.5C 236.399,116.632 234.899,117.632 234,119.5C 231.254,113.875 229.254,114.208 228,120.5C 224.624,118.085 221.291,118.085 218,120.5C 217.5,120.333 217,120.167 216.5,120C 216.09,117.76 216.757,115.593 218.5,113.5C 216.415,111.164 216.249,108.831 218,106.5C 219.652,101.77 218.152,99.1035 213.5,98.5C 213.5,99.5 213.5,100.5 213.5,101.5C 210.398,101.154 207.565,101.821 205,103.5C 204.793,100.577 203.293,98.7441 200.5,98C 203.753,95.12 206.087,91.62 207.5,87.5C 207.182,86.3527 206.516,85.5194 205.5,85C 208.033,83.9667 209.699,82.1334 210.5,79.5C 212.686,78.7792 214.853,78.1125 217,77.5C 217.171,72.4671 217.671,67.4671 218.5,62.5C 220.069,61.286 220.902,59.6193 221,57.5C 222.509,56.9103 224.009,56.2436 225.5,55.5C 226.424,52.454 228.258,50.1206 231,48.5C 233.853,51.3184 236.353,51.1518 238.5,48C 236.702,46.9066 235.868,45.4066 236,43.5C 239.195,44.4238 242.361,44.0904 245.5,42.5C 246.557,40.9968 247.224,39.3302 247.5,37.5C 246.928,35.3127 246.928,32.9794 247.5,30.5 Z"/></g>
<g><path style="opacity:1" fill="#fdf6e3" d="M 81.5,29.5 C 85.3872,30.9439 89.2205,31.9439 93,32.5C 93.772,32.3552 94.4387,32.0219 95,31.5C 96.7547,36.4142 100.088,38.0809 105,36.5C 112.803,37.7335 120.637,39.0669 128.5,40.5C 130.5,40.3333 132.5,40.1667 134.5,40C 136,38.8855 137.667,38.0521 139.5,37.5C 145.115,38.2891 150.782,38.7891 156.5,39C 159.365,41.2863 162.698,42.1197 166.5,41.5C 166.657,42.8734 166.49,44.2068 166,45.5C 163.3,47.4014 160.8,49.4014 158.5,51.5C 159.137,54.2757 160.803,56.109 163.5,57C 162.167,58 162.167,59 163.5,60C 161.007,61.3246 159.84,63.4913 160,66.5C 158.585,68.8734 157.085,71.2068 155.5,73.5C 157.277,74.901 158.944,76.401 160.5,78C 159.474,81.7883 160.807,84.6216 164.5,86.5C 164.787,90.88 164.787,95.2134 164.5,99.5C 157.911,103.833 150.578,105.666 142.5,105C 140.277,105.652 139.11,107.152 139,109.5C 135.634,108.005 132.468,108.338 129.5,110.5C 124.198,108.284 120.365,104.617 118,99.5C 116.095,98.842 114.595,97.6753 113.5,96C 110.525,95.9565 107.525,96.1231 104.5,96.5C 103.908,91.7376 101.408,90.4043 97,92.5C 96,91.8333 95,91.1667 94,90.5C 93,87.1667 92,83.8333 91,80.5C 88.3333,78.1667 85.6667,75.8333 83,73.5C 76.9723,62.7629 69.9723,52.7629 62,43.5C 62.7679,40.6775 63.4345,37.6775 64,34.5C 71.4915,38.3764 77.3249,36.7097 81.5,29.5 Z"/></g>
<g><path style="opacity:1" fill="#fdf6e3" d="M 207.5,1.5 C 209.929,2.8706 212.263,4.3706 214.5,6C 215.255,9.2066 217.255,10.7066 220.5,10.5C 220.302,7.22971 221.802,5.22971 225,4.5C 226.028,6.36146 227.528,7.69479 229.5,8.5C 229.644,12.0123 231.31,14.3456 234.5,15.5C 236.596,18.9372 238.763,22.2706 241,25.5C 242.356,26.3802 243.856,26.7135 245.5,26.5C 246.363,29.4675 246.03,32.4675 244.5,35.5C 245.248,37.4159 245.248,39.4159 244.5,41.5C 241.451,42.3574 238.451,42.3574 235.5,41.5C 232.84,44.0425 233.173,46.2092 236.5,48C 234.089,47.9481 231.756,47.6147 229.5,47C 228.315,48.353 226.981,49.5197 225.5,50.5C 224.571,51.6888 224.238,53.0222 224.5,54.5C 223.127,54.3433 221.793,54.51 220.5,55C 216.168,61.3711 214.501,68.5377 215.5,76.5C 213.473,76.3379 211.473,76.5045 209.5,77C 208.08,80.2515 206.08,83.0848 203.5,85.5C 203.818,86.6473 204.484,87.4806 205.5,88C 203.176,91.4855 200.843,94.9855 198.5,98.5C 199.833,99.5 201.167,100.5 202.5,101.5C 199.167,102.167 195.833,102.833 192.5,103.5C 192,104.5 191.5,105.5 191,106.5C 182.192,105.148 173.359,103.815 164.5,102.5C 166.234,101.326 167.234,99.6597 167.5,97.5C 166.633,94.936 166.633,92.2693 167.5,89.5C 167.167,88.1667 166.833,86.8333 166.5,85.5C 162.949,83.7345 161.616,81.0678 162.5,77.5C 160.723,76.099 159.056,74.599 157.5,73C 158.448,72.5172 159.448,72.3505 160.5,72.5C 161.505,69.2791 162.339,65.9457 163,62.5C 163.925,61.9535 164.758,61.2868 165.5,60.5C 165.39,58.9018 165.057,57.2352 164.5,55.5C 162.609,54.6893 161.276,53.3559 160.5,51.5C 165.448,49.8953 168.115,46.5619 168.5,41.5C 170.792,41.7564 172.959,41.4231 175,40.5C 175.097,36.2629 174.597,32.0962 173.5,28C 174.415,23.8979 175.082,19.7313 175.5,15.5C 180.818,15.2143 185.984,15.881 191,17.5C 194.263,18.0676 195.763,16.7343 195.5,13.5C 198.91,13.6162 200.244,11.9496 199.5,8.5C 202.925,7.10776 205.592,4.77443 207.5,1.5 Z"/></g>
<g><path style="opacity:1" fill="#fdf6e3" d="M 97.5,93.5 C 101.074,92.9079 103.074,94.4079 103.5,98C 106.23,98.7284 108.897,98.5617 111.5,97.5C 112.738,99.6374 114.571,100.971 117,101.5C 117.494,103.134 117.66,104.801 117.5,106.5C 118.5,106.5 119.5,106.5 120.5,106.5C 120.354,108.942 121.187,109.609 123,108.5C 126.532,112.579 130.532,113.245 135,110.5C 135.833,110.833 136.667,111.167 137.5,111.5C 135.063,112.803 132.896,114.47 131,116.5C 129.749,119.581 127.916,122.248 125.5,124.5C 126.39,125.955 126.39,127.289 125.5,128.5C 128.469,129.668 128.802,131.001 126.5,132.5C 124.818,137.215 124.652,141.882 126,146.5C 126.75,147.126 127.584,147.626 128.5,148C 126.236,148.236 124.069,148.736 122,149.5C 114.625,146.065 106.792,144.732 98.5,145.5C 98.3337,138.825 98.5004,132.158 99,125.5C 99.6667,124.833 100.333,124.167 101,123.5C 101.226,119.113 101.726,114.779 102.5,110.5C 101.68,108.889 100.346,108.222 98.5,108.5C 98.7257,103.438 98.3924,98.4376 97.5,93.5 Z"/></g>
<g><path style="opacity:1" fill="#fdf6e3" d="M 215.5,100.5 C 214.404,106.761 214.404,112.928 215.5,119C 212.735,120.097 211.069,122.097 210.5,125C 206.01,123.968 201.677,124.468 197.5,126.5C 196.349,129.465 194.682,132.131 192.5,134.5C 190.694,133.141 189.194,133.475 188,135.5C 186.152,133.982 184.652,132.149 183.5,130C 184.288,126.924 184.788,123.758 185,120.5C 190.674,118.92 195.174,115.754 198.5,111C 198.355,110.228 198.022,109.561 197.5,109C 195.744,108.798 194.078,108.298 192.5,107.5C 192.833,106.833 193.167,106.167 193.5,105.5C 197.18,104.236 200.847,104.236 204.5,105.5C 207.64,103.978 210.973,103.145 214.5,103C 215.252,102.329 215.586,101.496 215.5,100.5 Z"/></g>
<g><path style="opacity:1" fill="#fdf6e3" d="M 161.5,103.5 C 163.296,104.794 165.296,105.794 167.5,106.5C 166.943,108.235 166.61,109.902 166.5,111.5C 167.025,112.192 167.692,112.692 168.5,113C 167.57,114.395 167.57,115.895 168.5,117.5C 166.685,120.409 166.018,123.409 166.5,126.5C 167.025,127.192 167.692,127.692 168.5,128C 167.167,129 167.167,130 168.5,131C 166.833,132.167 165.167,133.333 163.5,134.5C 160.904,133.518 158.238,132.851 155.5,132.5C 156.039,129.305 155.039,126.805 152.5,125C 154.968,123.412 155.134,121.578 153,119.5C 150.144,114.82 146.311,111.154 141.5,108.5C 141.709,107.914 142.043,107.414 142.5,107C 149.241,107.177 155.575,106.011 161.5,103.5 Z"/></g>
<g><path style="opacity:1" fill="#fdf6e3" d="M 169.5,106.5 C 176.574,106.161 183.574,106.661 190.5,108C 190.043,108.414 189.709,108.914 189.5,109.5C 191.766,110.314 194.1,110.814 196.5,111C 194.507,112.621 192.507,114.287 190.5,116C 187.568,116.272 185.068,117.438 183,119.5C 182.718,123.039 182.218,126.539 181.5,130C 182.408,132.314 183.908,134.148 186,135.5C 186.667,136.5 186.667,137.5 186,138.5C 184.687,137.427 183.187,136.76 181.5,136.5C 177.01,137.509 173.01,136.342 169.5,133C 170.013,124.154 170.013,115.321 169.5,106.5 Z"/></g>
<g><path style="opacity:1" fill="#fdf6e3" d="M 255.5,109.5 C 258.361,112.004 261.361,113.504 264.5,114C 262.617,116.378 260.95,118.878 259.5,121.5C 259.876,123.383 260.876,124.883 262.5,126C 260.156,126.837 258.156,128.171 256.5,130C 253.5,130.333 250.5,130.667 247.5,131C 246.718,133.74 246.218,136.574 246,139.5C 244.915,138.707 243.748,138.04 242.5,137.5C 240.779,140.297 238.613,142.631 236,144.5C 234.253,143.67 232.587,142.67 231,141.5C 228.526,144.33 226.359,144.163 224.5,141C 221.443,140.744 218.443,140.244 215.5,139.5C 214.393,140.022 213.226,140.355 212,140.5C 208.894,139.063 206.394,136.896 204.5,134C 201.514,134.128 198.514,134.128 195.5,134C 196.833,132 198.167,130 199.5,128C 200.872,127.598 202.205,127.098 203.5,126.5C 209.202,128.644 213.202,126.977 215.5,121.5C 217.993,122.774 220.326,122.44 222.5,120.5C 224.274,120.887 225.941,121.553 227.5,122.5C 229.638,121.571 230.804,119.904 231,117.5C 231.401,119.521 232.568,120.855 234.5,121.5C 235.249,119.988 236.416,118.988 238,118.5C 240.589,119.697 243.256,120.697 246,121.5C 249.323,119.589 250.656,116.922 250,113.5C 252.015,112.303 253.849,110.97 255.5,109.5 Z"/></g>
<g><path style="opacity:1" fill="#fdf6e3" d="M 139.5,110.5 C 145.435,112.476 149.768,116.309 152.5,122C 149.903,124.262 150.07,126.095 153,127.5C 151.96,131.355 152.46,135.022 154.5,138.5C 154.333,138.833 154.167,139.167 154,139.5C 152.933,138.809 151.766,138.309 150.5,138C 149.881,136.243 148.714,135.076 147,134.5C 145.57,136.67 144.07,136.836 142.5,135C 143.765,133.663 144.265,132.163 144,130.5C 142.237,128.075 139.903,126.409 137,125.5C 133.655,126.719 132.821,128.886 134.5,132C 133.207,132.49 131.873,132.657 130.5,132.5C 130.863,130.089 129.863,128.589 127.5,128C 128.833,127 128.833,126 127.5,125C 130.135,123.039 131.969,120.539 133,117.5C 134.828,115.919 136.828,114.585 139,113.5C 139.483,112.552 139.649,111.552 139.5,110.5 Z"/></g>
<g><path style="opacity:1" fill="#fdf6e3" d="M 136.5,127.5 C 138.911,128.405 140.911,129.905 142.5,132C 141.643,132.689 140.977,133.522 140.5,134.5C 142.059,137.328 143.725,140.161 145.5,143C 143.566,144.954 143.233,147.12 144.5,149.5C 140.555,150.491 136.555,150.824 132.5,150.5C 132.17,147.891 130.67,146.224 128,145.5C 126.66,141.6 126.827,137.6 128.5,133.5C 130.839,134.724 133.172,134.724 135.5,133.5C 135.803,131.471 136.136,129.471 136.5,127.5 Z"/></g>
<g><path style="opacity:1" fill="#fdf6e3" d="M 262.5,127.5 C 264.965,131.031 266.632,135.031 267.5,139.5C 268.025,140.192 268.692,140.692 269.5,141C 264.748,146.179 265.748,149.345 272.5,150.5C 272.5,152.833 272.5,155.167 272.5,157.5C 269.312,155.988 266.146,154.322 263,152.5C 256.493,155.659 249.659,156.325 242.5,154.5C 241.724,151.014 241.058,147.514 240.5,144C 241.317,142.51 242.15,141.01 243,139.5C 244.439,141.014 245.939,141.347 247.5,140.5C 248.393,137.916 248.726,135.249 248.5,132.5C 254.257,133.552 258.924,131.885 262.5,127.5 Z"/></g>
<g><path style="opacity:1" fill="#fdf6e3" d="M 190.5,135.5 C 194.787,136.695 199.12,136.695 203.5,135.5C 203.5,136.5 203.5,137.5 203.5,138.5C 204.675,138.281 205.675,138.614 206.5,139.5C 204.254,146.234 202.921,153.234 202.5,160.5C 201.132,162.637 200.132,164.97 199.5,167.5C 194.632,169.079 192.799,167.412 194,162.5C 192.509,160.996 190.676,160.163 188.5,160C 187.983,156.466 185.983,154.299 182.5,153.5C 181.394,150.274 179.561,147.607 177,145.5C 178.286,143.543 179.119,141.21 179.5,138.5C 181.827,138.247 183.827,138.914 185.5,140.5C 187.581,139.2 189.248,137.533 190.5,135.5 Z"/></g>
<g><path style="opacity:1" fill="#b58900" d="M 154.5,133.5 C 156.896,134.3 159.229,135.3 161.5,136.5C 162.132,138.965 163.632,140.631 166,141.5C 166.053,144.245 167.22,146.245 169.5,147.5C 169.833,148.167 170.167,148.833 170.5,149.5C 169.094,152.337 168.261,155.337 168,158.5C 167.798,156.744 167.298,155.078 166.5,153.5C 164.5,152.833 162.5,152.167 160.5,151.5C 157.003,151.528 153.336,151.694 149.5,152C 147.459,153.242 146.293,155.075 146,157.5C 144.667,156.167 143.333,156.167 142,157.5C 141.333,156.833 141.333,156.167 142,155.5C 145.683,153.543 146.85,150.71 145.5,147C 148.353,143.904 148.02,141.237 144.5,139C 145.667,138.5 146.5,137.667 147,136.5C 148.789,139.988 151.623,141.488 155.5,141C 156.059,140.275 156.392,139.442 156.5,138.5C 155.813,136.823 155.146,135.156 154.5,133.5 Z"/></g>
<g><path style="opacity:1" fill="#fdf6e3" d="M 13.5,135.5 C 14.9953,135.415 15.9953,136.081 16.5,137.5C 20.7956,138.328 25.1289,138.828 29.5,139C 31.1161,139.615 32.4495,140.615 33.5,142C 37.7891,142.52 41.7891,143.687 45.5,145.5C 44.7415,141.76 46.2415,140.093 50,140.5C 73.087,144.063 96.2537,147.23 119.5,150C 119.833,150.333 120.167,150.667 120.5,151C 115.175,154.486 109.508,157.32 103.5,159.5C 101.351,163.196 99.3511,166.863 97.5,170.5C 97.6207,171.894 97.954,173.228 98.5,174.5C 100.098,174.61 101.765,174.943 103.5,175.5C 104.244,176.991 104.91,178.491 105.5,180C 107.5,179.667 109.5,179.333 111.5,179C 109.686,181.481 109.02,184.315 109.5,187.5C 106.335,186.964 103.669,187.797 101.5,190C 96.2016,191.188 91.3682,193.354 87,196.5C 85.2477,202.8 81.081,205.633 74.5,205C 72.1667,207.667 69.8333,210.333 67.5,213C 61.5,213.333 55.5,213.667 49.5,214C 49,214.5 48.5,215 48,215.5C 43.2117,212.379 38.7117,208.879 34.5,205C 30.7379,204.073 27.2379,204.573 24,206.5C 22.3697,205.287 20.5364,204.454 18.5,204C 19.5171,202.951 19.6838,201.784 19,200.5C 17.4008,197.622 15.5675,194.956 13.5,192.5C 14.5227,190.997 15.5227,189.497 16.5,188C 15.7827,186.469 14.7827,185.136 13.5,184C 15.3165,181.394 15.8165,178.56 15,175.5C 13.9326,174.809 12.7659,174.309 11.5,174C 12.4996,171.909 11.8329,170.243 9.5,169C 7.83093,167.331 5.83093,166.498 3.5,166.5C 4.0218,163.432 4.85513,160.432 6,157.5C 7.99644,157.004 9.66311,156.004 11,154.5C 12.3484,148.228 13.1818,141.895 13.5,135.5 Z"/></g>
<g><path style="opacity:1" fill="#fdf6e3" d="M 167.5,133.5 C 168.812,134.812 170.146,136.146 171.5,137.5C 173.396,138.466 175.396,138.799 177.5,138.5C 176.986,140.698 175.986,142.698 174.5,144.5C 177.051,146.894 179.051,149.727 180.5,153C 177.167,153.667 173.833,153.667 170.5,153C 172.604,151.164 172.938,148.998 171.5,146.5C 169.443,142.957 166.776,139.79 163.5,137C 165.093,136.051 166.426,134.885 167.5,133.5 Z"/></g>
<g><path style="opacity:1" fill="#fdf6e3" d="M 207.5,140.5 C 209.844,142.711 212.51,143.045 215.5,141.5C 218.109,142.23 220.776,142.73 223.5,143C 225.857,146.016 228.357,146.182 231,143.5C 233.12,145.821 235.62,146.488 238.5,145.5C 239.661,149.795 239.828,154.129 239,158.5C 236.913,159.834 235.413,161.667 234.5,164C 224.186,163.512 213.853,162.845 203.5,162C 205.214,154.952 206.547,147.785 207.5,140.5 Z"/></g>
<g><path style="opacity:1" fill="#fdf6e3" d="M 129.5,148.5 C 130.249,149.531 130.915,150.698 131.5,152C 135.167,152.333 138.833,152.667 142.5,153C 139.173,154.791 138.84,156.957 141.5,159.5C 142.396,158.494 143.062,158.494 143.5,159.5C 142.167,161.5 142.167,163.5 143.5,165.5C 140.816,166.139 138.316,166.139 136,165.5C 135.945,163.115 134.778,161.781 132.5,161.5C 130.272,163.04 127.938,164.54 125.5,166C 122.518,166.498 119.518,166.665 116.5,166.5C 115.096,170.009 113.429,173.342 111.5,176.5C 109.61,176.297 108.11,176.963 107,178.5C 106.584,173.938 104.251,172.272 100,173.5C 100.656,168.833 102.489,164.5 105.5,160.5C 111.704,158.396 117.371,155.229 122.5,151C 125.361,151.03 127.695,150.197 129.5,148.5 Z"/></g>
<g><path style="opacity:1" fill="#fdf6e3" d="M 261.5,154.5 C 267.104,157.609 272.771,160.609 278.5,163.5C 277.829,164.946 276.662,165.612 275,165.5C 266.85,163.071 264.183,166.071 267,174.5C 273.262,178.354 272.928,179.688 266,178.5C 264.413,179.337 263.58,180.67 263.5,182.5C 265.228,184.229 266.561,186.229 267.5,188.5C 267.57,190.666 266.904,190.999 265.5,189.5C 264.673,193.459 264.173,197.459 264,201.5C 262.551,197.353 259.717,195.519 255.5,196C 254.929,197.205 254.262,198.372 253.5,199.5C 252.205,197.672 251.205,195.672 250.5,193.5C 247.712,192.04 245.545,192.707 244,195.5C 243.176,194.192 242.676,192.692 242.5,191C 241.207,190.51 239.873,190.343 238.5,190.5C 238.666,186.154 238.499,181.821 238,177.5C 237.04,174.944 235.54,172.777 233.5,171C 235.381,165.391 238.381,160.558 242.5,156.5C 248.114,157.621 253.78,157.788 259.5,157C 260.381,156.292 261.047,155.458 261.5,154.5 Z"/></g>
<g><path style="opacity:1" fill="#fdf6e3" d="M 180.5,154.5 C 181.779,155.968 183.446,156.635 185.5,156.5C 185.421,157.93 185.754,159.264 186.5,160.5C 188.453,161.761 190.453,162.927 192.5,164C 191.646,165.881 191.979,167.714 193.5,169.5C 196.282,170.952 198.782,170.619 201,168.5C 201.667,171.167 201.667,173.833 201,176.5C 198.324,173.286 194.824,171.786 190.5,172C 185.861,168.676 181.195,165.342 176.5,162C 173.711,161.759 171.044,161.092 168.5,160C 170.107,158.951 170.773,157.451 170.5,155.5C 174.042,155.813 177.375,155.479 180.5,154.5 Z"/></g>
<g><path style="opacity:1" fill="#fdf6e3" d="M 150.5,153.5 C 155.599,154.272 160.599,154.605 165.5,154.5C 165.014,157.755 166.014,160.422 168.5,162.5C 171.316,163.018 173.982,163.851 176.5,165C 173.468,167.561 171.301,170.728 170,174.5C 168.955,171.564 168.121,168.564 167.5,165.5C 163.504,161.839 159.171,158.672 154.5,156C 152.833,155.667 151.167,155.333 149.5,155C 150.056,154.617 150.389,154.117 150.5,153.5 Z"/></g>
<g><path style="opacity:1" fill="#fdf6e3" d="M 202.5,163.5 C 212.801,164.478 223.134,165.645 233.5,167C 232.376,167.839 231.709,169.006 231.5,170.5C 235.888,176.642 237.721,183.642 237,191.5C 238.399,192.227 239.899,192.727 241.5,193C 235.56,192.347 229.56,191.68 223.5,191C 222.432,188.295 220.432,186.795 217.5,186.5C 211.75,187.992 206.084,187.825 200.5,186C 198.547,182.735 197.713,179.235 198,175.5C 199.506,178.474 201.172,178.807 203,176.5C 203.415,172.152 203.249,167.819 202.5,163.5 Z"/></g>
<g><path style="opacity:1" fill="#fdf6e3" d="M 177.5,165.5 C 181.782,167.648 185.782,170.315 189.5,173.5C 191.409,174.348 193.409,174.682 195.5,174.5C 195.031,178.91 196.031,182.91 198.5,186.5C 197.573,188.491 197.406,190.491 198,192.5C 193.469,191.785 188.969,190.785 184.5,189.5C 183.016,186.383 182.016,183.05 181.5,179.5C 178.365,177.533 175.698,175.033 173.5,172C 174.73,169.661 176.063,167.494 177.5,165.5 Z"/></g>
<g><path style="opacity:1" fill="#fdf6e3" d="M 336.5,166.5 C 339.336,168.222 342.336,169.556 345.5,170.5C 346.953,172.826 348.286,175.326 349.5,178C 352.76,177.518 356.093,177.518 359.5,178C 358.289,178.893 358.289,179.726 359.5,180.5C 361.071,181.309 362.738,181.643 364.5,181.5C 364.335,184.504 365.668,186.504 368.5,187.5C 372.504,185.067 376.838,183.401 381.5,182.5C 382.875,180.837 382.542,179.503 380.5,178.5C 381.729,177.719 383.062,177.219 384.5,177C 385.112,175.697 385.446,174.53 385.5,173.5C 388.28,174.195 390.947,175.195 393.5,176.5C 394.167,175.833 394.833,175.167 395.5,174.5C 396.69,176.453 398.024,178.287 399.5,180C 400.793,180.49 402.127,180.657 403.5,180.5C 404.057,184.634 403.057,188.301 400.5,191.5C 401.167,192.167 401.833,192.833 402.5,193.5C 400.565,194.068 399.232,195.235 398.5,197C 398.905,197.945 399.572,198.612 400.5,199C 399.707,200.085 399.04,201.252 398.5,202.5C 401.172,205.193 403.839,207.859 406.5,210.5C 407.107,212.775 407.441,215.109 407.5,217.5C 406.073,226.108 405.239,234.775 405,243.5C 403.244,245.616 401.744,247.949 400.5,250.5C 402.291,252.947 404.624,254.78 407.5,256C 406.736,258.069 406.236,260.236 406,262.5C 397.774,270.272 391.608,279.605 387.5,290.5C 388.82,292.27 390.32,292.603 392,291.5C 392.333,296.167 392.667,300.833 393,305.5C 395.473,306.12 397.973,306.786 400.5,307.5C 399.833,308.833 399.167,310.167 398.5,311.5C 399.025,312.192 399.692,312.692 400.5,313C 398.845,314.444 398.178,316.278 398.5,318.5C 395.041,318.469 391.708,317.802 388.5,316.5C 387.808,317.025 387.308,317.692 387,318.5C 381.346,318.836 375.679,318.169 370,316.5C 367.648,316.305 365.648,316.972 364,318.5C 362.983,315.972 361.816,315.972 360.5,318.5C 359.506,323.456 359.173,328.456 359.5,333.5C 357.857,333.52 356.524,332.853 355.5,331.5C 354.77,329.659 354.103,327.825 353.5,326C 351.58,324.878 349.58,324.044 347.5,323.5C 346.614,319.963 344.281,318.296 340.5,318.5C 340.5,321.167 340.5,323.833 340.5,326.5C 336.96,326.806 335.626,325.473 336.5,322.5C 334.709,320.587 332.709,318.92 330.5,317.5C 329.92,315.363 328.92,313.53 327.5,312C 327.957,311.586 328.291,311.086 328.5,310.5C 327.775,306.254 326.442,302.254 324.5,298.5C 320.401,297.953 317.068,296.12 314.5,293C 311.507,291.631 308.507,291.297 305.5,292C 303.943,285.876 299.943,283.21 293.5,284C 294.46,282.581 295.293,281.081 296,279.5C 296.264,275.045 297.098,270.711 298.5,266.5C 296.427,264.344 294.76,262.011 293.5,259.5C 294.93,259.579 296.264,259.246 297.5,258.5C 298.509,255.527 298.509,252.527 297.5,249.5C 295.5,248.833 293.5,248.167 291.5,247.5C 291.665,243.818 291.499,240.152 291,236.5C 289.745,235.789 288.579,234.956 287.5,234C 288.833,233 288.833,232 287.5,231C 289.722,226.717 292.055,222.551 294.5,218.5C 291.64,216.394 290.974,213.728 292.5,210.5C 291.96,209.252 291.293,208.085 290.5,207C 292.478,206.519 293.811,205.353 294.5,203.5C 293.272,200.324 292.272,197.158 291.5,194C 293.671,192.826 294.671,190.993 294.5,188.5C 300.571,192.044 305.238,190.711 308.5,184.5C 311.511,183.158 314.511,182.825 317.5,183.5C 319.476,181.603 321.31,179.603 323,177.5C 325.334,180.419 328.167,181.419 331.5,180.5C 332.517,178.163 334.184,176.496 336.5,175.5C 337.509,172.527 337.509,169.527 336.5,166.5 Z"/></g>
<g><path style="opacity:1" fill="#fdf6e3" d="M 172.5,173.5 C 174.07,175.653 175.737,177.819 177.5,180C 178.448,180.483 179.448,180.649 180.5,180.5C 180.336,183.187 180.503,185.854 181,188.5C 184.499,192.547 186.999,197.213 188.5,202.5C 191.852,203.905 192.018,205.239 189,206.5C 187.234,208.596 185.901,210.929 185,213.5C 184.027,211.608 183.36,209.608 183,207.5C 181.667,206.833 180.333,206.167 179,205.5C 178.673,201.184 177.173,197.35 174.5,194C 174.529,191.568 173.362,189.402 171,187.5C 170.097,182.609 170.597,177.942 172.5,173.5 Z"/></g>
<g><path style="opacity:1" fill="#fdf6e3" d="M 199.5,187.5 C 204.659,189.008 209.992,190.008 215.5,190.5C 217.054,194.39 216.721,198.057 214.5,201.5C 215.167,203.5 215.833,205.5 216.5,207.5C 217.325,208.386 218.325,208.719 219.5,208.5C 217.59,212.459 216.423,216.793 216,221.5C 215.075,222.047 214.242,222.713 213.5,223.5C 215.753,229.173 218.42,234.673 221.5,240C 219.833,243.965 216.833,245.465 212.5,244.5C 210.264,237.09 207.764,229.756 205,222.5C 203.622,220.787 201.955,219.453 200,218.5C 199.167,216.5 198.333,214.5 197.5,212.5C 194.548,211.932 191.881,210.766 189.5,209C 190.685,207.647 192.019,206.48 193.5,205.5C 190.761,201.392 188.095,197.225 185.5,193C 189.872,192.921 194.206,193.421 198.5,194.5C 199.881,194 200.547,193 200.5,191.5C 200.154,190.151 199.821,188.817 199.5,187.5 Z"/></g>
<g><path style="opacity:1" fill="#fdf6e3" d="M 216.5,189.5 C 217.251,188.427 218.251,188.26 219.5,189C 220.614,190.57 221.947,191.903 223.5,193C 230.363,193.46 237.03,194.793 243.5,197C 244.282,199.74 244.782,202.574 245,205.5C 247,206.5 247,207.5 245,208.5C 244.333,210.833 244.333,213.167 245,215.5C 246.825,216.103 248.659,216.77 250.5,217.5C 249.706,223.783 249.206,230.116 249,236.5C 248.306,239.947 246.306,241.947 243,242.5C 236.599,241.099 230.099,240.099 223.5,239.5C 220.415,234.495 217.748,229.329 215.5,224C 216.416,223.626 217.25,223.126 218,222.5C 218.245,218.181 219.411,214.181 221.5,210.5C 221.455,207.811 220.121,206.477 217.5,206.5C 217.714,204.856 217.38,203.356 216.5,202C 218.028,200.352 218.695,198.352 218.5,196C 218.664,193.456 217.997,191.29 216.5,189.5 Z"/></g>
<g><path style="opacity:1" fill="#fdf6e3" d="M 246.5,194.5 C 247.5,194.5 248.5,194.5 249.5,194.5C 250.142,202.364 252.975,203.364 258,197.5C 260.151,198.812 261.651,200.645 262.5,203C 271.913,202.861 280.913,204.695 289.5,208.5C 289.621,211.002 289.788,213.668 290,216.5C 290.925,217.047 291.758,217.713 292.5,218.5C 290.381,220.929 288.547,223.595 287,226.5C 286.017,229.319 285.517,231.986 285.5,234.5C 286.347,235.845 287.513,236.845 289,237.5C 289.333,241.167 289.667,244.833 290,248.5C 294.609,249.851 296.775,252.851 296.5,257.5C 293.476,257.175 291.809,258.508 291.5,261.5C 292.93,263.386 294.597,265.053 296.5,266.5C 295.098,270.711 294.264,275.045 294,279.5C 292.325,281.591 291.825,283.758 292.5,286C 295.167,286.333 297.833,286.667 300.5,287C 305.273,294.073 303.273,296.74 294.5,295C 292.087,291.088 289.087,290.254 285.5,292.5C 279.777,289.781 277.11,291.781 277.5,298.5C 274.769,297.973 272.102,297.14 269.5,296C 271.869,295.464 273.869,294.297 275.5,292.5C 273.836,289.169 271.336,288.502 268,290.5C 266.553,290.055 265.22,289.388 264,288.5C 262.386,289.817 261.219,291.483 260.5,293.5C 256.066,291.591 252.566,292.591 250,296.5C 247.299,293.902 244.466,291.569 241.5,289.5C 241.32,288.446 240.987,287.446 240.5,286.5C 241.531,285.3 242.365,283.966 243,282.5C 243.333,277.833 243.667,273.167 244,268.5C 244.667,267.167 245.333,265.833 246,264.5C 247.598,256.611 248.598,248.611 249,240.5C 249.667,239.167 250.333,237.833 251,236.5C 251.206,230.116 251.706,223.783 252.5,217.5C 251.288,215.077 249.288,214.077 246.5,214.5C 246.278,211.61 246.945,208.943 248.5,206.5C 246.976,203.18 245.976,199.68 245.5,196C 246.056,195.617 246.389,195.117 246.5,194.5 Z"/></g>
<g><path style="opacity:1" fill="#fdf6e3" d="M 222.5,242.5 C 230.628,242.241 238.628,242.908 246.5,244.5C 245.392,251.084 244.559,257.751 244,264.5C 243.333,265.833 242.667,267.167 242,268.5C 241.667,273.167 241.333,277.833 241,282.5C 237.75,285.353 233.917,286.186 229.5,285C 227.414,282.831 225.414,280.664 223.5,278.5C 222.833,278.833 222.167,279.167 221.5,279.5C 220.985,281.225 220.318,282.892 219.5,284.5C 217.902,284.61 216.235,284.943 214.5,285.5C 211.396,282.152 208.396,278.652 205.5,275C 205.355,274.228 205.022,273.561 204.5,273C 209.524,272.42 211.857,269.587 211.5,264.5C 212.496,258.537 212.829,252.537 212.5,246.5C 216.775,247.25 220.109,245.917 222.5,242.5 Z"/></g>
<g><path style="opacity:1" fill="#fdf6e3" d="M 202.5,273.5 C 205.134,276.836 207.467,280.503 209.5,284.5C 215.802,289.707 220.468,288.374 223.5,280.5C 224.338,283.75 226.338,285.916 229.5,287C 232.817,287.498 236.15,287.665 239.5,287.5C 239.412,292.145 241.745,294.645 246.5,295C 247.167,296.333 248.167,297.333 249.5,298C 248.209,300.09 248.876,301.424 251.5,302C 245.067,307.903 241.067,315.069 239.5,323.5C 236.428,319.511 233.761,319.845 231.5,324.5C 232.167,325.5 232.833,326.5 233.5,327.5C 232.5,328.833 231.5,330.167 230.5,331.5C 233.651,335.151 236.984,338.651 240.5,342C 239.577,344.041 239.244,346.208 239.5,348.5C 237.251,347.769 235.084,346.769 233,345.5C 231.699,346.098 230.865,347.098 230.5,348.5C 232.193,352.536 235.193,354.536 239.5,354.5C 240.246,357.827 242.246,359.993 245.5,361C 244.333,361.167 243.167,361.333 242,361.5C 236.82,359.719 231.653,357.886 226.5,356C 222.389,355.698 218.389,354.864 214.5,353.5C 212.124,354.226 210.124,355.559 208.5,357.5C 201.894,358.598 197.56,362.431 195.5,369C 192.905,368.869 190.405,369.036 188,369.5C 184.436,375.765 182.103,382.432 181,389.5C 180.167,388.5 179.333,387.5 178.5,386.5C 174.374,388.443 170.208,390.11 166,391.5C 163.976,387.881 161.809,387.714 159.5,391C 158.207,391.49 156.873,391.657 155.5,391.5C 155.5,392.5 155.5,393.5 155.5,394.5C 151.751,394.224 148.251,393.224 145,391.5C 142.966,391.354 141.299,392.02 140,393.5C 139.502,390.183 139.335,386.85 139.5,383.5C 136.754,383.072 135.087,381.406 134.5,378.5C 130.71,375.609 127.377,372.275 124.5,368.5C 122.885,367.846 121.218,367.346 119.5,367C 105.738,350.549 89.4042,337.549 70.5,328C 73.6568,326.831 76.9901,326.831 80.5,328C 84.1787,329.678 87.8454,331.344 91.5,333C 95.5295,337.672 99.5295,342.338 103.5,347C 112.347,349.266 121.347,349.933 130.5,349C 137.268,345.959 144.268,343.626 151.5,342C 156.758,339.16 162.091,336.493 167.5,334C 168.826,331.842 170.493,330.008 172.5,328.5C 173.428,327.232 173.595,325.899 173,324.5C 168.534,322.617 168.534,320.951 173,319.5C 173.402,318.128 173.902,316.795 174.5,315.5C 177.661,313.172 180.495,310.505 183,307.5C 182.955,302.534 183.955,297.868 186,293.5C 188.022,292.214 190.189,291.214 192.5,290.5C 196.51,285.095 199.843,279.429 202.5,273.5 Z"/></g>
<g><path style="opacity:0.004" fill="#000000" d="M 99.5,336.5 C 100.833,337.167 100.833,337.167 99.5,336.5 Z"/></g>
<g><path style="opacity:0.004" fill="#000000" d="M 106.5,342.5 C 107.525,342.897 107.692,343.563 107,344.5C 106.536,343.906 106.369,343.239 106.5,342.5 Z"/></g>
<g><path style="opacity:1" fill="#fdf6e3" d="M 232.5,347.5 C 234.337,347.639 234.67,348.306 233.5,349.5C 232.702,349.043 232.369,348.376 232.5,347.5 Z"/></g>
<g><path style="opacity:0.999" fill="#fdf6e3" d="M 235.5,350.5 C 237.167,350.5 238.833,350.5 240.5,350.5C 240.649,351.552 240.483,352.552 240,353.5C 237.974,353.085 236.474,352.085 235.5,350.5 Z"/></g>
</svg>
