<?xml version="1.0" encoding="UTF-8"?>
<svg version="1.1" xmlns="http://www.w3.org/2000/svg" width="1024" height="1024">
<path d="M0 0 C337.92 0 675.84 0 1024 0 C1024 337.92 1024 675.84 1024 1024 C686.08 1024 348.16 1024 0 1024 C0 686.08 0 348.16 0 0 Z " fill="none" transform="translate(0,0)"/>
<path d="M0 0 C247.5 0 495 0 750 0 C750 2.64 750 5.28 750 8 C752.64 8 755.28 8 758 8 C758 10.64 758 13.28 758 16 C760.97 16 763.94 16 767 16 C767 203.77 767 391.54 767 585 C764.03 585 761.06 585 758 585 C758 587.64 758 590.28 758 593 C755.03 593 752.06 593 749 593 C749 595.64 749 598.28 749 601 C651.32 601 553.64 601 453 601 C453 622.78 453 644.56 453 667 C455.64 667 458.28 667 461 667 C461 672.28 461 677.56 461 683 C463.64 683 466.28 683 469 683 C469 685.64 469 688.28 469 691 C474.61 691 480.22 691 486 691 C486 693.64 486 696.28 486 699 C493.92 699 501.84 699 510 699 C510 701.97 510 704.94 510 708 C515.61 708 521.22 708 527 708 C527 716.58 527 725.16 527 734 C423.38 734 319.76 734 213 734 C213 728.06 213 722.12 213 716 C215.64 716 218.28 716 221 716 C221 713.36 221 710.72 221 708 C226.61 708 232.22 708 238 708 C238 705.36 238 702.72 238 700 C245.92 700 253.84 700 262 700 C262 697.03 262 694.06 262 691 C267.61 691 273.22 691 279 691 C279 688.36 279 685.72 279 683 C281.64 683 284.28 683 287 683 C287 677.72 287 672.44 287 667 C289.64 667 292.28 667 295 667 C295 645.22 295 623.44 295 601 C197.32 601 99.64 601 -1 601 C-1 598.36 -1 595.72 -1 593 C-3.64 593 -6.28 593 -9 593 C-9 587.72 -9 582.44 -9 577 C-11.64 577 -14.28 577 -17 577 C-17 391.87 -17 206.74 -17 16 C-14.36 16 -11.72 16 -9 16 C-9 13.36 -9 10.72 -9 8 C-6.03 8 -3.06 8 0 8 C0 5.36 0 2.72 0 0 Z " fill="#EEA85A" transform="translate(139,146)"/>
<path d="M0 0 C247.5 0 495 0 750 0 C750 2.64 750 5.28 750 8 C752.64 8 755.28 8 758 8 C758 10.64 758 13.28 758 16 C760.97 16 763.94 16 767 16 C767 203.77 767 391.54 767 585 C764.03 585 761.06 585 758 585 C758 587.64 758 590.28 758 593 C755.03 593 752.06 593 749 593 C749 595.64 749 598.28 749 601 C651.32 601 553.64 601 453 601 C453 622.78 453 644.56 453 667 C455.64 667 458.28 667 461 667 C461 672.28 461 677.56 461 683 C463.64 683 466.28 683 469 683 C469 685.64 469 688.28 469 691 C474.61 691 480.22 691 486 691 C486 693.64 486 696.28 486 699 C493.92 699 501.84 699 510 699 C510 701.97 510 704.94 510 708 C515.61 708 521.22 708 527 708 C527 716.58 527 725.16 527 734 C423.38 734 319.76 734 213 734 C213 728.06 213 722.12 213 716 C215.64 716 218.28 716 221 716 C221 713.36 221 710.72 221 708 C226.61 708 232.22 708 238 708 C238 705.36 238 702.72 238 700 C245.92 700 253.84 700 262 700 C262 697.03 262 694.06 262 691 C267.61 691 273.22 691 279 691 C279 688.36 279 685.72 279 683 C281.64 683 284.28 683 287 683 C287 677.72 287 672.44 287 667 C289.64 667 292.28 667 295 667 C295 645.22 295 623.44 295 601 C197.32 601 99.64 601 -1 601 C-1 598.36 -1 595.72 -1 593 C-3.64 593 -6.28 593 -9 593 C-9 587.72 -9 582.44 -9 577 C-11.64 577 -14.28 577 -17 577 C-17 391.87 -17 206.74 -17 16 C-14.36 16 -11.72 16 -9 16 C-9 13.36 -9 10.72 -9 8 C-6.03 8 -3.06 8 0 8 C0 5.36 0 2.72 0 0 Z M24 33 C24 35.97 24 38.94 24 42 C21.36 42 18.72 42 16 42 C16 199.41 16 356.82 16 519 C252.61 519 489.22 519 733 519 C733 361.26 733 203.52 733 41 C730.36 41 727.72 41 725 41 C725 38.36 725 35.72 725 33 C493.67 33 262.34 33 24 33 Z " fill="#DBBF9C" transform="translate(139,146)"/>
<path d="M0 0 C231.33 0 462.66 0 701 0 C701 2.64 701 5.28 701 8 C703.64 8 706.28 8 709 8 C709 165.74 709 323.48 709 486 C472.39 486 235.78 486 -8 486 C-8 328.59 -8 171.18 -8 9 C-5.36 9 -2.72 9 0 9 C0 6.03 0 3.06 0 0 Z M41 24 C41 26.97 41 29.94 41 33 C35.72 33 30.44 33 25 33 C25 35.64 25 38.28 25 41 C22.03 41 19.06 41 16 41 C15.97721019 72.32192301 15.95950211 103.64384384 15.94893467 134.96577316 C15.94768389 138.65971793 15.94638958 142.35366268 15.94506836 146.04760742 C15.94480605 146.78303635 15.94454374 147.51846527 15.94427348 148.27617992 C15.93991666 160.19978169 15.93202905 172.12337866 15.9228472 184.04697757 C15.91351098 196.27258626 15.90794446 208.49819243 15.90591151 220.72380453 C15.90453621 228.2737296 15.90018528 235.8236411 15.89208353 243.37356199 C15.88619576 249.15308919 15.88554096 254.93260762 15.88689232 260.71213722 C15.8866158 263.09024006 15.88460814 265.46834338 15.88079453 267.84644318 C15.875864 271.07785956 15.87699933 274.30921657 15.87974548 277.54063416 C15.87683264 278.49489459 15.8739198 279.44915503 15.87091869 280.43233246 C15.4594037 284.54049666 15.4594037 284.54049666 17 288 C19.64 288 22.28 288 25 288 C25 296.25 25 304.5 25 313 C27.64 313 30.28 313 33 313 C33 315.64 33 318.28 33 321 C35.64 321 38.28 321 41 321 C41 326.28 41 331.56 41 337 C49.25 337 57.5 337 66 337 C66 339.64 66 342.28 66 345 C250.8 345 435.6 345 626 345 C626 342.36 626 339.72 626 337 C631.61 337 637.22 337 643 337 C643 334.36 643 331.72 643 329 C648.61 329 654.22 329 660 329 C659.67 326.36 659.34 323.72 659 321 C661.97 321 664.94 321 668 321 C668 318.36 668 315.72 668 313 C670.64 313 673.28 313 676 313 C676 302.11 676 291.22 676 280 C678.64 280 681.28 280 684 280 C684 206.41 684 132.82 684 57 C681.36 57 678.72 57 676 57 C676 51.72 676 46.44 676 41 C673.36 41 670.72 41 668 41 C668.03255208 38.94921875 668.06510417 36.8984375 668.09765625 34.84765625 C668.20561184 32.98267859 668.20561184 32.98267859 667 32 C664.30345146 31.92680379 661.63308542 31.90757463 658.9375 31.9375 C657.79958008 31.94426758 657.79958008 31.94426758 656.63867188 31.95117188 C654.75908129 31.9629932 652.87953101 31.98092922 651 32 C651 29.36 651 26.72 651 24 C449.7 24 248.4 24 41 24 Z " fill="#E8853F" transform="translate(163,179)"/>
<path d="M0 0 C0.33 0 0.66 0 1 0 C1 12.54 1 25.08 1 38 C3.97 37.505 3.97 37.505 7 37 C7.66 37.33 8.32 37.66 9 38 C9 43.28 9 48.56 9 54 C11.64 54 14.28 54 17 54 C17 59.28 17 64.56 17 70 C19.64 70 22.28 70 25 70 C25 72.97 25 75.94 25 79 C26.05767578 78.75443359 26.05767578 78.75443359 27.13671875 78.50390625 C30.09658688 77.98300176 32.81061273 77.90133268 35.8125 77.9375 C37.27623047 77.95103516 37.27623047 77.95103516 38.76953125 77.96484375 C39.50558594 77.97644531 40.24164063 77.98804688 41 78 C41 80.64 41 83.28 41 86 C234.38 86 427.76 86 627 86 C627 83.69 627 81.38 627 79 C634.92 78.67 642.84 78.34 651 78 C651.33 72.72 651.66 67.44 652 62 C654.64 62 657.28 62 660 62 C660 54.08 660 46.16 660 38 C662.64 38 665.28 38 668 38 C668 59.78 668 81.56 668 104 C665.36 104 662.72 104 660 104 C660 114.89 660 125.78 660 137 C657.36 137 654.72 137 652 137 C652 139.64 652 142.28 652 145 C649.03 145 646.06 145 643 145 C643.33 147.64 643.66 150.28 644 153 C638.39 153 632.78 153 627 153 C627 155.64 627 158.28 627 161 C621.39 161 615.78 161 610 161 C610 163.64 610 166.28 610 169 C425.2 169 240.4 169 50 169 C50 166.36 50 163.72 50 161 C41.75 161 33.5 161 25 161 C25 155.72 25 150.44 25 145 C22.36 145 19.72 145 17 145 C17 142.36 17 139.72 17 137 C14.36 137 11.72 137 9 137 C9 128.75 9 120.5 9 112 C6.36 112 3.72 112 1 112 C0 111 0 111 -0.12304783 109.14342403 C-0.12212604 108.32579366 -0.12120424 107.50816328 -0.12025452 106.66575623 C-0.12162918 105.73041046 -0.12300385 104.7950647 -0.12442017 103.83137512 C-0.12082489 102.79703842 -0.11722961 101.76270172 -0.11352539 100.69702148 C-0.11367142 99.61422913 -0.11381744 98.53143677 -0.1139679 97.41583252 C-0.11326823 93.81756626 -0.10547333 90.21935103 -0.09765625 86.62109375 C-0.09579226 84.13387582 -0.09436827 81.64665752 -0.09336853 79.15943909 C-0.0899335 73.26978809 -0.08204277 67.3801561 -0.07201904 61.49051291 C-0.05976246 54.12974626 -0.05437791 46.76897736 -0.04882812 39.40820312 C-0.03808815 26.27212602 -0.02120089 13.13606417 0 0 Z " fill="#ED9346" transform="translate(179,355)"/>
<path d="M0 0 C247.5 0 495 0 750 0 C750 2.64 750 5.28 750 8 C752.64 8 755.28 8 758 8 C758 10.64 758 13.28 758 16 C760.97 16 763.94 16 767 16 C767 203.77 767 391.54 767 585 C764.03 585 761.06 585 758 585 C758 587.64 758 590.28 758 593 C755.03 593 752.06 593 749 593 C749 595.64 749 598.28 749 601 C651.32 601 553.64 601 453 601 C453 622.78 453 644.56 453 667 C455.64 667 458.28 667 461 667 C461 672.28 461 677.56 461 683 C463.64 683 466.28 683 469 683 C469 685.64 469 688.28 469 691 C474.61 691 480.22 691 486 691 C486 693.64 486 696.28 486 699 C493.92 699 501.84 699 510 699 C510 701.97 510 704.94 510 708 C515.61 708 521.22 708 527 708 C527 716.58 527 725.16 527 734 C423.38 734 319.76 734 213 734 C213 728.06 213 722.12 213 716 C215.64 716 218.28 716 221 716 C221 713.36 221 710.72 221 708 C226.61 708 232.22 708 238 708 C238 705.36 238 702.72 238 700 C245.92 700 253.84 700 262 700 C262 697.03 262 694.06 262 691 C267.61 691 273.22 691 279 691 C279 688.36 279 685.72 279 683 C281.64 683 284.28 683 287 683 C287 677.72 287 672.44 287 667 C289.64 667 292.28 667 295 667 C295 645.22 295 623.44 295 601 C197.32 601 99.64 601 -1 601 C-1 598.36 -1 595.72 -1 593 C-3.64 593 -6.28 593 -9 593 C-9 587.72 -9 582.44 -9 577 C-11.64 577 -14.28 577 -17 577 C-17 391.87 -17 206.74 -17 16 C-14.36 16 -11.72 16 -9 16 C-9 13.36 -9 10.72 -9 8 C-6.03 8 -3.06 8 0 8 C0 5.36 0 2.72 0 0 Z M8 9 C8 11.64 8 14.28 8 17 C5.36 17 2.72 17 0 17 C0 19.64 0 22.28 0 25 C-2.64 25 -5.28 25 -8 25 C-8 206.83 -8 388.66 -8 576 C-5.36 576 -2.72 576 0 576 C0 578.64 0 581.28 0 584 C2.64 584 5.28 584 8 584 C8 586.97 8 589.94 8 593 C250.22 593 492.44 593 742 593 C742 590.36 742 587.72 742 585 C744.64 585 747.28 585 750 585 C750 582.03 750 579.06 750 576 C752.64 576 755.28 576 758 576 C758 394.17 758 212.34 758 25 C755.03 25 752.06 25 749 25 C749 22.36 749 19.72 749 17 C746.36 17 743.72 17 741 17 C741 14.36 741 11.72 741 9 C499.11 9 257.22 9 8 9 Z " fill="#DBBE9C" transform="translate(139,146)"/>
<path d="M0 0 C0.33 0 0.66 0 1 0 C1 32.67 1 65.34 1 99 C3.64 99 6.28 99 9 99 C9 106.92 9 114.84 9 123 C11.64 123 14.28 123 17 123 C17 125.64 17 128.28 17 131 C19.64 131 22.28 131 25 131 C25.33 133.31 25.66 135.62 26 138 C30.95 138.33 35.9 138.66 41 139 C41 140.98 41 142.96 41 145 C237.02 145 433.04 145 635 145 C635 143.02 635 141.04 635 139 C637.97 139 640.94 139 644 139 C644 136.36 644 133.72 644 131 C646.64 131 649.28 131 652 131 C652 128.36 652 125.72 652 123 C654.64 123 657.28 123 660 123 C660 115.08 660 107.16 660 99 C662.64 99 665.28 99 668 99 C668 123.42 668 147.84 668 173 C665.36 173 662.72 173 660 173 C660 180.92 660 188.84 660 197 C657.36 197 654.72 197 652 197 C652.01160156 198.14339844 652.02320313 199.28679687 652.03515625 200.46484375 C652.04453288 201.95572754 652.05363321 203.44661309 652.0625 204.9375 C652.07087891 205.69224609 652.07925781 206.44699219 652.08789062 207.22460938 C652.09652441 209.14994313 652.05224333 211.07535581 652 213 C651 214 651 214 648.68334961 214.11352539 C647.68311768 214.10828857 646.68288574 214.10305176 645.65234375 214.09765625 C644.57275391 214.09443359 643.49316406 214.09121094 642.38085938 214.08789062 C641.24455078 214.07951172 640.10824219 214.07113281 638.9375 214.0625 C637.79732422 214.05798828 636.65714844 214.05347656 635.48242188 214.04882812 C632.65489649 214.03699747 629.8274736 214.0205141 627 214 C627 216.31 627 218.62 627 221 C433.62 221 240.24 221 41 221 C41 218.36 41 215.72 41 213 C35.72 213.33 30.44 213.66 25 214 C25 211.03 25 208.06 25 205 C22.36 205 19.72 205 17 205 C17 199.72 17 194.44 17 189 C14.36 189 11.72 189 9 189 C9 183.72 9 178.44 9 173 C6.36 173 3.72 173 1 173 C-0.28271248 139.38823414 -0.12152567 105.7659204 -0.07202661 72.13640285 C-0.06062914 64.24941237 -0.05529588 56.36242078 -0.05032361 48.47542405 C-0.04000832 32.31693971 -0.02254304 16.15847203 0 0 Z " fill="#EF9E4E" transform="translate(179,220)"/>
<path d="M0 0 C247.5 0 495 0 750 0 C750 2.64 750 5.28 750 8 C752.64 8 755.28 8 758 8 C758 10.64 758 13.28 758 16 C760.97 16 763.94 16 767 16 C767 203.77 767 391.54 767 585 C764.03 585 761.06 585 758 585 C758 587.64 758 590.28 758 593 C755.03 593 752.06 593 749 593 C749 595.64 749 598.28 749 601 C651.32 601 553.64 601 453 601 C453 622.78 453 644.56 453 667 C455.64 667 458.28 667 461 667 C461 672.28 461 677.56 461 683 C458.36 683 455.72 683 453 683 C453 680.36 453 677.72 453 675 C450.36 675 447.72 675 445 675 C445 650.58 445 626.16 445 601 C398.14 601 351.28 601 303 601 C303 625.09 303 649.18 303 674 C300.36 674 297.72 674 295 674 C295 676.97 295 679.94 295 683 C292.36 683 289.72 683 287 683 C287 677.72 287 672.44 287 667 C289.64 667 292.28 667 295 667 C295 645.22 295 623.44 295 601 C197.32 601 99.64 601 -1 601 C-1 598.36 -1 595.72 -1 593 C-3.64 593 -6.28 593 -9 593 C-9 587.72 -9 582.44 -9 577 C-11.64 577 -14.28 577 -17 577 C-17 391.87 -17 206.74 -17 16 C-14.36 16 -11.72 16 -9 16 C-9 13.36 -9 10.72 -9 8 C-6.03 8 -3.06 8 0 8 C0 5.36 0 2.72 0 0 Z M8 9 C8 11.64 8 14.28 8 17 C5.36 17 2.72 17 0 17 C0 19.64 0 22.28 0 25 C-2.64 25 -5.28 25 -8 25 C-8 206.83 -8 388.66 -8 576 C-5.36 576 -2.72 576 0 576 C0 578.64 0 581.28 0 584 C2.64 584 5.28 584 8 584 C8 586.97 8 589.94 8 593 C250.22 593 492.44 593 742 593 C742 590.36 742 587.72 742 585 C744.64 585 747.28 585 750 585 C750 582.03 750 579.06 750 576 C752.64 576 755.28 576 758 576 C758 394.17 758 212.34 758 25 C755.03 25 752.06 25 749 25 C749 22.36 749 19.72 749 17 C746.36 17 743.72 17 741 17 C741 14.36 741 11.72 741 9 C499.11 9 257.22 9 8 9 Z " fill="#54382F" transform="translate(139,146)"/>
<path d="M0 0 C231.33 0 462.66 0 701 0 C701 2.64 701 5.28 701 8 C703.64 8 706.28 8 709 8 C709 165.74 709 323.48 709 486 C472.39 486 235.78 486 -8 486 C-8 328.59 -8 171.18 -8 9 C-5.36 9 -2.72 9 0 9 C0 6.03 0 3.06 0 0 Z M0 9 C0 163.44 0 317.88 0 477 C231 477 462 477 700 477 C700 322.56 700 168.12 700 9 C469 9 238 9 0 9 Z " fill="#52342A" transform="translate(163,179)"/>
<path d="M0 0 C231 0 462 0 700 0 C700 2.64 700 5.28 700 8 C469.33 8 238.66 8 1 8 C1 113.93 1 219.86 1 329 C3.31 329 5.62 329 8 329 C8 361.34 8 393.68 8 427 C10.97 427 13.94 427 17 427 C17 429.64 17 432.28 17 435 C19.64 435 22.28 435 25 435 C25 437.64 25 440.28 25 443 C27.64 443 30.28 443 33 443 C33 445.64 33 448.28 33 451 C239.58 451 446.16 451 659 451 C659 448.36 659 445.72 659 443 C664.61 443 670.22 443 676 443 C676 440.36 676 437.72 676 435 C678.64 435 681.28 435 684 435 C684 432.36 684 429.72 684 427 C686.64 427 689.28 427 692 427 C692 394.33 692 361.66 692 328 C694.64 328 697.28 328 700 328 C700 374.2 700 420.4 700 468 C469 468 238 468 0 468 C0 313.56 0 159.12 0 0 Z " fill="#CB6F3B" transform="translate(163,188)"/>
<path d="M0 0 C231.33 0 462.66 0 701 0 C701 2.64 701 5.28 701 8 C703.64 8 706.28 8 709 8 C709 165.74 709 323.48 709 486 C472.39 486 235.78 486 -8 486 C-8 485.67 -8 485.34 -8 485 C228.28 485 464.56 485 708 485 C708 327.92 708 170.84 708 9 C474.36 9 240.72 9 0 9 C0 6.03 0 3.06 0 0 Z " fill="#5E4034" transform="translate(163,179)"/>
<path d="M0 0 C241.89 0 483.78 0 733 0 C733 2.64 733 5.28 733 8 C491.11 8 249.22 8 0 8 C0 5.36 0 2.72 0 0 Z " fill="#EFD3AA" transform="translate(147,155)"/>
<path d="M0 0 C2.97 0 5.94 0 9 0 C9 179.19 9 358.38 9 543 C6.36 543 3.72 543 1 543 C1 545.97 1 548.94 1 552 C-1.64 552 -4.28 552 -7 552 C-7 554.64 -7 557.28 -7 560 C-249.22 560 -491.44 560 -741 560 C-741 559.67 -741 559.34 -741 559 C-499.11 559 -257.22 559 -8 559 C-8 556.36 -8 553.72 -8 551 C-5.36 551 -2.72 551 0 551 C0 369.17 0 187.34 0 0 Z " fill="#BDA68D" transform="translate(888,179)"/>
<path d="M0 0 C201.3 0 402.6 0 610 0 C610 2.64 610 5.28 610 8 C611.14339844 7.98839844 612.28679688 7.97679687 613.46484375 7.96484375 C614.95572754 7.95546712 616.44661309 7.94636679 617.9375 7.9375 C619.06961914 7.92493164 619.06961914 7.92493164 620.22460938 7.91210938 C622.14994313 7.90347559 624.07535581 7.94775667 626 8 C627 9 627 9 627.09765625 10.84765625 C627.06510417 12.8984375 627.03255208 14.94921875 627 17 C624.03 17 621.06 17 618 17 C618 14.36 618 11.72 618 9 C414.06 9 210.12 9 0 9 C0 6.03 0 3.06 0 0 Z " fill="#EC984B" transform="translate(204,203)"/>
<path d="M0 0 C46.2 0 92.4 0 140 0 C140 2.64 140 5.28 140 8 C145.61 8 151.22 8 157 8 C157 10.64 157 13.28 157 16 C173.17 16 189.34 16 206 16 C206 18.97 206 21.94 206 25 C116.57 25 27.14 25 -65 25 C-65 22.36 -65 19.72 -65 17 C-48.98877702 16.1934325 -33.03092418 15.86039522 -17 16 C-17 13.36 -17 10.72 -17 8 C-11.39 8 -5.78 8 0 8 C0 5.36 0 2.72 0 0 Z " fill="#EDD1A8" transform="translate(443,838)"/>
<path d="M0 0 C231 0 462 0 700 0 C700 2.31 700 4.62 700 7 C469 7 238 7 0 7 C0 4.69 0 2.38 0 0 Z " fill="#B9A38C" transform="translate(163,665)"/>
<path d="M0 0 C46.86 0 93.72 0 142 0 C142 24.42 142 48.84 142 74 C141.67 74 141.34 74 141 74 C141 60.47 141 46.94 141 33 C94.8 33 48.6 33 1 33 C1 46.53 1 60.06 1 74 C-1.64 74 -4.28 74 -7 74 C-7 76.64 -7 79.28 -7 82 C-7.33 82 -7.66 82 -8 82 C-8 79.03 -8 76.06 -8 73 C-5.36 73 -2.72 73 0 73 C0 48.91 0 24.82 0 0 Z " fill="#B9A08A" transform="translate(442,747)"/>
<path d="M0 0 C5.61 0 11.22 0 17 0 C17 2.97 17 5.94 17 9 C11.72 9 6.44 9 1 9 C1 11.64 1 14.28 1 17 C98.68 17 196.36 17 297 17 C297 14.36 297 11.72 297 9 C294.36 9 291.72 9 289 9 C289 6.03 289 3.06 289 0 C294.61 0 300.22 0 306 0 C306 8.58 306 17.16 306 26 C202.38 26 98.76 26 -8 26 C-8 20.06 -8 14.12 -8 8 C-5.36 8 -2.72 8 0 8 C0 5.36 0 2.72 0 0 Z " fill="#50332B" transform="translate(360,854)"/>
<path d="M0 0 C2.64 0 5.28 0 8 0 C8 2.97 8 5.94 8 9 C5.36 9 2.72 9 0 9 C0 11.64 0 14.28 0 17 C-5.28 17 -10.56 17 -16 17 C-16 19.97 -16 22.94 -16 26 C-23.92 26 -31.84 26 -40 26 C-40 28.64 -40 31.28 -40 34 C52.07 34 144.14 34 239 34 C239 36.64 239 39.28 239 42 C141.32 42 43.64 42 -57 42 C-57 39.36 -57 36.72 -57 34 C-51.72 34 -46.44 34 -41 34 C-41 28.39 -41 22.78 -41 17 C-33.08 17 -25.16 17 -17 17 C-17 14.03 -17 11.06 -17 8 C-11.39 8 -5.78 8 0 8 C0 5.36 0 2.72 0 0 Z " fill="#BFA890" transform="translate(418,829)"/>
<path d="M0 0 C2.97 0 5.94 0 9 0 C9 0.33 9 0.66 9 1 C6.36 1 3.72 1 1 1 C1 3.64 1 6.28 1 9 C-1.64 9 -4.28 9 -7 9 C-7 190.83 -7 372.66 -7 560 C-4.36 560 -1.72 560 1 560 C1 562.64 1 565.28 1 568 C3.64 568 6.28 568 9 568 C9 568.33 9 568.66 9 569 C6.03 569 3.06 569 0 569 C0 566.36 0 563.72 0 561 C-2.31 561 -4.62 561 -7 561 C-7 565.95 -7 570.9 -7 576 C-4.69 576 -2.38 576 0 576 C0 576.33 0 576.66 0 577 C-2.64 577 -5.28 577 -8 577 C-8 571.72 -8 566.44 -8 561 C-10.64 561 -13.28 561 -16 561 C-16 560.67 -16 560.34 -16 560 C-13.36 560 -10.72 560 -8 560 C-8 377.84 -8 195.68 -8 8 C-5.36 8 -2.72 8 0 8 C0 5.36 0 2.72 0 0 Z " fill="#8D715F" transform="translate(138,162)"/>
<path d="M0 0 C7.92 0 15.84 0 24 0 C24 7.92 24 15.84 24 24 C16.08 24 8.16 24 0 24 C0 16.08 0 8.16 0 0 Z " fill="#B1967D" transform="translate(501,690)"/>
<path d="M0 0 C5.61 0 11.22 0 17 0 C17 2.97 17 5.94 17 9 C9.08 9 1.16 9 -7 9 C-7 14.28 -7 19.56 -7 25 C95.96 25 198.92 25 305 25 C305 17.08 305 9.16 305 1 C300.05 1 295.1 1 290 1 C290 3.31 290 5.62 290 8 C292.31 8 294.62 8 297 8 C297 8.33 297 8.66 297 9 C294.36 9 291.72 9 289 9 C289 6.03 289 3.06 289 0 C294.61 0 300.22 0 306 0 C306 8.58 306 17.16 306 26 C202.38 26 98.76 26 -8 26 C-8 20.06 -8 14.12 -8 8 C-5.36 8 -2.72 8 0 8 C0 5.36 0 2.72 0 0 Z " fill="#83716C" transform="translate(360,854)"/>
<path d="M0 0 C8.25 0 16.5 0 25 0 C25 2.64 25 5.28 25 8 C16.75 8 8.5 8 0 8 C0 5.36 0 2.72 0 0 Z " fill="#53372E" transform="translate(624,846)"/>
<path d="M0 0 C8.25 0 16.5 0 25 0 C25 2.64 25 5.28 25 8 C16.75 8 8.5 8 0 8 C0 5.36 0 2.72 0 0 Z " fill="#805D3E" transform="translate(814,714)"/>
<path d="M0 0 C7.92 0 15.84 0 24 0 C24 2.64 24 5.28 24 8 C16.08 8 8.16 8 0 8 C0 5.36 0 2.72 0 0 Z " fill="#533730" transform="translate(377,846)"/>
<path d="M0 0 C0.33 0 0.66 0 1 0 C1 33 1 66 1 100 C3.64 100 6.28 100 9 100 C9 102.64 9 105.28 9 108 C11.64 108 14.28 108 17 108 C17 108.33 17 108.66 17 109 C14.03 109 11.06 109 8 109 C8 106.36 8 103.72 8 101 C5.69 101 3.38 101 1 101 C1 105.95 1 110.9 1 116 C3.31 116 5.62 116 8 116 C8 116.33 8 116.66 8 117 C5.36 117 2.72 117 0 117 C0 111.72 0 106.44 0 101 C-2.64 101 -5.28 101 -8 101 C-8 100.67 -8 100.34 -8 100 C-5.36 100 -2.72 100 0 100 C0 67 0 34 0 0 Z " fill="#927865" transform="translate(130,622)"/>
<path d="M0 0 C5.28 0 10.56 0 16 0 C16 2.97 16 5.94 16 9 C10.72 9 5.44 9 0 9 C0 6.03 0 3.06 0 0 Z " fill="#55382F" transform="translate(361,854)"/>
<path d="M0 0 C5.28 0 10.56 0 16 0 C16 2.64 16 5.28 16 8 C10.72 8 5.44 8 0 8 C0 5.36 0 2.72 0 0 Z " fill="#4D3227" transform="translate(608,838)"/>
<path d="M0 0 C5.28 0 10.56 0 16 0 C16 2.64 16 5.28 16 8 C10.72 8 5.44 8 0 8 C0 5.36 0 2.72 0 0 Z " fill="#4B3128" transform="translate(402,838)"/>
<path d="M0 0 C5.28 0 10.56 0 16 0 C16 2.64 16 5.28 16 8 C10.72 8 5.44 8 0 8 C0 5.36 0 2.72 0 0 Z " fill="#ED9D51" transform="translate(188,212)"/>
<path d="M0 0 C2.97 0 5.94 0 9 0 C9 2.64 9 5.28 9 8 C6.03 8 3.06 8 0 8 C0 5.36 0 2.72 0 0 Z " fill="#E3C7A4" transform="translate(888,171)"/>
<path d="M0 0 C0.33 0 0.66 0 1 0 C1 3.63 1 7.26 1 11 C3.64 11 6.28 11 9 11 C9 13.64 9 16.28 9 19 C11.64 19 14.28 19 17 19 C17 19.33 17 19.66 17 20 C14.03 20 11.06 20 8 20 C8 17.36 8 14.72 8 12 C5.69 12 3.38 12 1 12 C1 16.95 1 21.9 1 27 C3.31 27 5.62 27 8 27 C8 27.33 8 27.66 8 28 C5.36 28 2.72 28 0 28 C0 22.72 0 17.44 0 12 C-2.64 12 -5.28 12 -8 12 C-8 11.67 -8 11.34 -8 11 C-5.36 11 -2.72 11 0 11 C0 7.37 0 3.74 0 0 Z " fill="#957F71" transform="translate(130,711)"/>
<path d="M0 0 C2.64 0 5.28 0 8 0 C8 2.64 8 5.28 8 8 C5.36 8 2.72 8 0 8 C0 5.36 0 2.72 0 0 Z " fill="#51362B" transform="translate(600,829)"/>
<path d="M0 0 C2.64 0 5.28 0 8 0 C8 2.64 8 5.28 8 8 C5.36 8 2.72 8 0 8 C0 5.36 0 2.72 0 0 Z " fill="#50382E" transform="translate(418,829)"/>
<path d="M0 0 C2.64 0 5.28 0 8 0 C8 2.64 8 5.28 8 8 C5.36 8 2.72 8 0 8 C0 5.36 0 2.72 0 0 Z " fill="#735236" transform="translate(764,714)"/>
<path d="M0 0 C2.64 0 5.28 0 8 0 C8 2.64 8 5.28 8 8 C5.36 8 2.72 8 0 8 C0 5.36 0 2.72 0 0 Z " fill="#C4A98D" transform="translate(723,714)"/>
<path d="M0 0 C2.64 0 5.28 0 8 0 C8 2.64 8 5.28 8 8 C5.36 8 2.72 8 0 8 C0 5.36 0 2.72 0 0 Z " fill="#C3AA8F" transform="translate(699,714)"/>
<path d="M0 0 C2.64 0 5.28 0 8 0 C8 2.64 8 5.28 8 8 C5.36 8 2.72 8 0 8 C0 5.36 0 2.72 0 0 Z " fill="#EED6B1" transform="translate(131,171)"/>
<path d="M0 0 C2.64 0 5.28 0 8 0 C8 2.64 8 5.28 8 8 C5.36 8 2.72 8 0 8 C0 5.36 0 2.72 0 0 Z " fill="#F1D8B2" transform="translate(139,163)"/>
<path d="M0 0 C2.64 0 5.28 0 8 0 C8 2.64 8 5.28 8 8 C5.36 8 2.72 8 0 8 C0 5.36 0 2.72 0 0 Z " fill="#EFD8B3" transform="translate(880,163)"/>
</svg>
