<?xml version="1.0" encoding="UTF-8"?>
<svg version="1.1" xmlns="http://www.w3.org/2000/svg" width="1024" height="1024">
<path d="M0 0 C337.92 0 675.84 0 1024 0 C1024 337.92 1024 675.84 1024 1024 C686.08 1024 348.16 1024 0 1024 C0 686.08 0 348.16 0 0 Z " fill="none" transform="translate(0,0)"/>
<path d="M0 0 C0.88531517 -0.00779995 1.77063033 -0.01559991 2.68277323 -0.02363622 C5.65560487 -0.04361348 8.62716449 -0.0277691 11.6000061 -0.01205444 C13.72877247 -0.0188281 15.85753298 -0.02772981 17.98628235 -0.03860474 C23.77359945 -0.06143712 29.56047185 -0.05254454 35.34779692 -0.03670931 C41.4001916 -0.02406752 47.4525477 -0.03578594 53.50494385 -0.04364014 C63.67195483 -0.05274309 73.83878437 -0.04073319 84.00576782 -0.01693726 C95.76197855 0.01026047 107.51775554 0.00147202 119.2739557 -0.02606928 C129.36240711 -0.04875829 139.45072793 -0.05196095 149.53919661 -0.03887594 C155.56672437 -0.03107847 161.59404828 -0.03004788 167.62156296 -0.04655838 C173.290119 -0.06100012 178.95811606 -0.05098612 184.62661171 -0.0220871 C186.70750945 -0.01547417 188.78845421 -0.01737743 190.86933327 -0.02840042 C193.70966695 -0.04205934 196.54820835 -0.0249355 199.38842773 0 C200.21255799 -0.01115361 201.03668824 -0.02230722 201.88579214 -0.03379881 C207.69978632 0.06524676 210.26437147 1.44668409 214.32119751 5.63491821 C215.59981366 8.19215051 215.4345636 10.00228924 215.41885376 12.86148071 C215.4156311 13.89273071 215.41240845 14.92398071 215.40908813 15.98648071 C215.40070923 17.06671509 215.39233032 18.14694946 215.38369751 19.25991821 C215.37918579 20.34788696 215.37467407 21.43585571 215.37002563 22.55679321 C215.35821527 25.2495561 215.34174529 27.9422101 215.32119751 30.63491821 C215.92592896 30.60349731 216.5306604 30.57207642 217.15371704 30.53970337 C219.91749023 30.41429379 222.68066451 30.33673857 225.44619751 30.25991821 C226.39752563 30.20964478 227.34885376 30.15937134 228.32901001 30.10757446 C232.78689294 30.0147019 236.39258503 30.01257498 239.97744751 32.88491821 C243.79843486 37.51032395 242.95654859 43.34227548 242.69619751 49.00991821 C242.6691272 50.1275354 242.64205688 51.24515259 242.61416626 52.39663696 C242.54370245 55.14472574 242.4452398 57.88881271 242.32119751 60.63491821 C243.62315063 60.56530884 244.92510376 60.49569946 246.26651001 60.42398071 C247.99302071 60.36768145 249.71958747 60.31308362 251.44619751 60.25991821 C252.30213501 60.20964478 253.15807251 60.15937134 254.03994751 60.10757446 C258.28876811 60.00952476 261.5145254 60.1603564 264.91494751 62.88491821 C268.80810157 67.50504945 267.95817177 73.30694011 267.69619751 79.00991821 C267.6691272 80.1275354 267.64205688 81.24515259 267.61416626 82.39663696 C267.54370245 85.14472574 267.4452398 87.88881271 267.32119751 90.63491821 C267.9008728 90.61397095 268.4805481 90.59302368 269.07778931 90.57144165 C271.72124675 90.48795014 274.36442631 90.43615669 277.00869751 90.38491821 C277.92070923 90.35140259 278.83272095 90.31788696 279.77236938 90.28335571 C284.07580585 90.22076027 286.59262109 90.19381373 290.34072876 92.46304321 C294.55610924 97.08582732 294.60848317 100.53731173 294.58405304 106.52721024 C294.58815831 107.452115 294.59226357 108.37701976 294.59649324 109.32995194 C294.60788654 112.45829151 294.60491226 115.58645645 294.6020813 118.71481323 C294.60724553 120.96868142 294.61327098 123.22254778 294.6200881 125.47641158 C294.63627075 131.69278928 294.6398096 137.90912086 294.64128304 144.12551713 C294.64459779 150.13405664 294.65722873 156.1425722 294.66943986 162.15109844 C294.70158209 178.25296551 294.71336881 194.35482883 294.72293736 210.45672222 C294.72760689 218.07167722 294.73481192 225.6866292 294.74232811 233.30158184 C294.7680007 259.36053713 294.78943926 285.41949074 294.79633331 311.4784584 C294.79677658 313.11473826 294.79722015 314.75101812 294.79766402 316.38729797 C294.7981053 318.02756467 294.79854626 319.66783138 294.79898691 321.30809808 C294.79987203 324.59884151 294.80076625 327.88958494 294.80166626 331.18032837 C294.80199443 332.40420084 294.80199443 332.40420084 294.80232923 333.65279801 C294.80959199 360.11436066 294.84143731 386.57581378 294.88804699 413.03733448 C294.93721791 441.00399012 294.96467778 468.97058314 294.96706915 496.93728328 C294.96741207 500.00620065 294.96784293 503.07511799 294.96833801 506.14403534 C294.96844955 506.89970719 294.96856109 507.65537904 294.968676 508.43395004 C294.97097911 520.60489827 294.99304072 532.77573428 295.02211212 544.94664459 C295.05081784 557.17574429 295.05732992 569.40469983 295.04123217 581.63382396 C295.03309475 588.2614914 295.03537774 594.88886086 295.06334686 601.51650429 C295.08870271 607.58019215 295.0865388 613.64321503 295.06216544 619.70690116 C295.05823005 621.9041014 295.06450674 624.10134776 295.08185416 626.29848304 C295.1039067 629.27955671 295.08916421 632.25825583 295.06507111 635.23926163 C295.08026149 636.09759195 295.09545188 636.95592226 295.11110258 637.84026259 C295.01367306 643.40249956 293.66552117 646.29135263 289.8623198 650.35637902 C287.62049 652.21623615 286.02356753 652.44304531 283.14151001 652.31851196 C282.21338501 652.29595337 281.28526001 652.27339478 280.32901001 652.25015259 C279.37768188 652.19150024 278.42635376 652.1328479 277.44619751 652.07241821 C276.47166626 652.04083618 275.49713501 652.00925415 274.49307251 651.97671509 C272.09930774 651.8945761 269.71184583 651.77983494 267.32119751 651.63491821 C267.34738159 652.3002356 267.37356567 652.96555298 267.40054321 653.65103149 C267.50495211 656.68708357 267.56966098 659.72275732 267.63369751 662.75991821 C267.67559204 663.80663696 267.71748657 664.85335571 267.76065063 665.93179321 C267.89907258 674.68005997 267.89907258 674.68005997 265.44619751 678.35366821 C260.96941054 681.6217227 257.39875133 681.30703779 252.00869751 681.00991821 C251.07734985 680.9828479 250.1460022 680.95577759 249.18643188 680.92788696 C246.89562879 680.85740071 244.60962188 680.75896067 242.32119751 680.63491821 C242.34738159 681.36605835 242.37356567 682.09719849 242.40054321 682.85049438 C242.50469895 686.17424903 242.56958372 689.49766015 242.63369751 692.82241821 C242.67559204 693.97290649 242.71748657 695.12339478 242.76065063 696.30874634 C242.88112188 704.62126203 242.88112188 704.62126203 240.50869751 708.91616821 C235.70934734 711.50405311 231.3644579 711.17014657 226.00869751 710.94741821 C224.98195923 710.92485962 223.95522095 710.90230103 222.89736938 710.87905884 C220.37047961 710.82029396 217.84659496 710.7381967 215.32119751 710.63491821 C215.35261841 711.33052856 215.38403931 712.02613892 215.41641235 712.74282837 C215.54164486 715.91485671 215.61932943 719.0863646 215.69619751 722.25991821 C215.74647095 723.35433228 215.79674438 724.44874634 215.84854126 725.57632446 C215.87754517 727.17153931 215.87754517 727.17153931 215.90713501 728.79898071 C215.93855591 729.77302856 215.96997681 730.74707642 216.00234985 731.75064087 C215.03230486 735.85820772 212.71609034 738.28867728 209.32119751 740.63491821 C206.33394307 741.47611135 203.48408295 741.44702749 200.39515686 741.39682007 C199.50742728 741.40618001 198.6196977 741.41553996 197.70506722 741.42518353 C194.73592321 741.44908113 191.76862607 741.43017429 188.79946899 741.4112854 C186.66878177 741.41941703 184.53810299 741.43010091 182.40744019 741.44314575 C176.62437605 741.47050153 170.84195404 741.45989288 165.05887866 741.44087124 C159.00869178 741.42568461 152.95856001 741.43976723 146.90837097 741.44918823 C136.74908572 741.46010448 126.59006217 741.44571651 116.43081665 741.41714478 C104.68129563 741.38448241 92.93239914 741.39507453 81.18289322 741.42810321 C71.09779746 741.45531949 61.01288985 741.45917923 50.92776924 741.44347119 C44.90306582 741.43411175 38.8786561 741.43288464 32.85397148 741.45269012 C27.19104607 741.47000607 21.52892704 741.45803036 15.86608887 741.42332458 C13.78638613 741.41538249 11.70661568 741.41768431 9.62693977 741.43090057 C6.79045811 741.44726622 3.95657022 741.42677794 1.12025452 741.39682007 C0.29457566 741.4102044 -0.53110319 741.42358873 -1.38180262 741.43737864 C-6.80305706 741.32608381 -6.80305706 741.32608381 -9.31115425 739.34661531 C-12.26460416 735.96007082 -13.29219449 733.47167331 -13.16708374 729.01773071 C-13.15097046 727.99937134 -13.13485718 726.98101196 -13.11825562 725.93179321 C-13.07636108 724.88507446 -13.03446655 723.83835571 -12.99130249 722.75991821 C-12.9687439 721.68999634 -12.9461853 720.62007446 -12.92294312 719.51773071 C-12.86425882 716.88867415 -12.78221429 714.2625324 -12.67880249 711.63491821 C-13.34411987 711.66633911 -14.00943726 711.69776001 -14.69491577 711.73013306 C-17.73086069 711.85541931 -20.76626138 711.93306476 -23.80380249 712.00991821 C-25.37388062 712.08532837 -25.37388062 712.08532837 -26.97567749 712.16226196 C-35.72294638 712.32834935 -35.72294638 712.32834935 -39.39755249 709.35366821 C-43.06056735 704.8287675 -42.31868607 699.27493019 -42.05380249 693.75991821 C-42.01319702 692.1550354 -42.01319702 692.1550354 -41.97177124 690.51773071 C-41.90133301 687.88803668 -41.80289682 685.26253602 -41.67880249 682.63491821 C-42.92016968 682.69292603 -44.16153687 682.75093384 -45.44052124 682.81069946 C-47.08241063 682.85761059 -48.72434081 682.9031093 -50.36630249 682.94741821 C-51.18292358 682.98931274 -51.99954468 683.03120728 -52.84091187 683.07437134 C-56.86658257 683.15586265 -59.17544632 682.91741402 -62.74130249 680.91616821 C-65.79643208 675.74215842 -65.20548936 670.70431914 -64.99130249 664.82241821 C-64.9687439 663.65259399 -64.9461853 662.48276978 -64.92294312 661.27749634 C-64.8641234 658.39533052 -64.7819739 655.5157814 -64.67880249 652.63491821 C-65.25847778 652.66110229 -65.83815308 652.68728638 -66.43539429 652.71426392 C-69.07875124 652.81862434 -71.72167448 652.88336148 -74.36630249 652.94741821 C-75.27831421 652.98931274 -76.19032593 653.03120728 -77.12997437 653.07437134 C-78.01620483 653.09048462 -78.9024353 653.1065979 -79.81552124 653.12319946 C-80.62722778 653.14938354 -81.43893433 653.17556763 -82.27523804 653.20254517 C-85.98758994 652.32583433 -87.33731824 650.61503959 -89.67880249 647.63491821 C-90.40773446 644.56151954 -90.35031609 641.56276039 -90.30800819 638.41565037 C-90.3152754 637.47969645 -90.3225426 636.54374253 -90.33003002 635.57942638 C-90.34836056 632.42520236 -90.33088669 629.272182 -90.3137207 626.1179657 C-90.31947869 623.84103043 -90.32741762 621.56409979 -90.33735693 619.28717893 C-90.35829771 613.01626495 -90.347882 606.7457297 -90.33242583 600.47481406 C-90.32230353 594.4109154 -90.33558512 588.3471089 -90.34816266 582.2832226 C-90.37451413 569.11208968 -90.37220032 555.9410779 -90.3577681 542.7699334 C-90.34519945 531.24317439 -90.34190253 519.71645982 -90.34788132 508.18969536 C-90.34826324 507.42564638 -90.34864517 506.66159741 -90.34903867 505.87439543 C-90.35059532 502.77300451 -90.35218731 499.67161361 -90.35383749 496.57022273 C-90.3691394 467.46467427 -90.35525453 438.35920304 -90.328353 409.25366649 C-90.30462657 383.38664977 -90.3067453 357.51975612 -90.33065796 331.65274048 C-90.35742339 302.60257069 -90.36805189 273.55246917 -90.35259664 244.50228876 C-90.35099302 241.40617813 -90.34942882 238.31006749 -90.34788132 235.21395683 C-90.34748593 234.45159481 -90.34709054 233.68923278 -90.34668318 232.90376888 C-90.34099237 221.38403443 -90.34765362 209.86434928 -90.36027908 198.34462166 C-90.37456191 185.24724042 -90.37103027 172.14999946 -90.34387536 159.05263574 C-90.33047047 152.3663641 -90.32563305 145.68037389 -90.34212112 138.99408722 C-90.35697494 132.87814939 -90.34890742 126.76269456 -90.32223336 120.64680081 C-90.31662902 118.42950101 -90.31953223 116.21216074 -90.3316123 113.99488676 C-90.34673608 110.98934689 -90.33130781 107.98547863 -90.30800819 104.9800272 C-90.31971402 104.11161983 -90.33141986 103.24321247 -90.34348041 102.34848973 C-90.27803077 98.14756702 -89.95275481 95.43996062 -87.28969991 92.09342092 C-84.67880249 89.63491821 -84.67880249 89.63491821 -82.27523804 88.95376587 C-81.05767822 89.00089722 -81.05767822 89.00089722 -79.81552124 89.04898071 C-78.48617554 89.07798462 -78.48617554 89.07798462 -77.12997437 89.10757446 C-76.21796265 89.1578479 -75.30595093 89.20812134 -74.36630249 89.25991821 C-72.96928101 89.30052368 -72.96928101 89.30052368 -71.54403687 89.34194946 C-69.25323377 89.41243571 -66.96722686 89.51087575 -64.67880249 89.63491821 C-64.70498657 88.93930786 -64.73117065 88.24369751 -64.75814819 87.52700806 C-64.86251198 84.35487736 -64.92725309 81.18310843 -64.99130249 78.00991821 C-65.03319702 76.91550415 -65.07509155 75.82109009 -65.11825562 74.69351196 C-65.25662895 65.56087186 -65.25662895 65.56087186 -62.74130249 61.88491821 C-58.52171665 58.78481433 -55.45486159 58.94665254 -50.36630249 59.25991821 C-49.53034546 59.28698853 -48.69438843 59.31405884 -47.83309937 59.34194946 C-45.78055002 59.41232258 -43.72933658 59.51993499 -41.67880249 59.63491821 C-41.70498657 58.96960083 -41.73117065 58.30428345 -41.75814819 57.61880493 C-41.86255709 54.58275286 -41.92726597 51.54707911 -41.99130249 48.50991821 C-42.03319702 47.46319946 -42.07509155 46.41648071 -42.11825562 45.33804321 C-42.25675801 36.58469192 -42.25675801 36.58469192 -39.92880249 32.91616821 C-34.93411199 29.41027969 -30.30521353 29.98917884 -24.36630249 30.25991821 C-23.24417358 30.28698853 -22.12204468 30.31405884 -20.96591187 30.34194946 C-18.2015779 30.4125282 -15.44117834 30.51107334 -12.67880249 30.63491821 C-12.71022339 29.53820801 -12.71022339 29.53820801 -12.74227905 28.41934204 C-12.82560563 25.0955082 -12.87751581 21.77189438 -12.92880249 18.44741821 C-12.96231812 17.29692993 -12.99583374 16.14644165 -13.03036499 14.96109009 C-13.04970093 13.29336548 -13.04970093 13.29336548 -13.06942749 11.59194946 C-13.10084839 10.06018066 -13.10084839 10.06018066 -13.13290405 8.49746704 C-11.8963432 0.70247997 -6.95826485 -0.09366466 0 0 Z " fill="#DF8D3D" transform="translate(430.6788024902344,144.36508178710938)"/>
<path d="M0 0 C0.88531517 -0.00779995 1.77063033 -0.01559991 2.68277323 -0.02363622 C5.65560487 -0.04361348 8.62716449 -0.0277691 11.6000061 -0.01205444 C13.72877247 -0.0188281 15.85753298 -0.02772981 17.98628235 -0.03860474 C23.77359945 -0.06143712 29.56047185 -0.05254454 35.34779692 -0.03670931 C41.4001916 -0.02406752 47.4525477 -0.03578594 53.50494385 -0.04364014 C63.67195483 -0.05274309 73.83878437 -0.04073319 84.00576782 -0.01693726 C95.76197855 0.01026047 107.51775554 0.00147202 119.2739557 -0.02606928 C129.36240711 -0.04875829 139.45072793 -0.05196095 149.53919661 -0.03887594 C155.56672437 -0.03107847 161.59404828 -0.03004788 167.62156296 -0.04655838 C173.290119 -0.06100012 178.95811606 -0.05098612 184.62661171 -0.0220871 C186.70750945 -0.01547417 188.78845421 -0.01737743 190.86933327 -0.02840042 C193.70966695 -0.04205934 196.54820835 -0.0249355 199.38842773 0 C200.21255799 -0.01115361 201.03668824 -0.02230722 201.88579214 -0.03379881 C207.69978632 0.06524676 210.26437147 1.44668409 214.32119751 5.63491821 C215.59981366 8.19215051 215.4345636 10.00228924 215.41885376 12.86148071 C215.4156311 13.89273071 215.41240845 14.92398071 215.40908813 15.98648071 C215.40070923 17.06671509 215.39233032 18.14694946 215.38369751 19.25991821 C215.37918579 20.34788696 215.37467407 21.43585571 215.37002563 22.55679321 C215.35821527 25.2495561 215.34174529 27.9422101 215.32119751 30.63491821 C215.92592896 30.60349731 216.5306604 30.57207642 217.15371704 30.53970337 C219.91749023 30.41429379 222.68066451 30.33673857 225.44619751 30.25991821 C226.39752563 30.20964478 227.34885376 30.15937134 228.32901001 30.10757446 C232.78689294 30.0147019 236.39258503 30.01257498 239.97744751 32.88491821 C243.79843486 37.51032395 242.95654859 43.34227548 242.69619751 49.00991821 C242.6691272 50.1275354 242.64205688 51.24515259 242.61416626 52.39663696 C242.54370245 55.14472574 242.4452398 57.88881271 242.32119751 60.63491821 C243.62315063 60.56530884 244.92510376 60.49569946 246.26651001 60.42398071 C247.99302071 60.36768145 249.71958747 60.31308362 251.44619751 60.25991821 C252.30213501 60.20964478 253.15807251 60.15937134 254.03994751 60.10757446 C258.28876811 60.00952476 261.5145254 60.1603564 264.91494751 62.88491821 C268.80810157 67.50504945 267.95817177 73.30694011 267.69619751 79.00991821 C267.6691272 80.1275354 267.64205688 81.24515259 267.61416626 82.39663696 C267.54370245 85.14472574 267.4452398 87.88881271 267.32119751 90.63491821 C267.9008728 90.61397095 268.4805481 90.59302368 269.07778931 90.57144165 C271.72124675 90.48795014 274.36442631 90.43615669 277.00869751 90.38491821 C277.92070923 90.35140259 278.83272095 90.31788696 279.77236938 90.28335571 C284.07580585 90.22076027 286.59262109 90.19381373 290.34072876 92.46304321 C294.55610924 97.08582732 294.60848317 100.53731173 294.58405304 106.52721024 C294.58815831 107.452115 294.59226357 108.37701976 294.59649324 109.32995194 C294.60788654 112.45829151 294.60491226 115.58645645 294.6020813 118.71481323 C294.60724553 120.96868142 294.61327098 123.22254778 294.6200881 125.47641158 C294.63627075 131.69278928 294.6398096 137.90912086 294.64128304 144.12551713 C294.64459779 150.13405664 294.65722873 156.1425722 294.66943986 162.15109844 C294.70158209 178.25296551 294.71336881 194.35482883 294.72293736 210.45672222 C294.72760689 218.07167722 294.73481192 225.6866292 294.74232811 233.30158184 C294.7680007 259.36053713 294.78943926 285.41949074 294.79633331 311.4784584 C294.79677658 313.11473826 294.79722015 314.75101812 294.79766402 316.38729797 C294.7981053 318.02756467 294.79854626 319.66783138 294.79898691 321.30809808 C294.79987203 324.59884151 294.80076625 327.88958494 294.80166626 331.18032837 C294.80199443 332.40420084 294.80199443 332.40420084 294.80232923 333.65279801 C294.80959199 360.11436066 294.84143731 386.57581378 294.88804699 413.03733448 C294.93721791 441.00399012 294.96467778 468.97058314 294.96706915 496.93728328 C294.96741207 500.00620065 294.96784293 503.07511799 294.96833801 506.14403534 C294.96844955 506.89970719 294.96856109 507.65537904 294.968676 508.43395004 C294.97097911 520.60489827 294.99304072 532.77573428 295.02211212 544.94664459 C295.05081784 557.17574429 295.05732992 569.40469983 295.04123217 581.63382396 C295.03309475 588.2614914 295.03537774 594.88886086 295.06334686 601.51650429 C295.08870271 607.58019215 295.0865388 613.64321503 295.06216544 619.70690116 C295.05823005 621.9041014 295.06450674 624.10134776 295.08185416 626.29848304 C295.1039067 629.27955671 295.08916421 632.25825583 295.06507111 635.23926163 C295.08026149 636.09759195 295.09545188 636.95592226 295.11110258 637.84026259 C295.01367306 643.40249956 293.66552117 646.29135263 289.8623198 650.35637902 C287.62049 652.21623615 286.02356753 652.44304531 283.14151001 652.31851196 C282.21338501 652.29595337 281.28526001 652.27339478 280.32901001 652.25015259 C279.37768188 652.19150024 278.42635376 652.1328479 277.44619751 652.07241821 C276.47166626 652.04083618 275.49713501 652.00925415 274.49307251 651.97671509 C272.09930774 651.8945761 269.71184583 651.77983494 267.32119751 651.63491821 C267.34738159 652.3002356 267.37356567 652.96555298 267.40054321 653.65103149 C267.50495211 656.68708357 267.56966098 659.72275732 267.63369751 662.75991821 C267.67559204 663.80663696 267.71748657 664.85335571 267.76065063 665.93179321 C267.89907258 674.68005997 267.89907258 674.68005997 265.44619751 678.35366821 C260.96941054 681.6217227 257.39875133 681.30703779 252.00869751 681.00991821 C251.07734985 680.9828479 250.1460022 680.95577759 249.18643188 680.92788696 C246.89562879 680.85740071 244.60962188 680.75896067 242.32119751 680.63491821 C242.34738159 681.36605835 242.37356567 682.09719849 242.40054321 682.85049438 C242.50469895 686.17424903 242.56958372 689.49766015 242.63369751 692.82241821 C242.67559204 693.97290649 242.71748657 695.12339478 242.76065063 696.30874634 C242.88112188 704.62126203 242.88112188 704.62126203 240.50869751 708.91616821 C235.70934734 711.50405311 231.3644579 711.17014657 226.00869751 710.94741821 C224.98195923 710.92485962 223.95522095 710.90230103 222.89736938 710.87905884 C220.37047961 710.82029396 217.84659496 710.7381967 215.32119751 710.63491821 C215.35261841 711.33052856 215.38403931 712.02613892 215.41641235 712.74282837 C215.54164486 715.91485671 215.61932943 719.0863646 215.69619751 722.25991821 C215.74647095 723.35433228 215.79674438 724.44874634 215.84854126 725.57632446 C215.87754517 727.17153931 215.87754517 727.17153931 215.90713501 728.79898071 C215.93855591 729.77302856 215.96997681 730.74707642 216.00234985 731.75064087 C215.03230486 735.85820772 212.71609034 738.28867728 209.32119751 740.63491821 C206.33394307 741.47611135 203.48408295 741.44702749 200.39515686 741.39682007 C199.50742728 741.40618001 198.6196977 741.41553996 197.70506722 741.42518353 C194.73592321 741.44908113 191.76862607 741.43017429 188.79946899 741.4112854 C186.66878177 741.41941703 184.53810299 741.43010091 182.40744019 741.44314575 C176.62437605 741.47050153 170.84195404 741.45989288 165.05887866 741.44087124 C159.00869178 741.42568461 152.95856001 741.43976723 146.90837097 741.44918823 C136.74908572 741.46010448 126.59006217 741.44571651 116.43081665 741.41714478 C104.68129563 741.38448241 92.93239914 741.39507453 81.18289322 741.42810321 C71.09779746 741.45531949 61.01288985 741.45917923 50.92776924 741.44347119 C44.90306582 741.43411175 38.8786561 741.43288464 32.85397148 741.45269012 C27.19104607 741.47000607 21.52892704 741.45803036 15.86608887 741.42332458 C13.78638613 741.41538249 11.70661568 741.41768431 9.62693977 741.43090057 C6.79045811 741.44726622 3.95657022 741.42677794 1.12025452 741.39682007 C0.29457566 741.4102044 -0.53110319 741.42358873 -1.38180262 741.43737864 C-6.80305706 741.32608381 -6.80305706 741.32608381 -9.31115425 739.34661531 C-12.26460416 735.96007082 -13.29219449 733.47167331 -13.16708374 729.01773071 C-13.15097046 727.99937134 -13.13485718 726.98101196 -13.11825562 725.93179321 C-13.07636108 724.88507446 -13.03446655 723.83835571 -12.99130249 722.75991821 C-12.9687439 721.68999634 -12.9461853 720.62007446 -12.92294312 719.51773071 C-12.86425882 716.88867415 -12.78221429 714.2625324 -12.67880249 711.63491821 C-13.34411987 711.66633911 -14.00943726 711.69776001 -14.69491577 711.73013306 C-17.73086069 711.85541931 -20.76626138 711.93306476 -23.80380249 712.00991821 C-25.37388062 712.08532837 -25.37388062 712.08532837 -26.97567749 712.16226196 C-35.72294638 712.32834935 -35.72294638 712.32834935 -39.39755249 709.35366821 C-43.06056735 704.8287675 -42.31868607 699.27493019 -42.05380249 693.75991821 C-42.01319702 692.1550354 -42.01319702 692.1550354 -41.97177124 690.51773071 C-41.90133301 687.88803668 -41.80289682 685.26253602 -41.67880249 682.63491821 C-42.92016968 682.69292603 -44.16153687 682.75093384 -45.44052124 682.81069946 C-47.08241063 682.85761059 -48.72434081 682.9031093 -50.36630249 682.94741821 C-51.18292358 682.98931274 -51.99954468 683.03120728 -52.84091187 683.07437134 C-56.86658257 683.15586265 -59.17544632 682.91741402 -62.74130249 680.91616821 C-65.79643208 675.74215842 -65.20548936 670.70431914 -64.99130249 664.82241821 C-64.9687439 663.65259399 -64.9461853 662.48276978 -64.92294312 661.27749634 C-64.8641234 658.39533052 -64.7819739 655.5157814 -64.67880249 652.63491821 C-65.25847778 652.66110229 -65.83815308 652.68728638 -66.43539429 652.71426392 C-69.07875124 652.81862434 -71.72167448 652.88336148 -74.36630249 652.94741821 C-75.27831421 652.98931274 -76.19032593 653.03120728 -77.12997437 653.07437134 C-78.01620483 653.09048462 -78.9024353 653.1065979 -79.81552124 653.12319946 C-80.62722778 653.14938354 -81.43893433 653.17556763 -82.27523804 653.20254517 C-85.98758994 652.32583433 -87.33731824 650.61503959 -89.67880249 647.63491821 C-90.40773446 644.56151954 -90.35031609 641.56276039 -90.30800819 638.41565037 C-90.3152754 637.47969645 -90.3225426 636.54374253 -90.33003002 635.57942638 C-90.34836056 632.42520236 -90.33088669 629.272182 -90.3137207 626.1179657 C-90.31947869 623.84103043 -90.32741762 621.56409979 -90.33735693 619.28717893 C-90.35829771 613.01626495 -90.347882 606.7457297 -90.33242583 600.47481406 C-90.32230353 594.4109154 -90.33558512 588.3471089 -90.34816266 582.2832226 C-90.37451413 569.11208968 -90.37220032 555.9410779 -90.3577681 542.7699334 C-90.34519945 531.24317439 -90.34190253 519.71645982 -90.34788132 508.18969536 C-90.34826324 507.42564638 -90.34864517 506.66159741 -90.34903867 505.87439543 C-90.35059532 502.77300451 -90.35218731 499.67161361 -90.35383749 496.57022273 C-90.3691394 467.46467427 -90.35525453 438.35920304 -90.328353 409.25366649 C-90.30462657 383.38664977 -90.3067453 357.51975612 -90.33065796 331.65274048 C-90.35742339 302.60257069 -90.36805189 273.55246917 -90.35259664 244.50228876 C-90.35099302 241.40617813 -90.34942882 238.31006749 -90.34788132 235.21395683 C-90.34748593 234.45159481 -90.34709054 233.68923278 -90.34668318 232.90376888 C-90.34099237 221.38403443 -90.34765362 209.86434928 -90.36027908 198.34462166 C-90.37456191 185.24724042 -90.37103027 172.14999946 -90.34387536 159.05263574 C-90.33047047 152.3663641 -90.32563305 145.68037389 -90.34212112 138.99408722 C-90.35697494 132.87814939 -90.34890742 126.76269456 -90.32223336 120.64680081 C-90.31662902 118.42950101 -90.31953223 116.21216074 -90.3316123 113.99488676 C-90.34673608 110.98934689 -90.33130781 107.98547863 -90.30800819 104.9800272 C-90.31971402 104.11161983 -90.33141986 103.24321247 -90.34348041 102.34848973 C-90.27803077 98.14756702 -89.95275481 95.43996062 -87.28969991 92.09342092 C-84.67880249 89.63491821 -84.67880249 89.63491821 -82.27523804 88.95376587 C-81.05767822 89.00089722 -81.05767822 89.00089722 -79.81552124 89.04898071 C-78.48617554 89.07798462 -78.48617554 89.07798462 -77.12997437 89.10757446 C-76.21796265 89.1578479 -75.30595093 89.20812134 -74.36630249 89.25991821 C-72.96928101 89.30052368 -72.96928101 89.30052368 -71.54403687 89.34194946 C-69.25323377 89.41243571 -66.96722686 89.51087575 -64.67880249 89.63491821 C-64.70498657 88.93930786 -64.73117065 88.24369751 -64.75814819 87.52700806 C-64.86251198 84.35487736 -64.92725309 81.18310843 -64.99130249 78.00991821 C-65.03319702 76.91550415 -65.07509155 75.82109009 -65.11825562 74.69351196 C-65.25662895 65.56087186 -65.25662895 65.56087186 -62.74130249 61.88491821 C-58.52171665 58.78481433 -55.45486159 58.94665254 -50.36630249 59.25991821 C-49.53034546 59.28698853 -48.69438843 59.31405884 -47.83309937 59.34194946 C-45.78055002 59.41232258 -43.72933658 59.51993499 -41.67880249 59.63491821 C-41.70498657 58.96960083 -41.73117065 58.30428345 -41.75814819 57.61880493 C-41.86255709 54.58275286 -41.92726597 51.54707911 -41.99130249 48.50991821 C-42.03319702 47.46319946 -42.07509155 46.41648071 -42.11825562 45.33804321 C-42.25675801 36.58469192 -42.25675801 36.58469192 -39.92880249 32.91616821 C-34.93411199 29.41027969 -30.30521353 29.98917884 -24.36630249 30.25991821 C-23.24417358 30.28698853 -22.12204468 30.31405884 -20.96591187 30.34194946 C-18.2015779 30.4125282 -15.44117834 30.51107334 -12.67880249 30.63491821 C-12.71022339 29.53820801 -12.71022339 29.53820801 -12.74227905 28.41934204 C-12.82560563 25.0955082 -12.87751581 21.77189438 -12.92880249 18.44741821 C-12.96231812 17.29692993 -12.99583374 16.14644165 -13.03036499 14.96109009 C-13.04970093 13.29336548 -13.04970093 13.29336548 -13.06942749 11.59194946 C-13.10084839 10.06018066 -13.10084839 10.06018066 -13.13290405 8.49746704 C-11.8963432 0.70247997 -6.95826485 -0.09366466 0 0 Z M26.32119751 56.63491821 C25.99119751 64.55491821 25.66119751 72.47491821 25.32119751 80.63491821 C20.82119751 85.13491821 20.82119751 85.13491821 15.46182251 85.24429321 C14.34678345 85.27651978 13.23174438 85.30874634 12.08291626 85.34194946 C10.92404907 85.35612915 9.76518188 85.37030884 8.57119751 85.38491821 C7.39686157 85.41456665 6.22252563 85.44421509 5.01260376 85.47476196 C2.11539929 85.54542549 -0.78100204 85.59814088 -3.67880249 85.63491821 C-3.68814819 86.33576538 -3.6974939 87.03661255 -3.7071228 87.75869751 C-3.76094793 90.94730846 -3.84457185 94.13447154 -3.92880249 97.32241821 C-3.95007202 98.97660767 -3.95007202 98.97660767 -3.97177124 100.66421509 C-4.0039978 101.73091431 -4.03622437 102.79761353 -4.06942749 103.89663696 C-4.10084839 105.36556396 -4.10084839 105.36556396 -4.13290405 106.86416626 C-4.67880249 109.63491821 -4.67880249 109.63491821 -8.67880249 114.63491821 C-15.11380249 115.12991821 -15.11380249 115.12991821 -21.67880249 115.63491821 C-21.67880249 284.59491821 -21.67880249 453.55491821 -21.67880249 627.63491821 C-17.38880249 627.96491821 -13.09880249 628.29491821 -8.67880249 628.63491821 C-4.17880249 634.25991821 -4.17880249 634.25991821 -4.06942749 639.15444946 C-4.03720093 640.17603149 -4.00497437 641.19761353 -3.97177124 642.25015259 C-3.95050171 643.83279907 -3.95050171 643.83279907 -3.92880249 645.44741821 C-3.89915405 646.52185181 -3.86950562 647.5962854 -3.83895874 648.70327759 C-3.76845328 651.34723249 -3.71566106 653.99031551 -3.67880249 656.63491821 C-2.94766235 656.63379028 -2.21652222 656.63266235 -1.46322632 656.63150024 C1.86167885 656.64363397 5.18430031 656.70130625 8.50869751 656.75991821 C9.65918579 656.75734009 10.80967407 656.75476196 11.99502563 656.75210571 C13.66275024 656.79077759 13.66275024 656.79077759 15.36416626 656.83023071 C16.38534546 656.84070435 17.40652466 656.85117798 18.45864868 656.86196899 C21.32119751 657.63491821 21.32119751 657.63491821 26.32119751 663.63491821 C26.65119751 670.89491821 26.98119751 678.15491821 27.32119751 685.63491821 C76.16119751 685.63491821 125.00119751 685.63491821 175.32119751 685.63491821 C175.65119751 677.71491821 175.98119751 669.79491821 176.32119751 661.63491821 C181.94619751 656.00991821 181.94619751 656.00991821 187.49697876 655.92788696 C188.65391235 655.89888306 189.81084595 655.86987915 191.00283813 655.83999634 C192.20102173 655.83419556 193.39920532 655.82839478 194.63369751 655.82241821 C196.45997681 655.78471313 196.45997681 655.78471313 198.32315063 655.74624634 C201.32282438 655.68742921 204.32104049 655.65110782 207.32119751 655.63491821 C207.33521606 654.53035278 207.33521606 654.53035278 207.34951782 653.4034729 C207.40323906 650.06327603 207.48688373 646.72447702 207.57119751 643.38491821 C207.5853772 642.22605103 207.59955688 641.06718384 207.61416626 639.87319946 C207.64639282 638.7581604 207.67861938 637.64312134 207.71182251 636.49429321 C207.73276978 635.4678772 207.75371704 634.44146118 207.77529907 633.38394165 C208.32119751 630.63491821 208.32119751 630.63491821 212.32119751 626.63491821 C217.27119751 626.30491821 222.22119751 625.97491821 227.32119751 625.63491821 C227.32119751 457.33491821 227.32119751 289.03491821 227.32119751 115.63491821 C222.37119751 115.30491821 217.42119751 114.97491821 212.32119751 114.63491821 C207.82119751 110.13491821 207.82119751 110.13491821 207.71182251 104.77554321 C207.67959595 103.66050415 207.64736938 102.54546509 207.61416626 101.39663696 C207.59998657 100.23776978 207.58580688 99.07890259 207.57119751 97.88491821 C207.54154907 96.71058228 207.51190063 95.53624634 207.48135376 94.32632446 C207.41069024 91.42912 207.35797485 88.53271866 207.32119751 85.63491821 C206.61511353 85.62557251 205.90902954 85.61622681 205.18154907 85.6065979 C201.97739206 85.55286163 198.77468994 85.46922065 195.57119751 85.38491821 C193.9044397 85.36364868 193.9044397 85.36364868 192.20401001 85.34194946 C190.5991272 85.29360962 190.5991272 85.29360962 188.96182251 85.24429321 C187.97730103 85.22334595 186.99277954 85.20239868 185.97842407 85.18081665 C183.32119751 84.63491821 183.32119751 84.63491821 179.32119751 80.63491821 C178.99119751 72.71491821 178.66119751 64.79491821 178.32119751 56.63491821 C128.16119751 56.63491821 78.00119751 56.63491821 26.32119751 56.63491821 Z " fill="#DE8D3D" transform="translate(430.6788024902344,144.36508178710938)"/>
<path d="M0 0 C50.16 0 100.32 0 152 0 C152.33 7.92 152.66 15.84 153 24 C157.23379471 28.32823 157.23379471 28.32823 162.640625 28.609375 C164.24550781 28.65771484 164.24550781 28.65771484 165.8828125 28.70703125 C167.54957031 28.72830078 167.54957031 28.72830078 169.25 28.75 C170.37664062 28.77964844 171.50328125 28.80929688 172.6640625 28.83984375 C175.44278021 28.91048912 178.22066148 28.96321277 181 29 C181.0093457 29.73637695 181.01869141 30.47275391 181.02832031 31.23144531 C181.08204155 34.57164218 181.16568622 37.91044119 181.25 41.25 C181.26417969 42.40886719 181.27835938 43.56773437 181.29296875 44.76171875 C181.32519531 45.87675781 181.35742188 46.99179688 181.390625 48.140625 C181.41157227 49.16704102 181.43251953 50.19345703 181.45410156 51.25097656 C181.85333487 54.59445064 181.85333487 54.59445064 186 58 C190.95 58.33 195.9 58.66 201 59 C201 227.3 201 395.6 201 569 C196.05 569.33 191.1 569.66 186 570 C181.6421612 574.31715478 181.6421612 574.31715478 181.390625 579.859375 C181.35839844 580.97441406 181.32617188 582.08945312 181.29296875 583.23828125 C181.27878906 584.39714844 181.26460937 585.55601562 181.25 586.75 C181.22035156 587.92433594 181.19070313 589.09867188 181.16015625 590.30859375 C181.08949273 593.20579822 181.03677734 596.10219955 181 599 C180.23856689 599.00410889 179.47713379 599.00821777 178.69262695 599.01245117 C175.23180334 599.0454114 171.77273429 599.11606054 168.3125 599.1875 C167.11431641 599.19330078 165.91613281 599.19910156 164.68164062 599.20507812 C163.52470703 599.23408203 162.36777344 599.26308594 161.17578125 599.29296875 C160.11270752 599.3086792 159.04963379 599.32438965 157.9543457 599.34057617 C154.20653294 599.89999114 154.20653294 599.89999114 150 605 C149.67 612.92 149.34 620.84 149 629 C100.16 629 51.32 629 1 629 C0.67 621.74 0.34 614.48 0 607 C-4.0596649 600.95969764 -4.0596649 600.95969764 -7.86254883 600.22705078 C-8.88372803 600.21657715 -9.90490723 600.20610352 -10.95703125 600.1953125 C-12.62475586 600.15664062 -12.62475586 600.15664062 -14.32617188 600.1171875 C-15.47666016 600.11976563 -16.62714844 600.12234375 -17.8125 600.125 C-18.98232422 600.104375 -20.15214844 600.08375 -21.35742188 600.0625 C-24.23899309 600.01545394 -27.11812364 599.99555413 -30 600 C-30.0093457 599.3294458 -30.01869141 598.6588916 -30.02832031 597.96801758 C-30.08216596 594.91544433 -30.16578495 591.86438018 -30.25 588.8125 C-30.27126953 587.22985352 -30.27126953 587.22985352 -30.29296875 585.61523438 C-30.32519531 584.59365234 -30.35742188 583.57207031 -30.390625 582.51953125 C-30.41157227 581.58214111 -30.43251953 580.64475098 -30.45410156 579.67895508 C-30.9284312 576.31011934 -30.9284312 576.31011934 -35 572 C-39.29 571.67 -43.58 571.34 -48 571 C-48 402.04 -48 233.08 -48 59 C-41.565 58.505 -41.565 58.505 -35 58 C-30.82813317 52.98169433 -30.82813317 52.98169433 -30.390625 47.26171875 C-30.35839844 46.19501953 -30.32617188 45.12832031 -30.29296875 44.02929688 C-30.27878906 42.92650391 -30.26460938 41.82371094 -30.25 40.6875 C-30.22035156 39.56537109 -30.19070313 38.44324219 -30.16015625 37.28710938 C-30.08962583 34.52466793 -30.03684507 31.76306226 -30 29 C-28.89543457 28.98598145 -28.89543457 28.98598145 -27.76855469 28.97167969 C-24.42835782 28.91795845 -21.08955881 28.83431378 -17.75 28.75 C-16.59113281 28.73582031 -15.43226563 28.72164062 -14.23828125 28.70703125 C-13.12324219 28.67480469 -12.00820313 28.64257812 -10.859375 28.609375 C-9.83295898 28.58842773 -8.80654297 28.56748047 -7.74902344 28.54589844 C-4.40554936 28.14666513 -4.40554936 28.14666513 -1 24 C-0.67 16.08 -0.34 8.16 0 0 Z M14.78007507 65.85855103 C12.83428678 69.29244813 12.41091064 71.14333271 12.51171875 75.0546875 C12.52783203 76.16328125 12.54394531 77.271875 12.56054688 78.4140625 C12.60244141 79.55617188 12.64433594 80.69828125 12.6875 81.875 C12.71005859 83.0403125 12.73261719 84.205625 12.75585938 85.40625 C12.81458703 88.27215945 12.89667125 91.13540922 13 94 C12.35973877 93.97381592 11.71947754 93.94763184 11.05981445 93.9206543 C8.14429498 93.81638719 5.22916802 93.75158247 2.3125 93.6875 C1.30509766 93.64560547 0.29769531 93.60371094 -0.74023438 93.56054688 C-6.91595453 93.39969992 -6.91595453 93.39969992 -12.14453125 96.45703125 C-12.75683594 97.29621094 -13.36914062 98.13539063 -14 99 C-14.495 99.495 -14.495 99.495 -15 100 C-15.10355986 102.21993567 -15.13478961 104.44323939 -15.1398077 106.66558361 C-15.14275912 107.37405682 -15.14571055 108.08253004 -15.14875141 108.81247213 C-15.15750059 111.21656045 -15.15902829 113.62060099 -15.16062927 116.02470398 C-15.16535628 117.75370821 -15.17050665 119.48271132 -15.17604691 121.21171314 C-15.19000135 125.98652857 -15.19755022 130.76133635 -15.2040199 135.53616703 C-15.2103767 139.62582149 -15.22044879 143.71546329 -15.23058056 147.80510988 C-15.26395694 161.28288253 -15.28543594 174.7606629 -15.30378041 188.23846337 C-15.30857253 191.74618876 -15.3135562 195.25391383 -15.31858563 198.76163888 C-15.34955456 220.52603916 -15.37625116 242.29044206 -15.39300442 264.05485821 C-15.39695418 269.09964185 -15.40095713 274.14442544 -15.4050293 279.18920898 C-15.40603766 280.44312782 -15.40704602 281.69704666 -15.40808494 282.98896305 C-15.4250978 303.30919909 -15.46621143 323.62931347 -15.51705229 343.94949009 C-15.568777 364.79375912 -15.59793994 385.63796551 -15.6052013 406.4822982 C-15.60987016 418.19291877 -15.62469033 429.90334015 -15.6649456 441.61389732 C-15.69918218 451.58593052 -15.71321083 461.55772863 -15.70052146 471.52981725 C-15.69467955 476.62025296 -15.69866596 481.7101911 -15.7286911 486.80055237 C-15.75594278 491.45861942 -15.7556391 496.11583278 -15.73318065 500.77391789 C-15.7299434 502.46107554 -15.73690911 504.14828922 -15.75497787 505.83535322 C-16.30150187 515.63521323 -16.30150187 515.63521323 -12.12327671 523.99865437 C-8.88551803 526.07335821 -7.3917207 526.71970779 -3.6015625 526.5859375 C-2.14169922 526.55693359 -2.14169922 526.55693359 -0.65234375 526.52734375 C0.34667969 526.47707031 1.34570312 526.42679688 2.375 526.375 C3.39722656 526.34792969 4.41945313 526.32085938 5.47265625 526.29296875 C7.98396496 526.22255823 10.49086959 526.12415134 13 526 C12.96334229 526.69561035 12.92668457 527.3912207 12.88891602 528.10791016 C12.742817 531.27981753 12.65219155 534.45101728 12.5625 537.625 C12.50384766 538.71941406 12.44519531 539.81382812 12.38476562 540.94140625 C12.36220703 542.00488281 12.33964844 543.06835938 12.31640625 544.1640625 C12.27974854 545.13811035 12.24309082 546.1121582 12.20532227 547.11572266 C13.23006476 550.83501846 14.76455761 552.30479096 17.7098341 554.71496582 C22.2758282 557.27698915 27.26313462 556.82121276 32.37353516 556.76049805 C33.60522934 556.76940567 34.83692352 556.77831329 36.10594177 556.78749084 C39.46812714 556.8050974 42.82808319 556.79591748 46.19009447 556.77302146 C49.71515448 556.7540394 53.24014106 556.76527369 56.76522827 556.77192688 C62.68155981 556.77825686 68.59743592 556.76004985 74.51367188 556.72729492 C81.34804617 556.68976906 88.18155937 556.691597 95.01597941 556.7143361 C101.60111719 556.73529911 108.18593748 556.72800565 114.77106857 556.70801735 C117.56927973 556.70004293 120.36722148 556.70200849 123.16542435 556.71204185 C127.07236859 556.72457124 130.97841615 556.69582177 134.88525391 556.6628418 C136.62310905 556.67566696 136.62310905 556.67566696 138.39607239 556.68875122 C144.88743464 556.76776076 144.88743464 556.76776076 150.19467163 553.52107239 C150.79042999 552.6891185 151.38618835 551.85716461 152 551 C152.33 550.67 152.66 550.34 153 550 C153.08726223 548.21928754 153.10699041 546.4351686 153.09765625 544.65234375 C153.09443359 543.57275391 153.09121094 542.49316406 153.08789062 541.38085938 C153.07951172 540.24455078 153.07113281 539.10824219 153.0625 537.9375 C153.05573242 536.22723633 153.05573242 536.22723633 153.04882812 534.48242188 C153.03699747 531.65489649 153.0205141 528.8274736 153 526 C153.60996826 526.02618408 154.21993652 526.05236816 154.84838867 526.0793457 C157.62782758 526.18365719 160.40685439 526.24842982 163.1875 526.3125 C164.14720703 526.35439453 165.10691406 526.39628906 166.09570312 526.43945312 C167.02705078 526.45556641 167.95839844 526.47167969 168.91796875 526.48828125 C169.77156982 526.51446533 170.6251709 526.54064941 171.50463867 526.56762695 C175.21174047 525.72436194 176.61729079 523.91223305 179 521 C179.74595755 517.61516014 179.74595755 517.61516014 179.6292057 513.82381439 C179.63647291 513.10873783 179.64374011 512.39366127 179.65122753 511.65691572 C179.66951683 509.25393906 179.65210567 506.85255072 179.63491821 504.44958496 C179.64067789 502.71228388 179.64861798 500.97498888 179.65855443 499.23770666 C179.67947217 494.45842871 179.66909026 489.67964845 179.65362334 484.90036845 C179.64233389 479.74826695 179.65976058 474.59625244 179.67352295 469.44416809 C179.69578561 459.34915978 179.69094067 449.25433708 179.67645974 439.15932143 C179.66517941 430.95675926 179.66363138 422.75424921 179.66907883 414.55168152 C179.67022807 412.80222249 179.67022807 412.80222249 179.67140054 411.01742086 C179.67299913 408.64828017 179.67462019 406.27913949 179.6762635 403.90999883 C179.69052987 381.68132546 179.67411432 359.4527551 179.64726166 337.22409862 C179.62492211 318.14039566 179.62880199 299.05684475 179.65185547 279.97314453 C179.67859776 257.82539251 179.68915649 235.67773083 179.67379415 213.52996492 C179.67220136 211.16941612 179.67062951 208.80886731 179.66907883 206.44831848 C179.66792176 204.7060506 179.66792176 204.7060506 179.66674132 202.92858538 C179.66241961 194.73347074 179.66972102 186.53841328 179.68147659 178.3433075 C179.69548267 168.35961819 179.69174148 158.3761255 179.66507287 148.3924588 C179.65190925 143.29612393 179.64682566 138.20011718 179.66331863 133.10378456 C179.6781785 128.44165997 179.67009576 123.78016873 179.64343087 119.11810189 C179.63782903 117.42840876 179.64072436 115.73866251 179.65280981 114.0490033 C179.66794863 111.75729626 179.65249477 109.46777714 179.6292057 107.17618561 C179.62798806 105.26475195 179.62798806 105.26475195 179.62674582 103.31470346 C178.83386555 99.12135603 177.21519239 97.70638417 174 95 C173.01 94.01 173.01 94.01 172 93 C169.76964703 92.72258755 169.76964703 92.72258755 167.2109375 92.8046875 C165.79941406 92.81435547 165.79941406 92.81435547 164.359375 92.82421875 C163.37453125 92.84097656 162.3896875 92.85773438 161.375 92.875 C160.38242187 92.88402344 159.38984375 92.89304687 158.3671875 92.90234375 C155.91121866 92.92595884 153.45572832 92.95889201 151 93 C151.02094727 92.3294458 151.04189453 91.6588916 151.06347656 90.96801758 C151.14686027 87.9163322 151.19873016 84.86488683 151.25 81.8125 C151.30027344 80.22985352 151.30027344 80.22985352 151.3515625 78.61523438 C151.48119381 72.46232794 151.48119381 72.46232794 149.171875 66.88671875 C145.58188127 63.76807312 143.58140569 62.74946062 138.88943481 62.71911621 C137.83235321 62.70769592 136.77527161 62.69627563 135.68615723 62.68450928 C134.52660522 62.68227356 133.36705322 62.68003784 132.17236328 62.67773438 C130.95100677 62.66780457 129.72965027 62.65787476 128.47128296 62.64764404 C125.11992817 62.62342548 121.76882297 62.60851074 118.41741037 62.59962273 C116.32330531 62.59375838 114.22922208 62.58554828 112.13512802 62.57661438 C105.58213278 62.54927123 99.02918752 62.52993415 92.47613919 62.5222106 C84.91319725 62.51324754 77.35097799 62.47814251 69.78825581 62.42020941 C63.94101676 62.37697314 58.09398102 62.356802 52.24658382 62.35412836 C48.75465348 62.35203252 45.26340274 62.34022631 41.77164078 62.30448914 C37.87633196 62.26539655 33.98192616 62.27410569 30.08642578 62.28710938 C28.93092224 62.26867981 27.7754187 62.25025024 26.5848999 62.23126221 C19.93831618 62.16483139 19.93831618 62.16483139 14.78007507 65.85855103 Z " fill="#F4F5F4" transform="translate(457,201)"/>
<path d="M0 0 C18.48 0 36.96 0 56 0 C56 126.06 56 252.12 56 382 C37.52 382 19.04 382 0 382 C0 255.94 0 129.88 0 0 Z " fill="#F4F4F2" transform="translate(511,320)"/>
<path d="M0 0 C0.08556773 52.17403821 0.16517393 104.34808194 0.2117157 156.52217102 C0.21240598 157.29401691 0.21309627 158.0658628 0.21380747 158.86109795 C0.22877103 175.63425026 0.24262208 192.40740331 0.25532665 209.18055747 C0.26156348 217.4057722 0.26804623 225.63098673 0.2746582 233.85620117 C0.275312 234.67472117 0.27596579 235.49324117 0.2766394 236.33656481 C0.29795687 262.88063592 0.33552139 289.42465391 0.3814861 315.96869282 C0.42862409 343.23972769 0.45942141 370.51073314 0.46957495 397.78180806 C0.47101578 401.63116346 0.47264397 405.48051876 0.47438622 409.32987404 C0.47472333 410.08750339 0.47506045 410.84513274 0.47540778 411.62572055 C0.48132286 423.83534437 0.50453056 436.04487741 0.53416017 448.25446418 C0.56356018 460.5208411 0.57484902 472.78712776 0.56750689 485.0535387 C0.56403211 491.70318918 0.56934266 498.35262821 0.59602737 505.00224686 C0.62025507 511.08375763 0.62165566 517.16482023 0.60449447 523.2463511 C0.60237167 525.45235638 0.60880246 527.65838898 0.62441591 529.86434003 C0.64434305 532.85226313 0.63375458 535.83854642 0.61523914 538.82644176 C0.63494175 540.12551112 0.63494175 540.12551112 0.65504238 541.45082429 C0.5935138 545.81365818 0.40066117 547.48912456 -2.38249236 551.03787071 C-5.29167004 553.21864094 -6.50417017 553.59803159 -10.08203125 553.48828125 C-11.01337891 553.47216797 -11.94472656 553.45605469 -12.90429688 553.43945312 C-14.34385742 553.37661133 -14.34385742 553.37661133 -15.8125 553.3125 C-16.79154297 553.28994141 -17.77058594 553.26738281 -18.77929688 553.24414062 C-21.18777455 553.18539727 -23.59309078 553.10332129 -26 553 C-25.97381592 553.66531738 -25.94763184 554.33063477 -25.9206543 555.01611328 C-25.8162454 558.05216535 -25.75153652 561.08783911 -25.6875 564.125 C-25.64560547 565.17171875 -25.60371094 566.2184375 -25.56054688 567.296875 C-25.42212493 576.04514176 -25.42212493 576.04514176 -27.875 579.71875 C-32.35178697 582.98680449 -35.92244618 582.67211957 -41.3125 582.375 C-42.24384766 582.34792969 -43.17519531 582.32085938 -44.13476562 582.29296875 C-46.42556872 582.2224825 -48.71157563 582.12404246 -51 582 C-50.97381592 582.73114014 -50.94763184 583.46228027 -50.9206543 584.21557617 C-50.81649856 587.53933082 -50.75161379 590.86274194 -50.6875 594.1875 C-50.64560547 595.33798828 -50.60371094 596.48847656 -50.56054688 597.67382812 C-50.44007563 605.98634382 -50.44007563 605.98634382 -52.8125 610.28125 C-57.61185017 612.86913489 -61.95673961 612.53522836 -67.3125 612.3125 C-68.33923828 612.28994141 -69.36597656 612.26738281 -70.42382812 612.24414062 C-72.9507179 612.18537575 -75.47460255 612.10327849 -78 612 C-77.97381592 612.70084717 -77.94763184 613.40169434 -77.9206543 614.1237793 C-77.8164646 617.3114565 -77.75160417 620.49877526 -77.6875 623.6875 C-77.64560547 624.79029297 -77.60371094 625.89308594 -77.56054688 627.02929688 C-77.48910776 631.75856609 -77.48297788 635.03981607 -79.75 639.25 C-84.82556259 641.98299524 -89.6527765 641.52750995 -95.3125 641.3125 C-96.43462891 641.28994141 -97.55675781 641.26738281 -98.71289062 641.24414062 C-101.47662536 641.18533776 -104.23762554 641.10320401 -107 641 C-106.525625 639.989375 -106.05125 638.97875 -105.5625 637.9375 C-102.88778659 631.65078044 -102.8575911 625.28099464 -102.9375 618.5625 C-102.94201172 617.83095703 -102.94652344 617.09941406 -102.95117188 616.34570312 C-102.96281852 614.56376581 -102.98074809 612.78187137 -103 611 C-102.35450195 610.99589111 -101.70900391 610.99178223 -101.04394531 610.98754883 C-98.11170672 610.95459937 -95.18154243 610.88395635 -92.25 610.8125 C-91.23421875 610.80669922 -90.2184375 610.80089844 -89.171875 610.79492188 C-83.30909271 610.70221657 -83.30909271 610.70221657 -78.359375 607.88671875 C-75.60386406 602.03521708 -75.86218654 595.89462408 -75.9375 589.5625 C-75.94201172 588.83095703 -75.94652344 588.09941406 -75.95117188 587.34570312 C-75.96281852 585.56376581 -75.98074809 583.78187137 -76 582 C-75.44538086 581.99589111 -74.89076172 581.99178223 -74.31933594 581.98754883 C-71.795156 581.95455819 -69.27337304 581.88391622 -66.75 581.8125 C-65.87730469 581.80669922 -65.00460937 581.80089844 -64.10546875 581.79492188 C-60.16703379 581.65963212 -57.71842977 581.49939631 -54.4375 579.21875 C-52.17978493 574.16343147 -52.32042964 569.16500487 -52.25 563.6875 C-52.22035156 562.56537109 -52.19070313 561.44324219 -52.16015625 560.28710938 C-52.08962583 557.52466793 -52.03684507 554.76306226 -52 552 C-51.41508789 552.00636475 -50.83017578 552.01272949 -50.22753906 552.01928711 C-47.56707086 552.02799352 -44.91006504 551.98330002 -42.25 551.9375 C-41.32960938 551.94845703 -40.40921875 551.95941406 -39.4609375 551.97070312 C-38.12675781 551.93686523 -38.12675781 551.93686523 -36.765625 551.90234375 C-35.94868164 551.89710693 -35.13173828 551.89187012 -34.29003906 551.88647461 C-31.27563097 550.71959659 -30.34660271 548.87357545 -28.84379384 546.10044443 C-27.33451565 542.34341893 -27.45040741 538.66036934 -27.49219131 534.65843296 C-27.48588756 533.73356914 -27.47958381 532.80870532 -27.47308904 531.85581532 C-27.45680469 528.75156993 -27.46900119 525.64809389 -27.48101807 522.5438385 C-27.47514364 520.29802542 -27.46751703 518.05221634 -27.458287 515.80641454 C-27.43798814 509.63110509 -27.44259085 503.45602485 -27.45119452 497.28069723 C-27.4556237 491.30653152 -27.44131009 485.33241929 -27.42743097 479.35827463 C-27.39968957 467.13834318 -27.39049933 454.91846356 -27.39188385 442.69850349 C-27.39319405 430.59932431 -27.38625773 418.50019614 -27.36830902 406.40102959 C-27.36719763 405.64872446 -27.36608624 404.89641934 -27.36494118 404.12131709 C-27.35925409 400.30073523 -27.35341967 396.48015361 -27.34752855 392.65957206 C-27.30606734 365.59881801 -27.28309392 338.53807669 -27.27099609 311.47729492 C-27.25920095 285.18821771 -27.23902961 258.89916872 -27.20751953 232.61010742 C-27.2060676 231.39457991 -27.2060676 231.39457991 -27.20458635 230.15449628 C-27.19485653 222.01660727 -27.18495643 213.87871847 -27.17493158 205.74082982 C-27.15451371 189.16303136 -27.13523233 172.58523164 -27.11663818 156.00743103 C-27.11535369 154.86410185 -27.11535369 154.86410185 -27.11404325 153.6976751 C-27.05698989 102.79846531 -27.02651224 51.89923383 -27 1 C-26.08504761 1.00785522 -26.08504761 1.00785522 -25.15161133 1.01586914 C-22.37191815 1.03673335 -19.59224149 1.04969013 -16.8125 1.0625 C-15.85279297 1.07087891 -14.89308594 1.07925781 -13.90429688 1.08789062 C-12.97294922 1.09111328 -12.04160156 1.09433594 -11.08203125 1.09765625 C-9.80162964 1.10551147 -9.80162964 1.10551147 -8.49536133 1.11352539 C-5.62702512 0.98303167 -2.83060869 0 0 0 Z " fill="#CB6F1B" transform="translate(724,243)"/>
<path d="M0 0 C8.58 0 17.16 0 26 0 C26.103125 4.021875 26.20625 8.04375 26.3125 12.1875 C26.35802002 13.44715576 26.40354004 14.70681152 26.45043945 16.00463867 C26.50902049 20.70812894 26.48723362 24.06982672 24.28125 28.28125 C19.05743908 31.01753191 13.98005269 30.52343329 8.1875 30.3125 C7.01767578 30.28994141 5.84785156 30.26738281 4.64257812 30.24414062 C1.76041231 30.18532091 -1.11913681 30.10317141 -4 30 C-3.97381592 30.69561035 -3.94763184 31.3912207 -3.9206543 32.10791016 C-3.81629051 35.28004085 -3.7515494 38.45180978 -3.6875 41.625 C-3.64560547 42.71941406 -3.60371094 43.81382812 -3.56054688 44.94140625 C-3.42202241 54.08402123 -3.42202241 54.08402123 -5.70703125 57.7734375 C-9 60 -9 60 -22 60 C-22 228.63 -22 397.26 -22 571 C-30.58 571 -39.16 571 -48 571 C-48 401.71 -48 232.42 -48 58 C-43.38 57.67 -38.76 57.34 -34 57 C-29.76913686 52.76913686 -29.49053612 52.43642291 -29.25 46.9375 C-29.19328125 45.89464844 -29.1365625 44.85179687 -29.078125 43.77734375 C-28.97623636 38.85102784 -28.97997316 33.92715936 -29 29 C-28.29915283 28.99589111 -27.59830566 28.99178223 -26.8762207 28.98754883 C-23.68746795 28.95456628 -20.50061395 28.88391668 -17.3125 28.8125 C-15.65831055 28.80379883 -15.65831055 28.80379883 -13.97070312 28.79492188 C-7.431768 28.67217712 -7.431768 28.67217712 -1.78125 25.65625 C3.05749103 18.44058355 1.01457458 8.11659663 0 0 Z " fill="#C7630F" transform="translate(431,200)"/>
<path d="M0 0 C4.20376189 -0.55521383 6.29006995 -0.46299786 9.875 1.875 C13.4633364 5.4633364 13.12790081 7.81969615 13.13701439 12.80704212 C13.14099213 13.87446466 13.14099213 13.87446466 13.14505023 14.9634513 C13.15277153 17.37219775 13.15330348 19.78089346 13.15390015 22.18965149 C13.1579129 23.9243561 13.1623508 25.65905976 13.1671797 27.39376229 C13.17917178 32.17965242 13.18479973 36.96553246 13.18936086 41.75143468 C13.1953069 46.90560596 13.20691914 52.05976511 13.21765137 57.21392822 C13.2421969 69.67002543 13.25680495 82.12612666 13.26971143 94.58224061 C13.27342157 98.09818257 13.27739494 101.61412412 13.2814641 105.13006568 C13.30669697 126.94669086 13.32875794 148.76331664 13.34119225 170.57995319 C13.34412211 175.63557754 13.34708375 180.69120187 13.35009766 185.74682617 C13.35084371 187.00343244 13.35158976 188.2600387 13.35235842 189.55472394 C13.3650198 209.9240532 13.39825226 230.29329531 13.43989949 250.66258381 C13.48227303 271.55773116 13.50588191 292.45283385 13.51111281 313.34802407 C13.51453195 325.08707442 13.52634644 336.82598856 13.55921555 348.56499672 C13.58715422 358.55970771 13.5982426 368.55425459 13.58702008 378.54900161 C13.58181772 383.65141248 13.58482228 388.75347933 13.60948563 393.85584068 C13.63186062 398.52360051 13.63133039 403.19076686 13.61228175 407.85853627 C13.60946517 409.55035237 13.61517158 411.24220772 13.63009469 412.93396036 C13.64910335 415.22851458 13.63748134 417.52093116 13.61803246 419.81543446 C13.62006725 421.72930744 13.62006725 421.72930744 13.62214315 423.68184453 C12.83412989 427.88465621 11.29991233 429.36943165 8 432 C5.50463867 432.56762695 5.50463867 432.56762695 2.91796875 432.48828125 C1.52094727 432.46411133 1.52094727 432.46411133 0.09570312 432.43945312 C-0.86400391 432.39755859 -1.82371094 432.35566406 -2.8125 432.3125 C-3.79154297 432.28994141 -4.77058594 432.26738281 -5.77929688 432.24414062 C-8.18777455 432.18539727 -10.59309078 432.10332129 -13 432 C-12.97905273 432.70084717 -12.95810547 433.40169434 -12.93652344 434.1237793 C-12.85316952 437.31153919 -12.80127861 440.49906952 -12.75 443.6875 C-12.69972656 445.34168945 -12.69972656 445.34168945 -12.6484375 447.02929688 C-12.59426451 451.51211175 -12.61817526 455.06514887 -14.32421875 459.2421875 C-18.66370416 462.09294434 -22.99737603 461.60362304 -28.0625 461.4375 C-29.06861328 461.43169922 -30.07472656 461.42589844 -31.11132812 461.41992188 C-38.55662256 461.29558496 -38.55662256 461.29558496 -42 459 C-41.5155542 458.45633789 -41.0311084 457.91267578 -40.53198242 457.35253906 C-38.6691501 454.49194109 -38.57849143 452.75127785 -38.48828125 449.359375 C-38.45283203 448.28945313 -38.41738281 447.21953125 -38.38085938 446.1171875 C-38.35830078 445.00601562 -38.33574219 443.89484375 -38.3125 442.75 C-38.27833984 441.62335938 -38.24417969 440.49671875 -38.20898438 439.3359375 C-38.12656986 436.55739099 -38.05739702 433.77915748 -38 431 C-37.41508789 430.99589111 -36.83017578 430.99178223 -36.22753906 430.98754883 C-33.56734434 430.95457339 -30.90942845 430.88393093 -28.25 430.8125 C-27.32960938 430.80669922 -26.40921875 430.80089844 -25.4609375 430.79492188 C-24.57148437 430.76591797 -23.68203125 430.73691406 -22.765625 430.70703125 C-21.94868164 430.6913208 -21.13173828 430.67561035 -20.29003906 430.65942383 C-16.88899398 429.68008238 -15.9083895 427.93369546 -14 425 C-13.40106412 421.63610316 -13.40106412 421.63610316 -13.49219131 417.88793468 C-13.48588756 417.17980201 -13.47958381 416.47166934 -13.47308904 415.7420781 C-13.45679196 413.3629753 -13.46900478 410.98487467 -13.48101807 408.60575867 C-13.47514416 406.88551978 -13.46751782 405.16528613 -13.458287 403.44506198 C-13.43798098 398.71321229 -13.44259258 393.98166161 -13.45119452 389.24978817 C-13.45612926 384.14890761 -13.43806705 379.04810313 -13.42277527 373.94725037 C-13.39943459 365.10809795 -13.39071599 356.26902764 -13.39188385 347.42984581 C-13.39355132 334.64983813 -13.37323636 321.86994009 -13.34752855 309.08996163 C-13.30641922 288.35612234 -13.28312744 267.62230273 -13.27099609 246.88842773 C-13.25917245 226.74550483 -13.23898508 206.60261901 -13.20751953 186.4597168 C-13.20558343 185.21844025 -13.20364733 183.97716371 -13.20165256 182.69827273 C-13.19188816 176.47125204 -13.18195902 170.24423162 -13.17194796 164.01721132 C-13.08908845 112.34482574 -13.03512631 60.67243855 -13 9 C-12.3709375 8.70222656 -11.741875 8.40445312 -11.09375 8.09765625 C-8.95313933 7.11661494 -8.95313933 7.11661494 -7.5 5.4375 C-6 4 -6 4 -3.9375 3.5 C-1.60312807 3.12732749 -1.60312807 3.12732749 0 0 Z " fill="#C35808" transform="translate(623,295)"/>
<path d="M0 0 C2.3730459 0.00503969 4.74609287 0.00959811 7.11914062 0.01367188 C12.80861804 0.02444841 18.49805357 0.0409792 24.1875 0.0625 C24.1875 0.7225 24.1875 1.3825 24.1875 2.0625 C6.0375 2.0625 -12.1125 2.0625 -30.8125 2.0625 C-30.8125 128.1225 -30.8125 254.1825 -30.8125 384.0625 C-39.3925 384.0625 -47.9725 384.0625 -56.8125 384.0625 C-56.8125 257.6725 -56.8125 131.2825 -56.8125 1.0625 C-37.83642165 0.40815247 -18.97073393 -0.07202872 0 0 Z " fill="#C8600D" transform="translate(541.8125,317.9375)"/>
<path d="M0 0 C8.25 0 16.5 0 25 0 C25.10776358 4.25067453 25.18721602 8.49862759 25.25 12.75 C25.28351563 13.9565625 25.31703125 15.163125 25.3515625 16.40625 C25.37089844 18.14648438 25.37089844 18.14648438 25.390625 19.921875 C25.4220459 21.52434082 25.4220459 21.52434082 25.45410156 23.15917969 C25 26 25 26 23.2734375 28.35546875 C20.63998935 30.26042008 19.44451963 30.4729364 16.234375 30.390625 C15.34492187 30.37773438 14.45546875 30.36484375 13.5390625 30.3515625 C12.61867188 30.31804688 11.69828125 30.28453125 10.75 30.25 C9.81414062 30.23195313 8.87828125 30.21390625 7.9140625 30.1953125 C5.60832985 30.14825673 3.30469055 30.08253713 1 30 C1.02618408 30.73114014 1.05236816 31.46228027 1.0793457 32.21557617 C1.18350144 35.53933082 1.24838621 38.86274194 1.3125 42.1875 C1.35439453 43.33798828 1.39628906 44.48847656 1.43945312 45.67382812 C1.55992437 53.98634382 1.55992437 53.98634382 -0.8125 58.28125 C-5.61185017 60.86913489 -9.95673961 60.53522836 -15.3125 60.3125 C-16.33923828 60.28994141 -17.36597656 60.26738281 -18.42382812 60.24414062 C-20.9507179 60.18537575 -23.47460255 60.10327849 -26 60 C-25.97381592 60.70084717 -25.94763184 61.40169434 -25.9206543 62.1237793 C-25.8164646 65.3114565 -25.75160417 68.49877526 -25.6875 71.6875 C-25.64560547 72.79029297 -25.60371094 73.89308594 -25.56054688 75.02929688 C-25.48910776 79.75856609 -25.48297788 83.03981607 -27.75 87.25 C-32.82556259 89.98299524 -37.6527765 89.52750995 -43.3125 89.3125 C-44.43462891 89.28994141 -45.55675781 89.26738281 -46.71289062 89.24414062 C-49.47662536 89.18533776 -52.23762554 89.10320401 -55 89 C-54.525625 87.989375 -54.05125 86.97875 -53.5625 85.9375 C-50.88778659 79.65078044 -50.8575911 73.28099464 -50.9375 66.5625 C-50.94201172 65.83095703 -50.94652344 65.09941406 -50.95117188 64.34570312 C-50.96281852 62.56376581 -50.98074809 60.78187137 -51 59 C-50.03175293 58.99383667 -50.03175293 58.99383667 -49.04394531 58.98754883 C-46.11170672 58.95459937 -43.18154243 58.88395635 -40.25 58.8125 C-39.23421875 58.80669922 -38.2184375 58.80089844 -37.171875 58.79492188 C-31.30909271 58.70221657 -31.30909271 58.70221657 -26.359375 55.88671875 C-23.60386406 50.03521708 -23.86218654 43.89462408 -23.9375 37.5625 C-23.94201172 36.83095703 -23.94652344 36.09941406 -23.95117188 35.34570312 C-23.96281852 33.56376581 -23.98074809 31.78187137 -24 30 C-23.16807129 29.99383667 -23.16807129 29.99383667 -22.31933594 29.98754883 C-19.795156 29.95455819 -17.27337304 29.88391622 -14.75 29.8125 C-13.87730469 29.80669922 -13.00460937 29.80089844 -12.10546875 29.79492188 C-8.16703379 29.65963212 -5.71842977 29.49939631 -2.4375 27.21875 C-0.17893604 22.16153069 -0.32162484 17.16424214 -0.25 11.6875 C-0.1675 7.830625 -0.085 3.97375 0 0 Z " fill="#B95508" transform="translate(672,795)"/>
<path d="M0 0 C8.58 0 17.16 0 26 0 C26.1546875 6.0328125 26.1546875 6.0328125 26.3125 12.1875 C26.35802002 13.44715576 26.40354004 14.70681152 26.45043945 16.00463867 C26.50902049 20.70812894 26.48723362 24.06982672 24.28125 28.28125 C19.05743908 31.01753191 13.98005269 30.52343329 8.1875 30.3125 C7.01767578 30.28994141 5.84785156 30.26738281 4.64257812 30.24414062 C1.76041231 30.18532091 -1.11913681 30.10317141 -4 30 C-3.97381592 30.69561035 -3.94763184 31.3912207 -3.9206543 32.10791016 C-3.81629051 35.28004085 -3.7515494 38.45180978 -3.6875 41.625 C-3.64560547 42.71941406 -3.60371094 43.81382812 -3.56054688 44.94140625 C-3.42202241 54.08402123 -3.42202241 54.08402123 -5.70703125 57.7734375 C-9 60 -9 60 -22 60 C-22 228.63 -22 397.26 -22 571 C-22.99 570.67 -23.98 570.34 -25 570 C-24.83748025 568.86086208 -24.6749605 567.72172416 -24.50751591 566.54806691 C-23.95385256 562.09248392 -23.86296792 557.71607201 -23.87974548 553.23092937 C-23.87846411 551.95468372 -23.87846411 551.95468372 -23.87715685 550.65265533 C-23.87551474 547.80647576 -23.8810109 544.96035565 -23.88647461 542.11418152 C-23.88675469 540.05113979 -23.88659152 537.98809795 -23.88602352 535.92505628 C-23.88572803 530.25952901 -23.89166199 524.5940227 -23.89859343 518.92850029 C-23.90496724 512.81741652 -23.90553653 506.70633195 -23.9067688 500.59524536 C-23.90965555 490.00785642 -23.91607491 479.42047507 -23.92483521 468.83308983 C-23.93744316 453.52222799 -23.94348171 438.21136853 -23.94776857 422.90050236 C-23.9497747 415.76685813 -23.95210216 408.633214 -23.95451355 401.49956989 C-23.95475456 400.78549453 -23.95499558 400.07141916 -23.95524389 399.33570514 C-23.96105309 382.3456284 -23.97001023 365.35555355 -23.97949219 348.36547852 C-23.98011266 347.25057181 -23.98011266 347.25057181 -23.98074566 346.11314174 C-23.9870431 334.80459442 -23.99350449 323.4960472 -24 312.1875 C-24.00693099 300.11922206 -24.01379844 288.05094408 -24.02050781 275.98266602 C-24.0209224 275.23903351 -24.02133699 274.49540101 -24.02176414 273.7292342 C-24.03120876 256.75831144 -24.0397574 239.78738888 -24.04548645 222.81646442 C-24.04572744 222.10366818 -24.04596844 221.39087193 -24.04621673 220.6564758 C-24.04860175 213.54154885 -24.05082973 206.42662187 -24.05282298 199.3116948 C-24.05714328 184.01482293 -24.06422904 168.71795936 -24.07687083 153.42109196 C-24.08604005 142.27595264 -24.09173574 131.130816 -24.09398818 119.98567273 C-24.09533776 113.94386997 -24.09837558 107.90207966 -24.10574722 101.86028099 C-24.11246116 96.33692609 -24.11463967 90.81358926 -24.11311162 85.29023067 C-24.1133846 83.28504508 -24.11537826 81.2798589 -24.1192044 79.27467694 C-24.12414117 76.56304992 -24.12300049 73.85149339 -24.12025452 71.13986492 C-24.12316738 70.34946437 -24.12608024 69.55906381 -24.12908137 68.74471173 C-24.12027418 65.56004553 -24.01480577 63.04441731 -23 60 C-26.3 60 -29.6 60 -33 60 C-32.525625 59.113125 -32.05125 58.22625 -31.5625 57.3125 C-27.86468316 48.67844654 -28.95333819 38.2120773 -29 29 C-28.29915283 28.99589111 -27.59830566 28.99178223 -26.8762207 28.98754883 C-23.68746795 28.95456628 -20.50061395 28.88391668 -17.3125 28.8125 C-15.65831055 28.80379883 -15.65831055 28.80379883 -13.97070312 28.79492188 C-7.431768 28.67217712 -7.431768 28.67217712 -1.78125 25.65625 C3.05749103 18.44058355 1.01457458 8.11659663 0 0 Z " fill="#B8530D" transform="translate(431,200)"/>
<path d="M0 0 C8.58 0 17.16 0 26 0 C26.103125 4.021875 26.20625 8.04375 26.3125 12.1875 C26.38078003 14.07698364 26.38078003 14.07698364 26.45043945 16.00463867 C26.5092534 20.7268292 26.49724678 24.06766229 24.25 28.28125 C19.16815126 30.96876616 14.3344453 30.52702451 8.6875 30.3125 C7.56537109 30.28994141 6.44324219 30.26738281 5.28710938 30.24414062 C2.52337464 30.18533776 -0.23762554 30.10320401 -3 30 C-2.38722388 27.03824877 -1.74627478 25.61941217 0 23 C1.56444101 15.02135083 1.00270839 8.02166712 0 0 Z " fill="#B94B04" transform="translate(431,200)"/>
<path d="M0 0 C7.92 0 15.84 0 24 0 C24.08081708 4.25037964 24.14041866 8.49922778 24.1875 12.75 C24.21263672 13.9565625 24.23777344 15.163125 24.26367188 16.40625 C24.27333984 17.56640625 24.28300781 18.7265625 24.29296875 19.921875 C24.3086792 20.99018555 24.32438965 22.05849609 24.34057617 23.15917969 C23.94943398 26.42178223 23.41610218 27.77951366 21 30 C18.6875 30.48583984 18.6875 30.48583984 16 30.4609375 C15.030625 30.45707031 14.06125 30.45320312 13.0625 30.44921875 C12.051875 30.42472656 11.04125 30.40023437 10 30.375 C8.989375 30.37371094 7.97875 30.37242187 6.9375 30.37109375 C-0.57828368 30.28114421 -0.57828368 30.28114421 -4 28 C-3.2733313 27.18450684 -3.2733313 27.18450684 -2.53198242 26.35253906 C-0.6691501 23.49194109 -0.57849143 21.75127785 -0.48828125 18.359375 C-0.45516846 17.39483398 -0.42205566 16.43029297 -0.38793945 15.43652344 C-0.36304443 14.2199707 -0.33814941 13.00341797 -0.3125 11.75 C-0.209375 7.8725 -0.10625 3.995 0 0 Z " fill="#C34C02" transform="translate(585,726)"/>
<path d="M0 0 C3.94265153 1.03274385 5.2233761 2.2742714 7.53515625 5.6640625 C8.14446932 9.79027458 8.00445313 13.81742117 7.84765625 17.9765625 C7.74453125 21.8334375 7.64140625 25.6903125 7.53515625 29.6640625 C-0.38484375 29.6640625 -8.30484375 29.6640625 -16.46484375 29.6640625 C-16.46484375 22.4040625 -16.46484375 15.1440625 -16.46484375 7.6640625 C-14.81484375 7.0040625 -13.16484375 6.3440625 -11.46484375 5.6640625 C-10.90796875 4.7978125 -10.35109375 3.9315625 -9.77734375 3.0390625 C-6.6161802 -0.2075379 -4.37346794 0.0675961 0 0 Z " fill="#C45A0B" transform="translate(599.46484375,264.3359375)"/>
<path d="M0 0 C0 8.25 0 16.5 0 25 C-3.939375 25.020625 -7.87875 25.04125 -11.9375 25.0625 C-13.80329712 25.07615601 -13.80329712 25.07615601 -15.70678711 25.09008789 C-16.6788208 25.09258545 -17.65085449 25.09508301 -18.65234375 25.09765625 C-20.15269165 25.10551147 -20.15269165 25.10551147 -21.68334961 25.11352539 C-24 25 -24 25 -25 24 C-25.08685603 22.43827255 -25.10702219 20.87270656 -25.09765625 19.30859375 C-25.09443359 18.36435547 -25.09121094 17.42011719 -25.08789062 16.44726562 C-25.07951172 15.45404297 -25.07113281 14.46082031 -25.0625 13.4375 C-25.05798828 12.44041016 -25.05347656 11.44332031 -25.04882812 10.41601562 C-25.03700007 7.94395151 -25.02051849 5.47200482 -25 3 C-23.84242188 2.95101562 -22.68484375 2.90203125 -21.4921875 2.8515625 C-19.9531033 2.77648522 -18.4140419 2.70093957 -16.875 2.625 C-15.73417969 2.57859375 -15.73417969 2.57859375 -14.5703125 2.53125 C-9.57308532 2.27277273 -4.78930309 0 0 0 Z " fill="#D5721A" transform="translate(645,150)"/>
<path d="M0 0 C3.75 0.125 3.75 0.125 8.75 1.125 C8.75 8.715 8.75 16.305 8.75 24.125 C0.83 24.125 -7.09 24.125 -15.25 24.125 C-15.25 17.525 -15.25 10.925 -15.25 4.125 C-8.25 2.125 -8.25 2.125 -5.875 1.5625 C-0.08333333 0.00320513 -0.08333333 0.00320513 0 0 Z " fill="#CE6009" transform="translate(448.25,805.875)"/>
<path d="M0 0 C0.66 0 1.32 0 2 0 C3.46982993 2.93965985 3.12402335 5.53740392 3.12304783 8.82100868 C3.12420167 9.53412169 3.12535552 10.2472347 3.12654433 10.9819572 C3.12921254 13.39576006 3.12468715 15.80949758 3.12025452 18.22329712 C3.12069018 19.96156434 3.12156499 21.6998315 3.12284368 23.43809831 C3.12508967 28.23365051 3.12106594 33.02918055 3.11606562 37.82472992 C3.11176279 42.98902386 3.11320743 48.15331647 3.1139679 53.31761169 C3.11449324 62.27139204 3.11134537 71.22516512 3.10573006 80.17894363 C3.09761643 93.12473889 3.09499998 106.07053062 3.09374207 119.01632814 C3.09155133 140.01804888 3.08489066 161.01976574 3.07543945 182.02148438 C3.0662659 202.42740866 3.05918479 222.83333189 3.05493164 243.23925781 C3.05466892 244.4962575 3.05440619 245.7532572 3.05413551 247.04834779 C3.05283051 253.35410051 3.05156679 259.65985324 3.05032361 265.96560597 C3.03995032 318.31040666 3.02233141 370.65520314 3 423 C2.01 423.33 1.02 423.66 0 424 C0.07087043 422.79171508 0.14174086 421.58343016 0.21475887 420.33853054 C1.20324873 401.84600053 1.13707873 383.36357087 1.11606562 364.85146677 C1.11169409 360.00860837 1.11321224 355.16575106 1.1139679 350.32289124 C1.11448893 341.95879862 1.11138635 333.59471388 1.10573006 325.23062325 C1.09755767 313.13797116 1.09499399 301.04532284 1.09374207 288.9526683 C1.09156051 269.3269232 1.08492485 249.70118229 1.07543945 230.07543945 C1.06624206 211.02563498 1.05917264 191.97583164 1.05493164 172.92602539 C1.05466892 171.74921778 1.05440619 170.57241017 1.05413551 169.35994173 C1.05283035 163.45547411 1.05156667 157.55100648 1.05032361 151.64653885 C1.03997893 102.76435634 1.02238516 53.88217838 1 5 C0.67 5 0.34 5 0 5 C0 3.35 0 1.7 0 0 Z " fill="#B14E10" transform="translate(633,299)"/>
<path d="M0 0 C2.27335057 0.06470079 4.54480473 0.20217873 6.8125 0.375 C8.05644531 0.46523437 9.30039062 0.55546875 10.58203125 0.6484375 C14 1 14 1 18 2 C18 8.6 18 15.2 18 22 C9.75 22 1.5 22 -7 22 C-7 15.07 -7 8.14 -7 1 C-5.02 1 -3.04 1 -1 1 C-0.67 0.67 -0.34 0.34 0 0 Z " fill="#D57219" transform="translate(679,212)"/>
<path d="M0 0 C3.97921094 -0.02682614 7.95824341 -0.04675393 11.9375 -0.0625 C13.07380859 -0.07087891 14.21011719 -0.07925781 15.38085938 -0.08789062 C16.46044922 -0.09111328 17.54003906 -0.09433594 18.65234375 -0.09765625 C20.15269165 -0.10551147 20.15269165 -0.10551147 21.68334961 -0.11352539 C24 0 24 0 25 1 C25.08651611 2.41570123 25.10704904 3.835595 25.09765625 5.25390625 C25.09515869 6.0229126 25.09266113 6.79191895 25.09008789 7.58422852 C25.08098389 8.56705811 25.07187988 9.5498877 25.0625 10.5625 C25.041875 13.676875 25.02125 16.79125 25 20 C16.75 20 8.5 20 0 20 C0 13.4 0 6.8 0 0 Z " fill="#D4731B" transform="translate(648,184)"/>
<path d="M0 0 C0 7.59 0 15.18 0 23 C-7.92 23 -15.84 23 -24 23 C-24.061875 20.07125 -24.12375 17.1425 -24.1875 14.125 C-24.21481201 13.20348145 -24.24212402 12.28196289 -24.27026367 11.33251953 C-24.27775635 10.60661621 -24.28524902 9.88071289 -24.29296875 9.1328125 C-24.3086792 8.38918457 -24.32438965 7.64555664 -24.34057617 6.87939453 C-24.22818604 6.25919434 -24.1157959 5.63899414 -24 5 C-20.82838732 2.88559155 -18.66390415 2.59910959 -14.93359375 2.22265625 C-12.90709128 2.03573314 -12.90709128 2.03573314 -10.625 1.375 C-9 1 -9 1 -7 2 C-1.66666667 0 -1.66666667 0 0 0 Z " fill="#CF600A" transform="translate(426,777)"/>
<path d="M0 0 C4.62 0 9.24 0 14 0 C12 4 12 4 10 4.75 C8 5 8 5 6 5 C5.67 5.99 5.34 6.98 5 8 C4.01 8.33 3.02 8.66 2 9 C1.67 121.53 1.34 234.06 1 350 C0.67 350 0.34 350 0 350 C0 234.5 0 119 0 0 Z " fill="#DD8634" transform="translate(609,295)"/>
<path d="M0 0 C1.58567839 0.1421701 3.17518632 0.24504041 4.765625 0.31640625 C5.65507813 0.35830078 6.54453125 0.40019531 7.4609375 0.44335938 C8.38132812 0.48267578 9.30171875 0.52199219 10.25 0.5625 C11.18585938 0.60568359 12.12171875 0.64886719 13.0859375 0.69335938 C15.39048641 0.7991805 17.69513839 0.90126557 20 1 C20 1.33 20 1.66 20 2 C5.59649621 2.04671915 -8.80699584 2.08185547 -23.21055984 2.10362434 C-29.89837612 2.11407115 -36.58613995 2.12799786 -43.27392578 2.15087891 C-49.72538504 2.17257516 -56.17679535 2.18456187 -62.62828827 2.18975449 C-65.0923108 2.19345602 -67.55633059 2.20068397 -70.02033234 2.21146011 C-73.4657627 2.22593211 -76.91098955 2.22797972 -80.35644531 2.22705078 C-81.89177162 2.23783661 -81.89177162 2.23783661 -83.45811462 2.24884033 C-84.39758438 2.246091 -85.33705414 2.24334167 -86.30499268 2.24050903 C-87.52729017 2.24327441 -87.52729017 2.24327441 -88.77428055 2.24609566 C-91.23614199 1.97389001 -92.86801203 1.23050922 -95 0 C-93.33416367 0.00333092 -93.33416367 0.00333092 -91.63467407 0.00672913 C-81.18683552 0.02696963 -70.73900092 0.04197654 -60.29114723 0.05181217 C-54.91935028 0.05703868 -49.54756911 0.06413214 -44.17578125 0.07543945 C-38.99517028 0.08627654 -33.81457452 0.09227859 -28.63395309 0.09487724 C-26.65393204 0.09673 -24.67391185 0.10034778 -22.69389725 0.10573006 C-19.92823717 0.11295136 -17.16264059 0.11399048 -14.39697266 0.11352539 C-13.15943489 0.1189183 -13.15943489 0.1189183 -11.89689636 0.12442017 C-7.43499423 0.11625952 -4.22519783 -1.13225807 0 0 Z " fill="#D78433" transform="translate(584,755)"/>
<path d="M0 0 C1.15725586 0.05414062 1.15725586 0.05414062 2.33789062 0.109375 C4.57421875 0.2578125 4.57421875 0.2578125 8.3125 0.875 C8.9725 1.865 9.6325 2.855 10.3125 3.875 C9.06829353 4.4095256 7.81679064 4.92708611 6.5625 5.4375 C5.86640625 5.72753906 5.1703125 6.01757812 4.453125 6.31640625 C1.98006307 6.96174905 0.73370061 6.55056921 -1.6875 5.875 C-3.70795442 6.47683749 -5.70861039 7.14806096 -7.6875 7.875 C-9.3375 8.205 -10.9875 8.535 -12.6875 8.875 C-13.0175 14.815 -13.3475 20.755 -13.6875 26.875 C-14.0175 26.875 -14.3475 26.875 -14.6875 26.875 C-14.71659763 23.62501888 -14.73433161 20.37507143 -14.75 17.125 C-14.75837891 16.20460938 -14.76675781 15.28421875 -14.77539062 14.3359375 C-14.77861328 13.44648437 -14.78183594 12.55703125 -14.78515625 11.640625 C-14.79039307 10.82368164 -14.79562988 10.00673828 -14.80102539 9.16503906 C-14.68872004 6.89961079 -14.42162517 5.02014844 -13.6875 2.875 C-9.4063253 -0.85136096 -5.32773207 -0.41573482 0 0 Z " fill="#D37625" transform="translate(415.6875,773.125)"/>
<path d="M0 0 C0 0.66 0 1.32 0 2 C-0.77085937 1.97679687 -1.54171875 1.95359375 -2.3359375 1.9296875 C-3.84027344 1.90261719 -3.84027344 1.90261719 -5.375 1.875 C-6.37273437 1.85179687 -7.37046875 1.82859375 -8.3984375 1.8046875 C-11.16262173 1.72783152 -11.16262173 1.72783152 -13 4 C-16.32220821 4.57730175 -19.63287151 4.74099012 -23 5 C-23 11.6 -23 18.2 -23 25 C-23.33 25 -23.66 25 -24 25 C-24.0867982 21.20847666 -24.14032207 17.41720704 -24.1875 13.625 C-24.21263672 12.54476562 -24.23777344 11.46453125 -24.26367188 10.3515625 C-24.27333984 9.3203125 -24.28300781 8.2890625 -24.29296875 7.2265625 C-24.31653442 5.79691162 -24.31653442 5.79691162 -24.34057617 4.33837891 C-24.22818604 3.56671387 -24.1157959 2.79504883 -24 2 C-20.28649956 -0.47566696 -16.88572716 -0.75633174 -12.5625 -1.25 C-11.4168457 -1.4046875 -11.4168457 -1.4046875 -10.24804688 -1.5625 C-3.33180819 -2.38113225 -3.33180819 -2.38113225 0 0 Z " fill="#D57823" transform="translate(456,805)"/>
<path d="M0 0 C7.15435695 0.5910121 14.10311559 1.38780739 21.09375 3.046875 C21.09375 3.706875 21.09375 4.366875 21.09375 5.046875 C16.23318456 5.13651658 11.47605153 5.1844579 6.65625 4.484375 C3.13814606 3.79346185 3.13814606 3.79346185 0.09375 5.046875 C-1.22625 4.716875 -2.54625 4.386875 -3.90625 4.046875 C-3.90625 10.976875 -3.90625 17.906875 -3.90625 25.046875 C-4.23625 25.046875 -4.56625 25.046875 -4.90625 25.046875 C-4.96411668 21.25527203 -4.99980054 17.46378189 -5.03125 13.671875 C-5.04800781 12.59164062 -5.06476562 11.51140625 -5.08203125 10.3984375 C-5.08847656 9.3671875 -5.09492187 8.3359375 -5.1015625 7.2734375 C-5.11203613 6.32033691 -5.12250977 5.36723633 -5.13330078 4.38525391 C-4.77317919 0.67638872 -3.63868663 0.05868849 0 0 Z " fill="#D98633" transform="translate(675.90625,208.953125)"/>
<path d="M0 0 C1.04800781 0.11730469 2.09601562 0.23460937 3.17578125 0.35546875 C6.15009493 0.7619717 9.11001147 1.20612053 12.0625 1.75 C12.7225 1.75 13.3825 1.75 14.0625 1.75 C13.7325 3.07 13.4025 4.39 13.0625 5.75 C5.1425 5.42 -2.7775 5.09 -10.9375 4.75 C-10.9375 4.09 -10.9375 3.43 -10.9375 2.75 C-7.1500737 -0.16875055 -4.68449694 -0.55466373 0 0 Z " fill="#D78634" transform="translate(658.9375,179.25)"/>
<path d="M0 0 C0 1.65 0 3.3 0 5 C-7.92 5 -15.84 5 -24 5 C-24 11.27 -24 17.54 -24 24 C-24.33 24 -24.66 24 -25 24 C-25 17.07 -25 10.14 -25 3 C-16.875 2.625 -16.875 2.625 -14.35107422 2.52197266 C-9.42412011 2.26216429 -4.72697344 0 0 0 Z " fill="#D57F2C" transform="translate(645,150)"/>
<path d="M0 0 C4.62 0 9.24 0 14 0 C12 4 12 4 10 4.75 C8 5 8 5 6 5 C5.67 5.99 5.34 6.98 5 8 C3.68 8.33 2.36 8.66 1 9 C0.67 6.03 0.34 3.06 0 0 Z " fill="#D37926" transform="translate(609,295)"/>
<path d="M0 0 C0.556875 0.391875 1.11375 0.78375 1.6875 1.1875 C0.06539404 5.89160729 -1.16501842 5.61375921 -6.3125 8.1875 C-6.6425 14.1275 -6.9725 20.0675 -7.3125 26.1875 C-7.6425 26.1875 -7.9725 26.1875 -8.3125 26.1875 C-8.34159763 22.93751888 -8.35933161 19.68757143 -8.375 16.4375 C-8.38337891 15.51710938 -8.39175781 14.59671875 -8.40039062 13.6484375 C-8.40361328 12.75898437 -8.40683594 11.86953125 -8.41015625 10.953125 C-8.41539307 10.13618164 -8.42062988 9.31923828 -8.42602539 8.47753906 C-8.31336341 6.20491675 -8.06587988 4.33441658 -7.3125 2.1875 C-3.21947674 -1.1311675 -3.21947674 -1.1311675 0 0 Z " fill="#DA7D29" transform="translate(409.3125,773.8125)"/>
<path d="M0 0 C3.90396385 0.7275569 7.61647279 0.60826398 11.578125 0.48046875 C11.248125 1.14046875 10.918125 1.80046875 10.578125 2.48046875 C2.20807619 4.06479942 -7.07417091 4.19281831 -15.421875 2.48046875 C-15.091875 1.49046875 -14.761875 0.50046875 -14.421875 -0.51953125 C-9.11712296 -1.67273822 -5.26592757 -1.20340983 0 0 Z " fill="#D17E2A" transform="translate(712.421875,241.51953125)"/>
<path d="M0 0 C0.33 0 0.66 0 1 0 C1 7.59 1 15.18 1 23 C7.93 23 14.86 23 22 23 C22 23.33 22 23.66 22 24 C-3.9701529 25.40027356 -3.9701529 25.40027356 -15 24 C-15 23.67 -15 23.34 -15 23 C-10.05 23 -5.1 23 0 23 C0 15.41 0 7.82 0 0 Z " fill="#DEA160" transform="translate(645,152)"/>
<path d="M0 0 C0.66 0.33 1.32 0.66 2 1 C1.01 1.66 0.02 2.32 -1 3 C-0.67 2.01 -0.34 1.02 0 0 Z M-2 3 C-1.34 3.66 -0.68 4.32 0 5 C2.22658154 5.37004294 2.22658154 5.37004294 4.7890625 5.4140625 C6.20058594 5.47207031 6.20058594 5.47207031 7.640625 5.53125 C8.62546875 5.5621875 9.6103125 5.593125 10.625 5.625 C12.11386719 5.68300781 12.11386719 5.68300781 13.6328125 5.7421875 C16.08835385 5.8366314 18.5438841 5.92219875 21 6 C21 6.33 21 6.66 21 7 C13.74 7 6.48 7 -1 7 C-1 14.92 -1 22.84 -1 31 C-1.33 31 -1.66 31 -2 31 C-2 22.75 -2 14.5 -2 6 C-2.66 5.67 -3.32 5.34 -4 5 C-3.34 4.34 -2.68 3.68 -2 3 Z " fill="#BE6E2A" transform="translate(647,848)"/>
<path d="M0 0 C1.51400391 0.01740234 1.51400391 0.01740234 3.05859375 0.03515625 C4.07050781 0.04417969 5.08242188 0.05320312 6.125 0.0625 C7.29869141 0.07990234 7.29869141 0.07990234 8.49609375 0.09765625 C5.92030084 5.39173274 5.92030084 5.39173274 3.49609375 7.09765625 C0.93359375 7.09765625 0.93359375 7.09765625 -1.50390625 6.09765625 C-2.81640625 3.53515625 -2.81640625 3.53515625 -3.50390625 1.09765625 C-2.50390625 0.09765625 -2.50390625 0.09765625 0 0 Z " fill="#D7802F" transform="translate(583.50390625,264.90234375)"/>
<path d="M0 0 C0.99 0.33 1.98 0.66 3 1 C3 8.92 3 16.84 3 25 C2.01 25 1.02 25 0 25 C0.165 23.989375 0.33 22.97875 0.5 21.9375 C1.34762407 15.33558292 1.07784918 8.6431304 1 2 C0.34 1.67 -0.32 1.34 -1 1 C-0.67 0.67 -0.34 0.34 0 0 Z " fill="#A73A00" transform="translate(604,269)"/>
<path d="M0 0 C0.33 0 0.66 0 1 0 C1 6.27 1 12.54 1 19 C-0.32 18.67 -1.64 18.34 -3 18 C-2.34 17.34 -1.68 16.68 -1 16 C-0.79435495 12.9725341 -0.79435495 12.9725341 -0.9375 9.5625 C-1.09854772 3.29564315 -1.09854772 3.29564315 0 0 Z " fill="#C05005" transform="translate(425,781)"/>
<path d="M0 0 C0.66 0 1.32 0 2 0 C3.27861615 2.55723229 3.11336609 4.36737102 3.09765625 7.2265625 C3.09282227 8.7734375 3.09282227 8.7734375 3.08789062 10.3515625 C3.07951172 11.43179687 3.07113281 12.51203125 3.0625 13.625 C3.05798828 14.71296875 3.05347656 15.8009375 3.04882812 16.921875 C3.03701776 19.61463789 3.02054778 22.30729188 3 25 C2.67 25 2.34 25 2 25 C1.67 18.4 1.34 11.8 1 5 C0.67 5 0.34 5 0 5 C0 3.35 0 1.7 0 0 Z " fill="#AE571F" transform="translate(633,299)"/>
<path d="M0 0 C0.99 0.33 1.98 0.66 3 1 C0.61733144 3.83428548 -1.2665178 4.56998208 -4.875 5.25 C-5.71804688 5.42015625 -6.56109375 5.5903125 -7.4296875 5.765625 C-10.17777766 6.01621073 -12.33524244 5.66857717 -15 5 C-11.81932587 3.11515607 -9.65563791 2.90860905 -6 3 C-4.66018514 2.6937566 -3.32488113 2.36548445 -2 2 C-1.34 2 -0.68 2 0 2 C0 1.34 0 0.68 0 0 Z " fill="#DE9645" transform="translate(639,146)"/>
<path d="M0 0 C4.95 0 9.9 0 15 0 C15.33 0.66 15.66 1.32 16 2 C10.39436958 2.82622671 5.57710648 3.06795656 0 2 C0 1.34 0 0.68 0 0 Z " fill="#D78A36" transform="translate(708,240)"/>
<path d="M0 0 C0.97582031 0.10183594 1.95164062 0.20367187 2.95703125 0.30859375 C3.69308594 0.39238281 4.42914062 0.47617188 5.1875 0.5625 C5.1875 1.2225 5.1875 1.8825 5.1875 2.5625 C-0.25943314 2.65938221 -5.45154667 2.69112175 -10.8125 1.5625 C-10.8125 1.2325 -10.8125 0.9025 -10.8125 0.5625 C-7.01982808 -0.3735342 -3.87575435 -0.42026252 0 0 Z " fill="#D5812B" transform="translate(691.8125,211.4375)"/>
<path d="M0 0 C-0.33 0.99 -0.66 1.98 -1 3 C-3.97 3 -6.94 3 -10 3 C-9.67 2.34 -9.34 1.68 -9 1 C-5.98003217 0.45091494 -3.07380605 0 0 0 Z " fill="#D48432" transform="translate(707,240)"/>
<path d="M0 0 C2.86724686 0.57344937 3.8614515 0.8614515 6 3 C4.02 3.33 2.04 3.66 0 4 C-0.33 3.34 -0.66 2.68 -1 2 C-0.67 1.34 -0.34 0.68 0 0 Z " fill="#C1651E" transform="translate(627,295)"/>
<path d="M0 0 C0.99 0.33 1.98 0.66 3 1 C2.67 4.96 2.34 8.92 2 13 C1.67 13 1.34 13 1 13 C1 9.37 1 5.74 1 2 C0.34 1.67 -0.32 1.34 -1 1 C-0.67 0.67 -0.34 0.34 0 0 Z " fill="#A64508" transform="translate(604,269)"/>
</svg>
