<?xml version="1.0" encoding="UTF-8"?>
<svg version="1.1" xmlns="http://www.w3.org/2000/svg" width="1024" height="1024">
<path d="M0 0 C337.92 0 675.84 0 1024 0 C1024 337.92 1024 675.84 1024 1024 C686.08 1024 348.16 1024 0 1024 C0 686.08 0 348.16 0 0 Z " fill="none" transform="translate(0,0)"/>
<path d="M0 0 C2.7640236 1.46448457 5.50989821 2.93583175 8.22509766 4.48974609 C9.33304688 5.12267578 10.44099609 5.75560547 11.58251953 6.40771484 C12.78380283 7.09892748 13.98497159 7.79033921 15.18603516 8.48193359 C16.44186515 9.20203692 17.69772503 9.92208813 18.95361328 10.64208984 C28.49148769 16.12071465 37.95534716 21.7189333 47.40454102 27.34912109 C56.62320988 32.83067262 65.91943356 38.16539979 75.2409668 43.46899414 C83.18641023 47.99187125 91.10355277 52.55903956 98.99853516 57.16943359 C99.99328857 57.75031738 100.98804199 58.33120117 102.01293945 58.9296875 C104.53082273 60.40235772 107.04841241 61.87530623 109.56103516 63.35693359 C110.42022836 63.77509968 111.27942156 64.19326576 112.16465092 64.62410355 C114.56103516 66.35693359 114.56103516 66.35693359 115.20420742 68.67431259 C115.21258664 69.59162281 115.22096586 70.50893303 115.229599 71.45404053 C115.25092392 72.50823181 115.27224884 73.5624231 115.29421997 74.64855957 C115.29195404 75.80496948 115.28968811 76.96137939 115.28735352 78.15283203 C115.31254311 79.98004791 115.31254311 79.98004791 115.33824158 81.84417725 C115.37765142 85.18781369 115.39413174 88.52989802 115.39732051 91.87366009 C115.40087467 93.96381723 115.41154917 96.05381177 115.42480659 98.14392853 C115.47108092 105.4399701 115.49148134 112.73555484 115.48754883 120.03173828 C115.48454794 126.82564963 115.5372361 133.61757186 115.61626714 140.41097999 C115.6817453 146.2481389 115.70846418 152.08464962 115.70527178 157.92217278 C115.70399905 161.40677023 115.71811497 164.88960209 115.77116203 168.3738327 C115.82877689 172.26448924 115.80577993 176.15244398 115.77563477 180.04345703 C115.8037323 181.19177002 115.83182983 182.34008301 115.86077881 183.52319336 C115.71014556 191.17586878 115.71014556 191.17586878 112.40312386 194.57485199 C109.85953107 196.37795373 107.3094587 197.88995152 104.56103516 199.35693359 C103.1359558 200.26118827 101.71655262 201.17455952 100.30712891 202.10302734 C98.8723369 203.00240953 97.43607991 203.89945789 95.99853516 204.79443359 C94.33661874 205.83667225 92.6751859 206.8796823 91.01416016 207.92333984 C90.13566406 208.47521973 89.25716797 209.02709961 88.35205078 209.59570312 C83.30155476 212.78274636 78.27601097 216.00874622 73.24853516 219.23193359 C65.19568908 224.39308423 57.13450526 229.54060582 49.06103516 234.66943359 C42.71008235 238.70516365 36.37272119 242.76005914 30.06103516 246.85693359 C22.82449777 251.55412305 15.55093518 256.1914722 8.26928711 260.81835938 C1.25416419 265.27678213 -5.75136188 269.74996722 -12.75146484 274.23193359 C-14.30824951 275.22858032 -14.30824951 275.22858032 -15.89648438 276.24536133 C-21.23570082 279.66405857 -26.5739312 283.08429101 -31.91162109 286.50537109 C-36.10854167 289.19518236 -40.3079272 291.88107832 -44.50927734 294.56396484 C-48.36682023 297.02749492 -52.21496922 299.50470165 -56.05615234 301.99365234 C-57.76698115 303.09408176 -59.47791249 304.1943518 -61.18896484 305.29443359 C-61.95708496 305.7968457 -62.72520508 306.29925781 -63.51660156 306.81689453 C-64.2283252 307.27225586 -64.94004883 307.72761719 -65.67333984 308.19677734 C-66.2840332 308.59243896 -66.89472656 308.98810059 -67.52392578 309.39575195 C-69.89147523 310.58405412 -71.79355193 311.12848468 -74.43896484 311.35693359 C-76.57958984 310.44482422 -76.57958984 310.44482422 -78.68896484 309.01318359 C-79.46240234 308.50916016 -80.23583984 308.00513672 -81.03271484 307.48583984 C-82.63688151 306.39990234 -84.24104818 305.31396484 -85.84521484 304.22802734 C-86.61865234 303.72400391 -87.39208984 303.21998047 -88.18896484 302.70068359 C-88.88505859 302.22824219 -89.58115234 301.75580078 -90.29833984 301.26904297 C-93.10690262 300.07232872 -94.56281943 300.44053734 -97.43896484 301.35693359 C-99.45704034 302.66274715 -101.45949892 303.99330151 -103.43896484 305.35693359 C-104.09896484 305.35693359 -104.75896484 305.35693359 -105.43896484 305.35693359 C-105.24173828 306.60087891 -105.04451172 307.84482422 -104.84130859 309.12646484 C-104.27058778 314.307735 -103.80243973 319.33320621 -105.43896484 324.35693359 C-109.24451279 329.05080481 -114.84428548 331.64839318 -120.20458984 334.21533203 C-122.50464878 335.39049326 -124.55846896 336.75178955 -126.68896484 338.20849609 C-129.20316931 339.80394721 -130.08599754 340.35590603 -133.12255859 340.36474609 C-136.70267708 338.80712287 -139.8000112 336.70101045 -143.03662109 334.53662109 C-145.27333689 333.20262939 -145.27333689 333.20262939 -147.31005859 333.42724609 C-148.01259766 333.73404297 -148.71513672 334.04083984 -149.43896484 334.35693359 C-150.67517578 334.75654297 -151.91138672 335.15615234 -153.18505859 335.56787109 C-155.1112808 336.56775247 -155.1112808 336.56775247 -156.43896484 338.35693359 C-157.13994492 342.90335828 -156.73306357 347.40171788 -156.50146484 351.98193359 C-156.40879558 366.13092673 -156.40879558 366.13092673 -159.99755859 370.04052734 C-162.85168919 372.29300619 -166.01959878 373.84797151 -169.32421875 375.33642578 C-173.16024249 377.18756631 -176.59744829 379.67397448 -180.12646484 382.04443359 C-181.5586696 382.9665953 -182.99351161 383.8846759 -184.43115234 384.79833984 C-186.90520538 386.37406903 -189.37023911 387.96125087 -191.82177734 389.57177734 C-192.78857422 390.20212891 -193.75537109 390.83248047 -194.75146484 391.48193359 C-195.57259766 392.02076172 -196.39373047 392.55958984 -197.23974609 393.11474609 C-199.4743 394.376892 -200.89746055 395.05692465 -203.43896484 395.35693359 C-205.77539062 394.33154297 -205.77539062 394.33154297 -208.38427734 392.70068359 C-209.36662354 392.09724121 -210.34896973 391.49379883 -211.36108398 390.87207031 C-212.41803467 390.2070752 -213.47498535 389.54208008 -214.56396484 388.85693359 C-216.81396548 387.47193578 -219.06522406 386.08916674 -221.31787109 384.70849609 C-221.89816574 384.35111359 -222.47846039 383.99373108 -223.07633972 383.6255188 C-230.54011963 379.04006424 -238.15339293 374.71729124 -245.7578125 370.37060547 C-257.96643306 363.37441602 -257.96643306 363.37441602 -262.43896484 360.35693359 C-262.43896484 359.69693359 -262.43896484 359.03693359 -262.43896484 358.35693359 C-260.83422852 357.15185547 -260.83422852 357.15185547 -258.60693359 355.82568359 C-257.80835938 355.34486328 -257.00978516 354.86404297 -256.18701172 354.36865234 C-255.34203125 353.86978516 -254.49705078 353.37091797 -253.62646484 352.85693359 C-251.9739107 351.86770165 -250.32155882 350.87813172 -248.66943359 349.88818359 C-247.93104248 349.45054687 -247.19265137 349.01291016 -246.43188477 348.56201172 C-244.73952258 347.53867474 -243.08451304 346.45396572 -241.43896484 345.35693359 C-241.00102958 343.09876238 -241.00102958 343.09876238 -241.09838867 340.44824219 C-241.09861526 339.4273349 -241.09884186 338.40642761 -241.09907532 337.35458374 C-241.11455917 336.24934357 -241.13004303 335.14410339 -241.14599609 334.00537109 C-241.15024094 332.8762027 -241.15448578 331.7470343 -241.15885925 330.58364868 C-241.17569353 326.96617087 -241.21335509 323.3492439 -241.25146484 319.73193359 C-241.26650551 317.28402495 -241.28019498 314.83610761 -241.29248047 312.38818359 C-241.32561257 306.377578 -241.37585905 300.36729514 -241.43896484 294.35693359 C-242.5617408 293.74544968 -242.5617408 293.74544968 -243.7071991 293.12161255 C-245.18546928 292.31601395 -245.18546928 292.31601395 -246.69360352 291.49414062 C-247.66899582 290.96273468 -248.64438812 290.43132874 -249.64933777 289.88381958 C-253.03525605 288.03055711 -256.39771279 286.1428373 -259.75146484 284.23193359 C-260.88197266 283.58998047 -262.01248047 282.94802734 -263.17724609 282.28662109 C-265.35429872 280.99864026 -267.49643776 279.64977309 -269.59912109 278.24365234 C-271.89665786 276.71722833 -274.07556862 275.45803588 -276.56396484 274.29443359 C-278.91435571 273.1747767 -280.52767618 272.27897515 -282.50146484 270.54443359 C-284.94545486 269.04650423 -286.59487558 269.26938325 -289.36743164 269.73022461 C-293.6391288 271.02255774 -297.16622662 273.72950215 -300.81396484 276.23193359 C-302.58336389 277.41312124 -304.35289762 278.59410715 -306.12255859 279.77490234 C-307.0079834 280.37222168 -307.8934082 280.96954102 -308.80566406 281.58496094 C-312.80476487 284.27599317 -316.83687733 286.91473083 -320.87646484 289.54443359 C-321.56724121 290.00124512 -322.25801758 290.45805664 -322.96972656 290.92871094 C-323.61828613 291.3523291 -324.2668457 291.77594727 -324.93505859 292.21240234 C-325.49378662 292.58002686 -326.05251465 292.94765137 -326.62817383 293.32641602 C-328.81910782 294.57327221 -331.09431384 295.43787261 -333.43896484 296.35693359 C-333.88087991 285.61363496 -334.21758284 274.87252257 -334.42339611 264.12195969 C-334.5222343 259.12831657 -334.65598485 254.14092277 -334.87231445 249.15087891 C-336.23673838 216.86349643 -336.23673838 216.86349643 -331.59332275 209.3840332 C-327.25311817 205.08415586 -322.40439732 202.77133812 -316.59414673 201.04455566 C-314.23041775 200.39160727 -314.23041775 200.39160727 -311.64282227 198.57470703 C-309.43896484 197.35693359 -309.43896484 197.35693359 -306.89428711 197.52441406 C-304.42789151 198.3606882 -302.38693286 199.34182805 -300.15380859 200.67724609 C-298.98688477 201.3559375 -298.98688477 201.3559375 -297.79638672 202.04833984 C-296.17678298 203.00781454 -294.55960419 203.97139387 -292.94482422 204.93896484 C-292.16816406 205.38884766 -291.39150391 205.83873047 -290.59130859 206.30224609 C-289.53931274 206.92897217 -289.53931274 206.92897217 -288.46606445 207.56835938 C-285.86915855 208.57859737 -285.0083598 208.42383297 -282.43896484 207.35693359 C-279.09881992 205.93440505 -279.09881992 205.93440505 -276.43896484 203.35693359 C-276.0054399 200.35193891 -275.9425732 198.15558947 -276.16162109 195.18896484 C-276.20655889 193.55687342 -276.24878971 191.92470564 -276.28857422 190.29248047 C-276.38337505 187.73285801 -276.50075851 185.1802147 -276.66821289 182.62426758 C-277.50113622 168.78379113 -277.50113622 168.78379113 -274.01287842 164.6786499 C-268.32525833 159.96888005 -261.75872797 157.19711634 -254.43896484 156.35693359 C-254.59606934 155.36064941 -254.59606934 155.36064941 -254.75634766 154.34423828 C-255.75927053 147.02417085 -256.58913446 139.52945962 -254.43896484 132.35693359 C-250.20057172 126.91892384 -243.39003198 124.4527291 -237.25244141 121.70214844 C-232.74406357 119.54654605 -228.69570551 116.7762274 -224.56396484 113.98193359 C-222.89904554 112.88682449 -221.2323559 111.79440244 -219.56396484 110.70458984 C-218.30712891 109.88112061 -218.30712891 109.88112061 -217.02490234 109.04101562 C-212.55965893 106.13304272 -208.06226198 103.27591194 -203.56396484 100.41943359 C-202.19135498 99.54762451 -202.19135498 99.54762451 -200.79101562 98.65820312 C-198.93457351 97.47955627 -197.07796505 96.30117138 -195.22119141 95.12304688 C-190.62449078 92.20513425 -186.03190833 89.28075512 -181.43896484 86.35693359 C-175.97484192 82.87923644 -170.51038679 79.40206602 -165.04443359 75.92724609 C-155.26952233 69.71190297 -145.50480924 63.48107352 -135.75146484 57.23193359 C-127.67492993 52.05792267 -119.58438999 46.90754385 -111.46948242 41.79394531 C-104.51490827 37.4103933 -97.58053484 32.99544145 -90.6472168 28.57836914 C-86.20740829 25.75111599 -81.76506215 22.92810654 -77.31396484 20.11865234 C-76.09217529 19.34739014 -76.09217529 19.34739014 -74.84570312 18.56054688 C-73.26223828 17.56305076 -71.67731389 16.56786722 -70.09082031 15.57519531 C-66.453609 13.29367892 -62.85607184 10.97900265 -59.32177734 8.54052734 C-58.68369141 8.10716064 -58.04560547 7.67379395 -57.38818359 7.22729492 C-55.69000498 6.06797893 -54.00530181 4.88899156 -52.32177734 3.70849609 C-49.43896484 2.35693359 -49.43896484 2.35693359 -47.08740234 2.80224609 C-42.55599242 5.46227729 -38.08418925 8.2138345 -33.67724609 11.07568359 C-32.94892578 11.52427734 -32.22060547 11.97287109 -31.47021484 12.43505859 C-30.81601562 12.85174805 -30.16181641 13.2684375 -29.48779297 13.69775391 C-27.3794837 14.58357265 -27.3794837 14.58357265 -24.97998047 13.67138672 C-22.41964323 12.34693863 -20.11116724 10.90227552 -17.75146484 9.24755859 C-16.88779297 8.65845703 -16.02412109 8.06935547 -15.13427734 7.46240234 C-13.33007333 6.22037784 -11.5331966 4.96764499 -9.74365234 3.70458984 C-8.87998047 3.12064453 -8.01630859 2.53669922 -7.12646484 1.93505859 C-6.34658203 1.39268555 -5.56669922 0.8503125 -4.76318359 0.29150391 C-2.43896484 -0.64306641 -2.43896484 -0.64306641 0 0 Z " fill="#DF883B" transform="translate(745.43896484375,259.64306640625)"/>
<path d="M0 0 C2.7640236 1.46448457 5.50989821 2.93583175 8.22509766 4.48974609 C9.33304688 5.12267578 10.44099609 5.75560547 11.58251953 6.40771484 C12.78380283 7.09892748 13.98497159 7.79033921 15.18603516 8.48193359 C16.44186515 9.20203692 17.69772503 9.92208813 18.95361328 10.64208984 C28.49148769 16.12071465 37.95534716 21.7189333 47.40454102 27.34912109 C55.47171273 32.14597605 63.5920057 36.83954208 71.74853516 41.48193359 C80.84725407 46.66399173 89.93954936 51.85564923 98.99853516 57.10693359 C99.99328857 57.67943848 100.98804199 58.25194336 102.01293945 58.84179688 C106.45580595 61.42483171 110.67567704 63.95827639 114.56103516 67.35693359 C113.99707031 67.69426514 113.43310547 68.03159668 112.85205078 68.37915039 C110.25456372 69.93344112 107.65779609 71.48893003 105.06103516 73.04443359 C104.17416016 73.57488281 103.28728516 74.10533203 102.37353516 74.65185547 C99.76589278 76.21452351 97.16281287 77.78452434 94.56103516 79.35693359 C93.76697266 79.83211426 92.97291016 80.30729492 92.15478516 80.796875 C91.07197266 81.45502197 91.07197266 81.45502197 89.96728516 82.12646484 C89.33113281 82.51036377 88.69498047 82.8942627 88.03955078 83.28979492 C86.3947554 84.30322527 86.3947554 84.30322527 85.56103516 86.35693359 C86.21458984 86.59154297 86.86814453 86.82615234 87.54150391 87.06787109 C91.49227667 88.75448819 95.14807774 90.85119834 98.87353516 92.98193359 C99.61410156 93.40216797 100.35466797 93.82240234 101.11767578 94.25537109 C102.93372527 95.28641854 104.74760048 96.32129405 106.56103516 97.35693359 C106.56103516 98.01693359 106.56103516 98.67693359 106.56103516 99.35693359 C104.25244141 101.12646484 104.25244141 101.12646484 101.12353516 103.16943359 C100.57076904 103.53125732 100.01800293 103.89308105 99.44848633 104.26586914 C96.48230119 106.18728984 93.48845688 108.00160149 90.37353516 109.66943359 C84.50512447 112.83418364 78.99704279 116.5618008 73.41650391 120.20068359 C68.19665526 123.60255163 62.94413726 126.9520848 57.68603516 130.29443359 C56.7546875 130.88651611 55.82333984 131.47859863 54.86376953 132.08862305 C44.268733 138.81897111 33.65463017 145.51911571 23.03369141 152.20849609 C14.12257395 157.82459459 5.23891664 163.48138297 -3.62646484 169.16943359 C-13.96945592 175.80288637 -24.37089262 182.3377558 -34.79833984 188.83740234 C-48.66194043 197.47986019 -62.44115687 206.25635181 -76.22021484 215.03271484 C-77.06841797 215.56848145 -77.91662109 216.10424805 -78.79052734 216.65625 C-80.67684726 217.86754282 -82.54493067 219.10743646 -84.39990234 220.36621094 C-85.37185547 221.0167041 -86.34380859 221.66719727 -87.34521484 222.33740234 C-88.66489258 223.23881958 -88.66489258 223.23881958 -90.01123047 224.15844727 C-92.43896484 225.35693359 -92.43896484 225.35693359 -94.48754883 225.19165039 C-96.67290476 224.25686596 -98.69761629 223.21309643 -100.75537109 222.02099609 C-101.59229492 221.53937012 -102.42921875 221.05774414 -103.29150391 220.56152344 C-104.18579102 220.04025879 -105.08007812 219.51899414 -106.00146484 218.98193359 C-106.93313477 218.44391113 -107.86480469 217.90588867 -108.82470703 217.3515625 C-110.75677092 216.2350481 -112.68758792 215.1163734 -114.6171875 213.99560547 C-117.22552972 212.48088035 -119.83725168 210.9722302 -122.45068359 209.46630859 C-130.55010519 204.79534946 -138.62415067 200.08255716 -146.67871094 195.3347168 C-160.82000159 187.00244333 -175.00919727 178.75127701 -189.22021484 170.53857422 C-194.56958485 167.4451254 -199.90777488 164.33292913 -205.24267578 161.21459961 C-214.90097275 155.56933271 -224.58224849 149.96836989 -234.30249023 144.43041992 C-240.70646913 140.7810685 -247.08137201 137.08672139 -253.43896484 133.35693359 C-253.43896484 140.94693359 -253.43896484 148.53693359 -253.43896484 156.35693359 C-253.76896484 156.35693359 -254.09896484 156.35693359 -254.43896484 156.35693359 C-255.68605516 148.4484624 -256.77215108 140.13996563 -254.43896484 132.35693359 C-250.20057172 126.91892384 -243.39003198 124.4527291 -237.25244141 121.70214844 C-232.74406357 119.54654605 -228.69570551 116.7762274 -224.56396484 113.98193359 C-222.89904554 112.88682449 -221.2323559 111.79440244 -219.56396484 110.70458984 C-218.30712891 109.88112061 -218.30712891 109.88112061 -217.02490234 109.04101562 C-212.55965893 106.13304272 -208.06226198 103.27591194 -203.56396484 100.41943359 C-202.6488916 99.83822754 -201.73381836 99.25702148 -200.79101562 98.65820312 C-198.93457351 97.47955627 -197.07796505 96.30117138 -195.22119141 95.12304688 C-190.62449078 92.20513425 -186.03190833 89.28075512 -181.43896484 86.35693359 C-175.97484192 82.87923644 -170.51038679 79.40206602 -165.04443359 75.92724609 C-155.26952233 69.71190297 -145.50480924 63.48107352 -135.75146484 57.23193359 C-127.67492993 52.05792267 -119.58438999 46.90754385 -111.46948242 41.79394531 C-104.51490827 37.4103933 -97.58053484 32.99544145 -90.6472168 28.57836914 C-86.20740829 25.75111599 -81.76506215 22.92810654 -77.31396484 20.11865234 C-76.49943848 19.60447754 -75.68491211 19.09030273 -74.84570312 18.56054688 C-73.26223828 17.56305076 -71.67731389 16.56786722 -70.09082031 15.57519531 C-66.453609 13.29367892 -62.85607184 10.97900265 -59.32177734 8.54052734 C-58.68369141 8.10716064 -58.04560547 7.67379395 -57.38818359 7.22729492 C-55.69000498 6.06797893 -54.00530181 4.88899156 -52.32177734 3.70849609 C-49.43896484 2.35693359 -49.43896484 2.35693359 -47.08740234 2.80224609 C-42.55599242 5.46227729 -38.08418925 8.2138345 -33.67724609 11.07568359 C-32.94892578 11.52427734 -32.22060547 11.97287109 -31.47021484 12.43505859 C-30.81601562 12.85174805 -30.16181641 13.2684375 -29.48779297 13.69775391 C-27.3794837 14.58357265 -27.3794837 14.58357265 -24.97998047 13.67138672 C-22.41964323 12.34693863 -20.11116724 10.90227552 -17.75146484 9.24755859 C-16.88779297 8.65845703 -16.02412109 8.06935547 -15.13427734 7.46240234 C-13.33007333 6.22037784 -11.5331966 4.96764499 -9.74365234 3.70458984 C-8.87998047 3.12064453 -8.01630859 2.53669922 -7.12646484 1.93505859 C-5.95664062 1.12149902 -5.95664062 1.12149902 -4.76318359 0.29150391 C-2.43896484 -0.64306641 -2.43896484 -0.64306641 0 0 Z " fill="#E19346" transform="translate(745.43896484375,259.64306640625)"/>
<path d="M0 0 C2.17578125 1.171875 2.17578125 1.171875 4.3125 2.75 C7.14314684 4.75250719 9.86296042 6.52227277 13 8 C16.90200418 9.85772709 20.35695451 12.19772748 23.921875 14.62890625 C26.51304139 16.3384916 29.20191981 17.65692151 32 19 C33.94233056 20.03263144 35.87943572 21.07512468 37.8125 22.125 C39.24529297 22.90230469 39.24529297 22.90230469 40.70703125 23.6953125 C43 25 43 25 44 26 C44.78386372 33.04909569 44.74318307 40.23079134 44.89941406 47.31567383 C44.96605117 49.71509481 45.06140413 52.11390337 45.18652344 54.51098633 C46.1785248 73.89388867 46.1785248 73.89388867 42.55664062 79.05792236 C39.09073117 82.3408747 35.18381604 84.42656056 30.79492188 86.2348938 C28.76677356 87.0503572 28.76677356 87.0503572 26.140625 88.72241211 C24 90 24 90 22 90 C22 90.66 22 91.32 22 92 C20.865625 92.598125 19.73125 93.19625 18.5625 93.8125 C11.56050918 97.7024949 4.91887419 102.16911159 -1.78125 106.55029297 C-5.18149745 108.77197754 -8.59012761 110.98062597 -12 113.1875 C-12.68433105 113.63077637 -13.36866211 114.07405273 -14.07373047 114.53076172 C-20.40826492 118.62873908 -26.76691319 122.68869914 -33.125 126.75 C-41.27748067 131.95859773 -49.40422764 137.20370033 -57.5 142.5 C-66.65862886 148.49162636 -75.86231015 154.40977838 -85.0859375 160.30078125 C-90.90235676 164.01601905 -96.71050127 167.74295454 -102.5 171.5 C-109.35483956 175.94838923 -116.23810247 180.35143406 -123.125 184.75 C-132.22913813 190.56653269 -141.29398182 196.43962842 -150.33447266 202.35449219 C-157.3621119 206.94657273 -164.4236982 211.48332796 -171.5 216 C-181.79308334 222.57070392 -192.04001162 229.20948019 -202.26171875 235.890625 C-203.09751465 236.43009766 -203.93331055 236.96957031 -204.79443359 237.52539062 C-207.17849105 239.07464428 -207.17849105 239.07464428 -209.95703125 241.359375 C-213.73193815 243.39462647 -216.72230827 243.39044861 -220.94970703 243.63671875 C-226.56428111 244.30539861 -231.68812527 246.48028822 -236.9375 248.5 C-239.13358483 249.32432935 -241.33017832 250.14730521 -243.52734375 250.96875 C-244.48374756 251.33419922 -245.44015137 251.69964844 -246.42553711 252.07617188 C-250.91227981 253.68620833 -250.91227981 253.68620833 -253 254 C-255.37731171 252.82493741 -257.47430807 251.62065623 -259.6875 250.1875 C-261.02146551 249.35439514 -262.35612957 248.52240799 -263.69140625 247.69140625 C-264.39023926 247.25199707 -265.08907227 246.81258789 -265.80908203 246.35986328 C-269.53948679 244.04446831 -273.33382649 241.83895949 -277.125 239.625 C-278.5236774 238.80509661 -279.92212749 237.98480528 -281.3203125 237.1640625 C-282.20614014 236.64513428 -282.20614014 236.64513428 -283.10986328 236.11572266 C-283.7336084 235.74753418 -284.35735352 235.3793457 -285 235 C-285.88212158 234.58999756 -286.76424316 234.17999512 -287.6730957 233.75756836 C-290 232 -290 232 -290.75805664 229.15600586 C-290.92356843 225.41140114 -291.0517264 221.68625579 -291.0625 217.9375 C-291.06828568 216.93949371 -291.06828568 216.93949371 -291.07418823 215.92132568 C-291.03634051 203.40875369 -291.03634051 203.40875369 -287.625 199.10546875 C-284.53732931 196.60461302 -281.54278173 194.78631233 -278 193 C-269.85789464 187.36315783 -265.00841939 181.22850082 -260.640625 172.3515625 C-254.60400374 160.20226007 -248.22657758 154.40317888 -236.28466797 148.22412109 C-232.69379004 146.30013499 -229.32951862 144.06327871 -225.9375 141.8125 C-224.5347269 140.89709871 -223.13104423 139.9830901 -221.7265625 139.0703125 C-220.60749512 138.34183105 -220.60749512 138.34183105 -219.46582031 137.59863281 C-214.59481656 134.44067909 -209.70273687 131.31555311 -204.8125 128.1875 C-203.74894287 127.50703613 -202.68538574 126.82657227 -201.58959961 126.12548828 C-193.65090803 121.04929124 -185.70021949 115.99211842 -177.74731445 110.93823242 C-172.31553166 107.48317007 -166.89972512 104.00492654 -161.5 100.5 C-154.26346262 95.80281054 -146.98990002 91.16546139 -139.70825195 86.53857422 C-129.52642417 80.06756962 -119.36747071 73.56099983 -109.20849609 67.05419922 C-105.95883234 64.97364293 -102.70809214 62.89477861 -99.45703125 60.81640625 C-97.30464961 59.44016343 -95.1523054 58.06386205 -93 56.6875 C-91.43560181 55.68710693 -91.43560181 55.68710693 -89.83959961 54.66650391 C-83.79592164 50.79866521 -77.76710607 46.90900877 -71.75 43 C-66.71083485 39.73341464 -61.65875268 36.48945886 -56.5625 33.3125 C-55.53253906 32.66925781 -54.50257813 32.02601563 -53.44140625 31.36328125 C-51 30 -51 30 -49 30 C-49 29.34 -49 28.68 -49 28 C-46.71699635 26.42985886 -44.43637045 24.98418799 -42.0625 23.5625 C-40.59034522 22.66276699 -39.11901811 21.76167862 -37.6484375 20.859375 C-36.49939941 20.15651367 -36.49939941 20.15651367 -35.32714844 19.43945312 C-31.57736297 17.12003064 -27.883085 14.71698718 -24.1875 12.3125 C-23.12172729 11.62365723 -23.12172729 11.62365723 -22.03442383 10.92089844 C-18.89202903 8.8890234 -15.76009708 6.84615944 -12.66015625 4.75 C-11.69980469 4.110625 -10.73945313 3.47125 -9.75 2.8125 C-8.94046875 2.26207031 -8.1309375 1.71164062 -7.296875 1.14453125 C-4.56516726 -0.21667686 -3.01610001 -0.42406461 0 0 Z " fill="#CCCBCB" transform="translate(461,528)"/>
<path d="M0 0 C0.23381212 16.17683687 0.41004308 32.35312411 0.51812172 48.53124332 C0.5696435 56.04345815 0.6398551 63.55462201 0.75439453 71.06616211 C0.85420446 77.614869 0.91861305 84.16281477 0.94088495 90.71226114 C0.95390157 94.17926597 0.98438367 97.64409386 1.05730057 101.11039925 C1.13812616 104.98424552 1.1398909 108.85598092 1.13525391 112.73071289 C1.18918304 114.44622597 1.18918304 114.44622597 1.24420166 116.19639587 C1.14544566 123.82144424 1.14544566 123.82144424 -2.15301895 127.21525383 C-4.69810933 129.01936925 -7.2499994 130.53210682 -10 132 C-11.42508604 132.90424415 -12.8444931 133.81760989 -14.25390625 134.74609375 C-15.68869826 135.64547593 -17.12495525 136.5425243 -18.5625 137.4375 C-20.22441642 138.47973866 -21.88584925 139.5227487 -23.546875 140.56640625 C-24.42537109 141.11828613 -25.30386719 141.67016602 -26.20898438 142.23876953 C-31.2594804 145.42581277 -36.28502419 148.65181263 -41.3125 151.875 C-49.36534607 157.03615064 -57.4265299 162.18367223 -65.5 167.3125 C-71.85095281 171.34823006 -78.18831396 175.40312555 -84.5 179.5 C-91.73653738 184.19718946 -99.01009998 188.83453861 -106.29174805 193.46142578 C-113.30687097 197.91984854 -120.31239704 202.39303363 -127.3125 206.875 C-128.86928467 207.87164673 -128.86928467 207.87164673 -130.45751953 208.88842773 C-135.79673597 212.30712497 -141.13496636 215.72735742 -146.47265625 219.1484375 C-150.66957682 221.83824877 -154.86896236 224.52414473 -159.0703125 227.20703125 C-162.92785539 229.67056133 -166.77600438 232.14776806 -170.6171875 234.63671875 C-172.32801631 235.73714817 -174.03894764 236.83741821 -175.75 237.9375 C-176.51812012 238.43991211 -177.28624023 238.94232422 -178.07763672 239.45996094 C-178.78936035 239.91532227 -179.50108398 240.37068359 -180.234375 240.83984375 C-181.15041504 241.43333618 -181.15041504 241.43333618 -182.08496094 242.03881836 C-184.45251039 243.22712053 -186.35458708 243.77155108 -189 244 C-191.140625 243.08789062 -191.140625 243.08789062 -193.25 241.65625 C-194.0234375 241.15222656 -194.796875 240.64820313 -195.59375 240.12890625 C-197.19791667 239.04296875 -198.80208333 237.95703125 -200.40625 236.87109375 C-201.1796875 236.36707031 -201.953125 235.86304688 -202.75 235.34375 C-203.44609375 234.87130859 -204.1421875 234.39886719 -204.859375 233.91210938 C-207.66793778 232.71539513 -209.12385459 233.08360375 -212 234 C-214.0180755 235.30581356 -216.02053408 236.63636792 -218 238 C-218.66 238 -219.32 238 -220 238 C-219.80277344 239.24394531 -219.60554687 240.48789062 -219.40234375 241.76953125 C-218.83162294 246.9508014 -218.36347488 251.97627262 -220 257 C-223.80554794 261.69387122 -229.40532064 264.29145958 -234.765625 266.85839844 C-237.06568394 268.03355967 -239.11950411 269.39485596 -241.25 270.8515625 C-243.73408914 272.42391848 -244.64825729 272.99583736 -247.640625 273.03125 C-250.54631434 271.7612136 -253.10185382 270.24634505 -255.75 268.5 C-256.71421875 267.8709375 -257.6784375 267.241875 -258.671875 266.59375 C-261 265 -261 265 -262 264 C-262.12406815 261.79205589 -262.17802278 259.58015514 -262.20532227 257.36889648 C-262.21522186 256.67624695 -262.22512146 255.98359741 -262.23532104 255.2699585 C-262.2670203 252.97037221 -262.29172651 250.67076523 -262.31640625 248.37109375 C-262.33696852 246.78067982 -262.35796479 245.19027145 -262.37937927 243.59986877 C-262.43467509 239.40610237 -262.4840511 235.21228605 -262.53222656 231.01843262 C-262.58238691 226.74206072 -262.63810144 222.46576166 -262.69335938 218.18945312 C-262.80103274 209.79303027 -262.90245716 201.39654662 -263 193 C-264.65 192.34 -266.3 191.68 -268 191 C-268 190.34 -268 189.68 -268 189 C-270.30002831 187.84721473 -272.6034608 186.70191467 -274.91015625 185.5625 C-275.95042969 185.046875 -276.99070312 184.53125 -278.0625 184 C-279.10535156 183.484375 -280.14820313 182.96875 -281.22265625 182.4375 C-284 181 -284 181 -287 179 C-287 178.34 -287 177.68 -287 177 C-287.78375 176.855625 -288.5675 176.71125 -289.375 176.5625 C-292 176 -292 176 -294 175 C-294 174.34 -294 173.68 -294 173 C-294.53367187 172.85304688 -295.06734375 172.70609375 -295.6171875 172.5546875 C-301.92462028 170.65591016 -307.70589093 167.96781869 -313 164 C-313 163.34 -313 162.68 -313 162 C-313.72018311 161.89115479 -314.44036621 161.78230957 -315.18237305 161.67016602 C-318.22390225 160.94674537 -320.38595275 159.84867785 -323.08203125 158.27734375 C-324.47905273 157.47006836 -324.47905273 157.47006836 -325.90429688 156.64648438 C-326.86400391 156.08251953 -327.82371094 155.51855469 -328.8125 154.9375 C-329.79154297 154.36966797 -330.77058594 153.80183594 -331.77929688 153.21679688 C-334.18993348 151.81745173 -336.5965851 150.41170071 -339 149 C-339 148.34 -339 147.68 -339 147 C-339.73210693 146.88519287 -340.46421387 146.77038574 -341.21850586 146.65209961 C-344.06380807 145.98504069 -346.00302161 145.05437712 -348.50390625 143.56640625 C-349.73850586 142.8403418 -349.73850586 142.8403418 -350.99804688 142.09960938 C-351.84431641 141.59236328 -352.69058594 141.08511719 -353.5625 140.5625 C-355.25074665 139.56286343 -356.93952973 138.56413215 -358.62890625 137.56640625 C-359.7437439 136.90040405 -359.7437439 136.90040405 -360.88110352 136.22094727 C-362.88745504 135.06485048 -364.91801348 134.01229346 -367 133 C-367 132.34 -367 131.68 -367 131 C-370.32902155 129.57327648 -373.37824075 128.29522346 -377 128 C-379.94529299 129.39260444 -379.94529299 129.39260444 -382.75 131.4375 C-387.96477495 135 -387.96477495 135 -389 135 C-389 123.45 -389 111.9 -389 100 C-380.55860543 104.10864338 -372.33913102 108.25413996 -364.3359375 113.15893555 C-358.10240577 116.97157811 -351.7738477 120.61134174 -345.4375 124.25 C-336.31784861 129.49412665 -327.23380495 134.79245982 -318.18481445 140.1574707 C-311.51369323 144.11092877 -304.82476257 148.03278362 -298.125 151.9375 C-297.13508057 152.51459717 -296.14516113 153.09169434 -295.12524414 153.6862793 C-289.95416645 156.69956271 -284.78066775 159.7086446 -279.60546875 162.71484375 C-277.50778463 163.93484792 -275.41012791 165.15489919 -273.3125 166.375 C-271.80586792 167.24910522 -271.80586792 167.24910522 -270.26879883 168.14086914 C-266.06686561 170.58711605 -261.88194148 173.04306426 -257.78125 175.65625 C-257.18014404 176.03861816 -256.57903809 176.42098633 -255.9597168 176.81494141 C-254.46165725 177.77901056 -252.97433202 178.75970857 -251.48828125 179.7421875 C-248.56983289 181.21744711 -247.22223437 181.57522489 -244 181 C-241.65371086 179.66432911 -239.55717529 178.31481657 -237.375 176.75 C-236.05470449 175.84053001 -234.73301802 174.93307695 -233.41015625 174.02734375 C-232.35272217 173.29813721 -232.35272217 173.29813721 -231.27392578 172.55419922 C-227.16104545 169.74309806 -222.99654328 167.01618395 -218.8125 164.3125 C-217.99894043 163.77141602 -217.18538086 163.23033203 -216.34716797 162.67285156 C-215.57904785 162.17881836 -214.81092773 161.68478516 -214.01953125 161.17578125 C-213.33995361 160.73145752 -212.66037598 160.28713379 -211.96020508 159.8293457 C-209.4580096 158.77068858 -208.49972079 158.99385175 -206 160 C-203.97290039 161.23095703 -203.97290039 161.23095703 -201.84765625 162.7578125 C-201.07099609 163.30050781 -200.29433594 163.84320313 -199.49414062 164.40234375 C-197.87194735 165.55156019 -196.25473629 166.70784161 -194.64257812 167.87109375 C-193.86462891 168.41121094 -193.08667969 168.95132813 -192.28515625 169.5078125 C-191.58269775 170.00941895 -190.88023926 170.51102539 -190.15649414 171.02783203 C-187.31860607 172.30717883 -185.93111493 171.94204079 -183 171 C-181.00666112 170.03539774 -181.00666112 170.03539774 -179.12890625 168.76953125 C-178.40147217 168.30369629 -177.67403809 167.83786133 -176.92456055 167.35791016 C-176.14508057 166.8479248 -175.36560059 166.33793945 -174.5625 165.8125 C-172.85157154 164.71222553 -171.14063367 163.61196569 -169.4296875 162.51171875 C-168.53862305 161.93470215 -167.64755859 161.35768555 -166.72949219 160.76318359 C-162.23196752 157.8578953 -157.7077528 154.99473921 -153.1875 152.125 C-151.33050834 150.9430552 -149.47373919 149.76076075 -147.6171875 148.578125 C-146.22838379 147.69350586 -146.22838379 147.69350586 -144.81152344 146.79101562 C-143.41981934 145.90446289 -143.41981934 145.90446289 -142 145 C-130.73971766 137.82689899 -119.4754005 130.66080996 -108.18286133 123.53857422 C-102.11212494 119.70769308 -96.05440494 115.85663068 -90 112 C-82.40541918 107.1622837 -74.79984917 102.34256929 -67.18359375 97.5390625 C-60.17753164 93.11787473 -53.1891787 88.66909797 -46.20239258 84.2175293 C-40.99529041 80.90133823 -35.78148776 77.59625263 -30.55786133 74.30615234 C-27.47436251 72.36312569 -24.39448067 70.41442109 -21.31542969 68.46435547 C-19.72107646 67.45603296 -18.12528746 66.44997827 -16.52832031 65.44580078 C-14.11865728 63.92900818 -11.71501068 62.40308884 -9.3125 60.875 C-8.20588013 60.18241089 -8.20588013 60.18241089 -7.0769043 59.47583008 C-5.34925237 58.37062414 -3.66875558 57.19227352 -2 56 C-2 55.34 -2 54.68 -2 54 C-3.10859375 53.38511719 -4.2171875 52.77023437 -5.359375 52.13671875 C-6.82300189 51.32046529 -8.28653884 50.50405056 -9.75 49.6875 C-10.84441406 49.08131836 -10.84441406 49.08131836 -11.9609375 48.46289062 C-19.48685025 44.25522123 -19.48685025 44.25522123 -22 42 C-22 41.34 -22 40.68 -22 40 C-20.09625645 38.55036041 -18.12532841 37.18815677 -16.125 35.875 C-15.03445313 35.15054688 -13.94390625 34.42609375 -12.8203125 33.6796875 C-10 32 -10 32 -8 32 C-8 31.34 -8 30.68 -8 30 C-8.68835938 29.7421875 -9.37671875 29.484375 -10.0859375 29.21875 C-13.38943517 27.83712631 -16.47780026 26.20744629 -19.625 24.5 C-21.31496094 23.58734375 -21.31496094 23.58734375 -23.0390625 22.65625 C-26 21 -26 21 -29 19 C-27.79278794 15.37836381 -26.95322046 15.09045736 -23.73828125 13.22265625 C-22.86623047 12.70896484 -21.99417969 12.19527344 -21.09570312 11.66601562 C-20.17724609 11.13685547 -19.25878906 10.60769531 -18.3125 10.0625 C-16.51616229 9.01302672 -14.72057111 7.96227444 -12.92578125 6.91015625 C-11.64888428 6.16596436 -11.64888428 6.16596436 -10.34619141 5.40673828 C-8.33946897 4.20354008 -6.40532202 2.94936533 -4.48046875 1.62109375 C-2 0 -2 0 0 0 Z " fill="#C76622" transform="translate(860,327)"/>
<path d="M0 0 C0.99 0.33 1.98 0.66 3 1 C3.38229702 8.07830306 3.643741 15.15392954 3.82397461 22.24023438 C3.8991306 24.64651909 4.00129972 27.05212488 4.1315918 29.45605469 C5.15908083 48.90984702 5.15908083 48.90984702 1.55987549 54.06115723 C-1.90479824 57.34731017 -5.81286965 59.43041973 -10.20407104 61.23590088 C-12.23329397 62.04999832 -12.23329397 62.04999832 -14.85961914 63.72216797 C-17 65 -17 65 -19 65 C-19 65.66 -19 66.32 -19 67 C-20.134375 67.598125 -21.26875 68.19625 -22.4375 68.8125 C-29.43949082 72.7024949 -36.08112581 77.16911159 -42.78125 81.55029297 C-46.18149745 83.77197754 -49.59012761 85.98062597 -53 88.1875 C-53.68433105 88.63077637 -54.36866211 89.07405273 -55.07373047 89.53076172 C-61.40826492 93.62873908 -67.76691319 97.68869914 -74.125 101.75 C-82.27748067 106.95859773 -90.40422764 112.20370033 -98.5 117.5 C-107.65862886 123.49162636 -116.86231015 129.40977838 -126.0859375 135.30078125 C-131.90235676 139.01601905 -137.71050127 142.74295454 -143.5 146.5 C-150.35483956 150.94838923 -157.23810247 155.35143406 -164.125 159.75 C-173.22913813 165.56653269 -182.29398182 171.43962842 -191.33447266 177.35449219 C-198.3621119 181.94657273 -205.4236982 186.48332796 -212.5 191 C-222.79308334 197.57070392 -233.04001162 204.20948019 -243.26171875 210.890625 C-244.09751465 211.43009766 -244.93331055 211.96957031 -245.79443359 212.52539062 C-248.17849105 214.07464428 -248.17849105 214.07464428 -250.95703125 216.359375 C-254.73193815 218.39462647 -257.72230827 218.39044861 -261.94970703 218.63671875 C-267.56428111 219.30539861 -272.68812527 221.48028822 -277.9375 223.5 C-280.13358483 224.32432935 -282.33017832 225.14730521 -284.52734375 225.96875 C-285.48374756 226.33419922 -286.44015137 226.69964844 -287.42553711 227.07617188 C-291.91227981 228.68620833 -291.91227981 228.68620833 -294 229 C-296.37731536 227.82493561 -298.47438622 226.62079328 -300.6875 225.1875 C-302.02010829 224.35430799 -303.35347284 223.52232461 -304.6875 222.69140625 C-305.38617188 222.25199707 -306.08484375 221.81258789 -306.8046875 221.35986328 C-311.26574236 218.59650968 -315.82377359 215.99445002 -320.36401367 213.36401367 C-321.04181885 212.96802979 -321.71962402 212.5720459 -322.41796875 212.1640625 C-323.01375732 211.81811035 -323.6095459 211.4721582 -324.22338867 211.11572266 C-324.80967041 210.74753418 -325.39595215 210.3793457 -326 210 C-327.08873413 209.38910522 -327.08873413 209.38910522 -328.19946289 208.76586914 C-330 207 -330 207 -330.45410156 204.08911133 C-330.4331543 202.9317749 -330.41220703 201.77443848 -330.390625 200.58203125 C-330.37773437 199.32841797 -330.36484375 198.07480469 -330.3515625 196.78320312 C-330.31804687 195.47287109 -330.28453125 194.16253906 -330.25 192.8125 C-330.22993307 191.4772399 -330.21168262 190.14195117 -330.1953125 188.80664062 C-330.14809803 185.53703854 -330.08225184 182.26887808 -330 179 C-326.38271869 180.36472008 -323.08435685 181.98532493 -319.7265625 183.8984375 C-318.7365625 184.46046875 -317.7465625 185.0225 -316.7265625 185.6015625 C-315.70304688 186.18679688 -314.67953125 186.77203125 -313.625 187.375 C-312.60921875 187.9525 -311.5934375 188.53 -310.546875 189.125 C-309.05800781 189.97191406 -309.05800781 189.97191406 -307.5390625 190.8359375 C-306.57774414 191.37831055 -305.61642578 191.92068359 -304.62597656 192.47949219 C-303.04706786 193.39372084 -301.48462134 194.3387338 -299.95996094 195.34082031 C-297.09130925 197.20360195 -295.27507872 198.0006767 -291.82421875 197.9921875 C-271.95497339 193.07750936 -271.95497339 193.07750936 -257.2097168 179.89404297 C-254.95958005 176.01096705 -252.96059626 172.03487563 -251 168 C-247.40823906 160.67820375 -242.63350991 157.21250438 -235.75 153 C-234.2350293 152.04287109 -234.2350293 152.04287109 -232.68945312 151.06640625 C-230.55048012 149.7158916 -228.4071393 148.37227315 -226.25976562 147.03515625 C-220.97664379 143.73676622 -215.7419001 140.36334748 -210.5 137 C-208.39585816 135.65621112 -206.29169154 134.31246104 -204.1875 132.96875 C-198.26868658 129.18070941 -192.38039531 125.34732841 -186.5 121.5 C-177.34139857 115.50833236 -168.13768929 109.59022126 -158.9140625 103.69921875 C-153.09764194 99.98398011 -147.28959621 96.25689648 -141.5 92.5 C-128.22517561 83.88978781 -114.87693363 75.39319101 -101.54296875 66.875 C-91.94471447 60.74084361 -82.35457587 54.5962737 -72.8125 48.375 C-63.24046205 42.13486711 -53.59998007 36.00508506 -43.95507812 29.87841797 C-25.4113501 18.10433358 -25.4113501 18.10433358 -7 6.125 C-6.38906494 5.72635742 -5.77812988 5.32771484 -5.14868164 4.91699219 C-2.06337178 2.94181451 -2.06337178 2.94181451 0 0 Z " fill="#A4A3A3" transform="translate(502,553)"/>
<path d="M0 0 C3.32186321 1.32874529 6.09098875 2.5158274 9.1328125 4.2578125 C10.32003906 4.93589966 10.32003906 4.93589966 11.53125 5.62768555 C12.3871875 6.12179932 13.243125 6.61591309 14.125 7.125 C15.04023438 7.6506958 15.95546875 8.1763916 16.8984375 8.71801758 C26.01659766 13.97421635 35.06476139 19.34799315 44.11146545 24.72590637 C52.20257257 29.53486114 60.31582411 34.30537898 68.4375 39.0625 C69.03393311 39.41194672 69.63036621 39.76139343 70.24487305 40.12142944 C74.16208967 42.41627049 78.08067334 44.70876482 82 47 C83.07781738 47.63019043 84.15563477 48.26038086 85.26611328 48.90966797 C91.38581333 52.48686503 91.38581333 52.48686503 97.53125 56.01953125 C102.5385844 58.87844853 107.51814317 61.78447952 112.5 64.6875 C113.56138184 65.30310791 114.62276367 65.91871582 115.71630859 66.55297852 C120.41934119 69.28825541 125.10430921 72.03286618 129.6953125 74.953125 C130.37142578 75.37891846 131.04753906 75.80471191 131.74414062 76.2434082 C132.95786015 77.01395625 134.16311203 77.79808663 135.35742188 78.59838867 C137.9124293 80.21221951 139.75379487 80.99103455 142.7890625 81.1015625 C147.58824164 79.45512878 151.54436399 76.7380567 155.75 73.9375 C157.45058963 72.81775451 159.15359693 71.70166936 160.859375 70.58984375 C161.60670898 70.09347412 162.35404297 69.59710449 163.12402344 69.08569336 C165 68 165 68 167 68 C167.33 72.29 167.66 76.58 168 81 C170.64 79.68 173.28 78.36 176 77 C176.32546738 86.73544931 176.57365915 96.46959075 176.72537041 106.20938683 C176.79821925 110.7331896 176.89685414 115.25325268 177.05615234 119.77490234 C177.20914942 124.14543437 177.29214281 128.51239074 177.3282814 132.88539505 C177.35400231 134.54677277 177.40424315 136.20797049 177.48022079 137.8678093 C178.03535065 150.50701401 178.03535065 150.50701401 174.63477898 154.67218208 C170.82277379 158.14681892 166.51872186 160.56065765 162 163 C160.42232324 164.02848788 158.85227798 165.06914714 157.30078125 166.13671875 C155.97379275 166.99078004 154.64442467 167.84115739 153.3125 168.6875 C152.60262939 169.1417334 151.89275879 169.5959668 151.16137695 170.06396484 C149.75719173 170.96209578 148.35219988 171.8589672 146.94628906 172.75439453 C145.16201433 173.89631245 143.38768619 175.05172299 141.6171875 176.21484375 C140.65039062 176.84519531 139.68359375 177.47554687 138.6875 178.125 C137.86636719 178.66382813 137.04523438 179.20265625 136.19921875 179.7578125 C133.96466484 181.0199584 132.5415043 181.69999106 130 182 C127.66357422 180.97460938 127.66357422 180.97460938 125.0546875 179.34375 C124.07234131 178.74030762 123.08999512 178.13686523 122.07788086 177.51513672 C121.02093018 176.8501416 119.96397949 176.18514648 118.875 175.5 C116.62499936 174.11500218 114.37374079 172.73223314 112.12109375 171.3515625 C111.5407991 170.99417999 110.96050446 170.63679749 110.36262512 170.26858521 C102.89884521 165.68313064 95.28557191 161.36035765 87.68115234 157.01367188 C75.47253178 150.01748243 75.47253178 150.01748243 71 147 C71 146.34 71 145.68 71 145 C72.60473633 143.79492188 72.60473633 143.79492188 74.83203125 142.46875 C75.63060547 141.98792969 76.42917969 141.50710938 77.25195312 141.01171875 C78.51942383 140.26341797 78.51942383 140.26341797 79.8125 139.5 C81.46505414 138.51076805 83.11740603 137.52119813 84.76953125 136.53125 C85.50792236 136.09361328 86.24631348 135.65597656 87.00708008 135.20507812 C88.69944227 134.18174115 90.35445181 133.09703213 92 132 C92.43793526 129.74182879 92.43793526 129.74182879 92.34057617 127.09130859 C92.34034958 126.07040131 92.34012299 125.04949402 92.33988953 123.99765015 C92.32440567 122.89240997 92.30892181 121.7871698 92.29296875 120.6484375 C92.28872391 119.5192691 92.28447906 118.39010071 92.28010559 117.22671509 C92.26327132 113.60923727 92.22560975 109.99231031 92.1875 106.375 C92.17245934 103.92709136 92.15876986 101.47917402 92.14648438 99.03125 C92.11335227 93.0206444 92.06310579 87.01036154 92 81 C91.2514827 80.59234406 90.50296539 80.18468811 89.73176575 79.76467896 C88.74625229 79.22761322 87.76073883 78.69054749 86.74536133 78.13720703 C85.76996902 77.60580109 84.79457672 77.07439514 83.78962708 76.52688599 C80.40370879 74.67362351 77.04125205 72.78590371 73.6875 70.875 C71.99173828 69.91207031 71.99173828 69.91207031 70.26171875 68.9296875 C68.08466613 67.64170667 65.94252708 66.2928395 63.83984375 64.88671875 C61.54230698 63.36029474 59.36339622 62.10110228 56.875 60.9375 C54.52460913 59.8178431 52.91128866 58.92204155 50.9375 57.1875 C48.49350999 55.68957064 46.84408927 55.91244965 44.0715332 56.37329102 C39.79983605 57.66562414 36.27273822 60.37256855 32.625 62.875 C30.85560095 64.05618765 29.08606722 65.23717355 27.31640625 66.41796875 C25.98826904 67.31394775 25.98826904 67.31394775 24.63330078 68.22802734 C20.63419997 70.91905958 16.60208751 73.55779724 12.5625 76.1875 C11.87172363 76.64431152 11.18094727 77.10112305 10.46923828 77.57177734 C9.82067871 77.99539551 9.17211914 78.41901367 8.50390625 78.85546875 C7.94517822 79.22309326 7.3864502 79.59071777 6.81079102 79.96948242 C4.6511607 81.19852375 2.30713766 82.07714493 0 83 C0 55.61 0 28.22 0 0 Z " fill="#B9591C" transform="translate(412,473)"/>
<path d="M0 0 C0.33 0 0.66 0 1 0 C1.33 11.55 1.66 23.1 2 35 C5.63 32.69 9.26 30.38 13 28 C17.37524803 28.87504961 19.46940792 29.54819995 23 32 C23.33 32.66 23.66 33.32 24 34 C25.74006246 34.9542278 27.51881372 35.83834891 29.3125 36.6875 C34.88386354 39.39321004 40.19832283 42.39022608 45.50390625 45.58203125 C48.00436179 47.10902784 48.00436179 47.10902784 51 48 C51 48.66 51 49.32 51 50 C51.63679687 50.22558594 52.27359375 50.45117188 52.9296875 50.68359375 C57.17272906 52.50281132 61.11297528 54.78601406 65.125 57.0625 C66.73043345 57.97241578 68.33715257 58.88006789 69.9453125 59.78515625 C71.00516357 60.38662476 71.00516357 60.38662476 72.08642578 61.00024414 C74.12576632 62.13026715 74.12576632 62.13026715 77 63 C77 63.66 77 64.32 77 65 C77.680625 65.2475 78.36125 65.495 79.0625 65.75 C81.90546206 66.95977109 84.49085448 68.41867175 87.15234375 69.98046875 C90.01107911 71.55791046 92.97862562 72.76678597 96 74 C96 74.66 96 75.32 96 76 C98.31 76.66 100.62 77.32 103 78 C103 78.66 103 79.32 103 80 C103.70898438 80.268125 104.41796875 80.53625 105.1484375 80.8125 C108.09521181 82.03964985 110.82990677 83.46000373 113.625 85 C114.56601562 85.515625 115.50703125 86.03125 116.4765625 86.5625 C118.36085409 87.6359045 120.19562992 88.79708661 122 90 C122 90.66 122 91.32 122 92 C122.804375 92.144375 123.60875 92.28875 124.4375 92.4375 C127 93 127 93 128 94 C128.17678944 96.20548385 128.28372692 98.41658456 128.36401367 100.62768555 C128.40295746 101.66683357 128.40295746 101.66683357 128.44268799 102.72697449 C128.67316542 109.1278389 128.84106791 115.5309611 128.99140453 121.93416119 C129.09274572 126.23784521 129.21356522 130.53895351 129.38208008 134.84057617 C129.54457376 138.99755961 129.65740977 143.15317382 129.73552895 147.31257057 C129.77364386 148.89626129 129.8292013 150.47963372 129.90266991 152.06207848 C130.11681221 156.83468523 130.20410319 161.33464084 129 166 C126.04274077 169.08075457 123.03731465 170.67748082 119 172 C118.67 172 118.34 172 118 172 C117.67 156.49 117.34 140.98 117 125 C115.35 125.99 113.7 126.98 112 128 C111.34 128 110.68 128 110 128 C108.67770811 125.35541621 108.90322806 123.32238699 108.9375 120.375 C108.94652344 119.37210938 108.95554687 118.36921875 108.96484375 117.3359375 C108.98224609 116.17964844 108.98224609 116.17964844 109 115 C105.72844376 116.95712757 102.45788109 118.91590948 99.1875 120.875 C98.25873047 121.43058594 97.32996094 121.98617187 96.37304688 122.55859375 C95.0340332 123.36103516 95.0340332 123.36103516 93.66796875 124.1796875 C92.43469849 124.91807861 92.43469849 124.91807861 91.17651367 125.67138672 C89.42552114 126.74024834 87.70690814 127.86206124 86 129 C81.51309494 128.71327204 77.9880966 126.53069388 74.1875 124.3125 C73.51678467 123.92819824 72.84606934 123.54389648 72.1550293 123.14794922 C69.76487706 121.77401726 67.38222906 120.38762387 65 119 C63.50968262 118.1349585 63.50968262 118.1349585 61.98925781 117.25244141 C44.1731424 106.90909091 44.1731424 106.90909091 38.52954102 103.51367188 C35.82039352 101.89252387 33.08966793 100.31391929 30.3515625 98.7421875 C29.27181152 98.12142334 28.19206055 97.50065918 27.07958984 96.86108398 C25.9395752 96.20567627 24.79956055 95.55026855 23.625 94.875 C15.93838878 90.45082621 8.26881197 86.00608204 0.68188477 81.41235352 C-4.98991269 77.98625037 -10.7122768 74.64838154 -16.4375 71.3125 C-17.44868896 70.72283447 -18.45987793 70.13316895 -19.50170898 69.52563477 C-24.89593865 66.38249694 -30.29609752 63.2499784 -35.703125 60.12890625 C-37.33229858 59.18567505 -37.33229858 59.18567505 -38.99438477 58.22338867 C-41.07621685 57.01828502 -43.15995284 55.81646259 -45.24584961 54.6184082 C-49.75802256 52.00309683 -54.06274268 49.45669272 -58 46 C-54.93809574 44.06155731 -51.87537131 42.12441424 -48.8125 40.1875 C-47.94818359 39.64029297 -47.08386719 39.09308594 -46.19335938 38.52929688 C-44.52336831 37.4735554 -42.85044714 36.42243138 -41.17431641 35.37646484 C-39.48889035 34.30949515 -37.83649854 33.19025491 -36.19921875 32.05078125 C-33.32004351 30.67511848 -32.04596995 31.17701703 -29 32 C-26.84350586 33.04736328 -26.84350586 33.04736328 -24.71484375 34.3203125 C-23.93689453 34.77277344 -23.15894531 35.22523438 -22.35742188 35.69140625 C-20.73781814 36.65088094 -19.12063935 37.61446028 -17.50585938 38.58203125 C-16.72919922 39.03191406 -15.95253906 39.48179687 -15.15234375 39.9453125 C-14.1003479 40.57203857 -14.1003479 40.57203857 -13.02709961 41.21142578 C-10.43019371 42.22166377 -9.56939496 42.06689937 -7 41 C-3.68282465 39.59002347 -3.68282465 39.59002347 -1 37 C-0.38145649 33.91861396 -0.15977108 31.59800683 -0.1953125 28.515625 C-0.18160614 27.70003113 -0.16789978 26.88443726 -0.15377808 26.04412842 C-0.11646132 23.44552534 -0.12019358 20.84883309 -0.125 18.25 C-0.1068742 16.48564719 -0.08607186 14.7213197 -0.0625 12.95703125 C-0.01063404 8.63770041 0.00442974 4.31962517 0 0 Z " fill="#DF8D42" transform="translate(470,426)"/>
<path d="M0 0 C8.44139457 4.10864338 16.66086898 8.25413996 24.6640625 13.15893555 C30.89759423 16.97157811 37.2261523 20.61134174 43.5625 24.25 C52.68215139 29.49412665 61.76619505 34.79245982 70.81518555 40.1574707 C77.48630677 44.11092877 84.17523743 48.03278362 90.875 51.9375 C91.86491943 52.51459717 92.85483887 53.09169434 93.87475586 53.6862793 C99.04583355 56.69956271 104.21933225 59.7086446 109.39453125 62.71484375 C111.49221537 63.93484792 113.58987209 65.15489919 115.6875 66.375 C117.19413208 67.24910522 117.19413208 67.24910522 118.73120117 68.14086914 C122.93313439 70.58711605 127.11805852 73.04306426 131.21875 75.65625 C131.81985596 76.03861816 132.42096191 76.42098633 133.0402832 76.81494141 C134.53834275 77.77901056 136.02566798 78.75970857 137.51171875 79.7421875 C140.43016711 81.21744711 141.77776563 81.57522489 145 81 C147.34628914 79.66432911 149.44282471 78.31481657 151.625 76.75 C152.94529551 75.84053001 154.26698198 74.93307695 155.58984375 74.02734375 C156.2947998 73.54120605 156.99975586 73.05506836 157.72607422 72.55419922 C161.83895455 69.74309806 166.00345672 67.01618395 170.1875 64.3125 C171.00105957 63.77141602 171.81461914 63.23033203 172.65283203 62.67285156 C173.42095215 62.17881836 174.18907227 61.68478516 174.98046875 61.17578125 C175.66004639 60.73145752 176.33962402 60.28713379 177.03979492 59.8293457 C179.550229 58.7672029 180.48948825 58.99193205 183 60 C185.18237305 61.27514648 185.18237305 61.27514648 187.51171875 62.87109375 C188.35154297 63.44537109 189.19136719 64.01964844 190.05664062 64.61132812 C190.92482422 65.21396484 191.79300781 65.81660156 192.6875 66.4375 C194.00717773 67.3356543 194.00717773 67.3356543 195.35351562 68.25195312 C201.86895576 72.73791152 201.86895576 72.73791152 203 75 C203.06290075 77.18611898 203.05751139 79.37430419 203.02172852 81.56103516 C203.01212097 82.23432358 203.00251343 82.907612 202.99261475 83.6013031 C202.95958733 85.83066137 202.91926946 88.05982596 202.87890625 90.2890625 C202.85460878 91.83319411 202.83076503 93.37733291 202.80735779 94.92147827 C202.74447971 98.98877149 202.67542366 103.05593747 202.60510254 107.12310791 C202.53445268 111.27211708 202.4696157 115.42121658 202.40429688 119.5703125 C202.27523655 127.71364167 202.13965278 135.85684563 202 144 C198.93549557 142.80015431 196.16248419 141.60284454 193.40625 139.80078125 C192.44912109 139.19459961 192.44912109 139.19459961 191.47265625 138.57617188 C190.15220322 137.73029751 188.83709097 136.8760302 187.52734375 136.01367188 C183.67928638 133.55591963 183.67928638 133.55591963 179.23046875 133.1015625 C176.19496492 134.32426982 173.68730754 136.14874369 171 138 C170.34 138 169.68 138 169 138 C169.19722656 139.24394531 169.39445313 140.48789062 169.59765625 141.76953125 C170.16837706 146.9508014 170.63652512 151.97627262 169 157 C165.19445206 161.69387122 159.59467936 164.29145958 154.234375 166.85839844 C151.93431606 168.03355967 149.88049589 169.39485596 147.75 170.8515625 C145.26591086 172.42391848 144.35174271 172.99583736 141.359375 173.03125 C138.45368566 171.7612136 135.89814618 170.24634505 133.25 168.5 C132.28578125 167.8709375 131.3215625 167.241875 130.328125 166.59375 C128 165 128 165 127 164 C126.87593185 161.79205589 126.82197722 159.58015514 126.79467773 157.36889648 C126.78477814 156.67624695 126.77487854 155.98359741 126.76467896 155.2699585 C126.7329797 152.97037221 126.70827349 150.67076523 126.68359375 148.37109375 C126.66303148 146.78067982 126.64203521 145.19027145 126.62062073 143.59986877 C126.56532491 139.40610237 126.5159489 135.21228605 126.46777344 131.01843262 C126.41761309 126.74206072 126.36189856 122.46576166 126.30664062 118.18945312 C126.19896726 109.79303027 126.09754284 101.39654662 126 93 C124.35 92.34 122.7 91.68 121 91 C121 90.34 121 89.68 121 89 C118.69997169 87.84721473 116.3965392 86.70191467 114.08984375 85.5625 C113.04957031 85.046875 112.00929688 84.53125 110.9375 84 C109.89464844 83.484375 108.85179687 82.96875 107.77734375 82.4375 C105 81 105 81 102 79 C102 78.34 102 77.68 102 77 C101.21625 76.855625 100.4325 76.71125 99.625 76.5625 C97 76 97 76 95 75 C95 74.34 95 73.68 95 73 C94.46632813 72.85304688 93.93265625 72.70609375 93.3828125 72.5546875 C87.07537972 70.65591016 81.29410907 67.96781869 76 64 C76 63.34 76 62.68 76 62 C75.27981689 61.89115479 74.55963379 61.78230957 73.81762695 61.67016602 C70.77609775 60.94674537 68.61404725 59.84867785 65.91796875 58.27734375 C64.98662109 57.73916016 64.05527344 57.20097656 63.09570312 56.64648438 C62.13599609 56.08251953 61.17628906 55.51855469 60.1875 54.9375 C59.20845703 54.36966797 58.22941406 53.80183594 57.22070312 53.21679688 C54.81006652 51.81745173 52.4034149 50.41170071 50 49 C50 48.34 50 47.68 50 47 C49.26789307 46.88519287 48.53578613 46.77038574 47.78149414 46.65209961 C44.93619193 45.98504069 42.99697839 45.05437712 40.49609375 43.56640625 C39.67302734 43.08236328 38.84996094 42.59832031 38.00195312 42.09960938 C37.15568359 41.59236328 36.30941406 41.08511719 35.4375 40.5625 C33.74925335 39.56286343 32.06047027 38.56413215 30.37109375 37.56640625 C29.2562561 36.90040405 29.2562561 36.90040405 28.11889648 36.22094727 C26.11254496 35.06485048 24.08198652 34.01229346 22 33 C22 32.34 22 31.68 22 31 C18.67097845 29.57327648 15.62175925 28.29522346 12 28 C9.05470701 29.39260444 9.05470701 29.39260444 6.25 31.4375 C1.03522505 35 1.03522505 35 0 35 C0 23.45 0 11.9 0 0 Z " fill="#C66120" transform="translate(471,427)"/>
<path d="M0 0 C4.51696514 1.82801461 8.66969618 4.1205435 12.8671875 6.5859375 C13.74632812 7.0809375 14.62546875 7.5759375 15.53125 8.0859375 C16.36140625 8.56804687 17.1915625 9.05015625 18.046875 9.546875 C19.18358643 10.20502197 19.18358643 10.20502197 20.34326172 10.87646484 C20.88740723 11.31684082 21.43155273 11.7572168 21.9921875 12.2109375 C21.9921875 13.2009375 21.9921875 14.1909375 21.9921875 15.2109375 C20.98478516 15.70787109 20.98478516 15.70787109 19.95703125 16.21484375 C11.18324404 20.73192903 3.01499577 26.02442281 -5.21875 31.45507812 C-11.10900055 35.33486103 -17.03227434 39.12802331 -23.0703125 42.7734375 C-32.5883568 48.52490824 -41.95105918 54.5117429 -51.32226562 60.49853516 C-55.43880456 63.12339008 -59.56618916 65.73093825 -63.6953125 68.3359375 C-64.46738037 68.82312256 -65.23944824 69.31030762 -66.03491211 69.81225586 C-67.58359015 70.78933416 -69.13233659 71.76630407 -70.68115234 72.74316406 C-74.62441495 75.23077107 -78.56602018 77.72100164 -82.5078125 80.2109375 C-84.0911381 81.21094974 -85.67447143 82.21094975 -87.2578125 83.2109375 C-88.0415625 83.7059375 -88.8253125 84.2009375 -89.6328125 84.7109375 C-92.0078125 86.2109375 -94.3828125 87.7109375 -96.7578125 89.2109375 C-97.54115967 89.7056958 -98.32450684 90.2004541 -99.1315918 90.71020508 C-100.71894776 91.71271993 -102.30635029 92.71516104 -103.89379883 93.7175293 C-107.79096645 96.17845713 -111.68738351 98.64055462 -115.58203125 101.10546875 C-117.11973174 102.07821974 -118.65749247 103.0508755 -120.1953125 104.0234375 C-120.95529541 104.50417725 -121.71527832 104.98491699 -122.49829102 105.48022461 C-127.12203336 108.40085914 -131.75630394 111.30398958 -136.3984375 114.1953125 C-138.02809448 115.21081177 -138.02809448 115.21081177 -139.69067383 116.24682617 C-141.82229971 117.57415544 -143.9549135 118.89989982 -146.08862305 120.22387695 C-147.060979 120.8293335 -148.03333496 121.43479004 -149.03515625 122.05859375 C-149.89874756 122.59492432 -150.76233887 123.13125488 -151.65209961 123.68383789 C-154.02900561 125.14311399 -154.02900561 125.14311399 -156.00610352 126.97045898 C-158.0078125 128.2109375 -158.0078125 128.2109375 -160.45385742 128.06420898 C-163.17360815 127.15554549 -165.4096124 126.02864172 -167.87109375 124.55859375 C-168.75732422 124.02943359 -169.64355469 123.50027344 -170.55664062 122.95507812 C-171.46865234 122.40013672 -172.38066406 121.84519531 -173.3203125 121.2734375 C-174.71733398 120.44682617 -174.71733398 120.44682617 -176.14257812 119.60351562 C-177.02236328 119.07306641 -177.90214844 118.54261719 -178.80859375 117.99609375 C-179.61466064 117.51019775 -180.42072754 117.02430176 -181.2512207 116.52368164 C-181.830896 116.09047607 -182.41057129 115.65727051 -183.0078125 115.2109375 C-183.0078125 114.5509375 -183.0078125 113.8909375 -183.0078125 113.2109375 C-181.3815918 111.98095703 -181.3815918 111.98095703 -179.08203125 110.59375 C-178.23237793 110.07546631 -177.38272461 109.55718262 -176.50732422 109.02319336 C-175.57936035 108.46639893 -174.65139648 107.90960449 -173.6953125 107.3359375 C-171.75342232 106.15313788 -169.81202579 104.96952748 -167.87109375 103.78515625 C-166.8857666 103.18622559 -165.90043945 102.58729492 -164.88525391 101.97021484 C-160.69057774 99.40557574 -156.53444411 96.7820004 -152.3828125 94.1484375 C-151.60470215 93.65593506 -150.8265918 93.16343262 -150.02490234 92.65600586 C-147.68538384 91.17508628 -145.34658747 89.69303096 -143.0078125 88.2109375 C-139.94606546 86.27224529 -136.88350292 84.33484828 -133.8203125 82.3984375 C-133.05074219 81.91181641 -132.28117188 81.42519531 -131.48828125 80.92382812 C-126.00181345 77.45892648 -120.49969607 74.01967607 -114.99291992 70.5871582 C-106.45139773 65.26270356 -97.93964909 59.90407721 -89.50805664 54.40722656 C-82.47148359 49.83399851 -75.34550061 45.40593174 -68.22265625 40.96875 C-61.46044839 36.75301588 -54.72429524 32.49910196 -48.0078125 28.2109375 C-40.11399464 23.17414879 -32.19669379 18.17641826 -24.2578125 13.2109375 C-23.28199219 12.59992188 -22.30617188 11.98890625 -21.30078125 11.359375 C-19.4393822 10.19696074 -17.57425974 9.040483 -15.70507812 7.890625 C-13.88424085 6.75672199 -12.08088667 5.59432161 -10.29492188 4.40625 C-3.92202392 0.27505103 -3.92202392 0.27505103 0 0 Z " fill="#E8B263" transform="translate(812.0078125,327.7890625)"/>
<path d="M0 0 C2.57179084 0.90118081 4.77014713 2.10776672 7.12890625 3.47412109 C8.06347656 4.01230469 8.99804688 4.55048828 9.9609375 5.10498047 C10.92902344 5.66894531 11.89710938 6.23291016 12.89453125 6.81396484 C13.87808594 7.38179688 14.86164063 7.94962891 15.875 8.53466797 C18.30072751 9.93593774 20.72375246 11.34166871 23.14453125 12.75146484 C21.09813479 14.91975927 19.06593078 16.56543304 16.5390625 18.14208984 C15.8157373 18.59616211 15.09241211 19.05023438 14.34716797 19.51806641 C13.55842285 20.00758789 12.76967773 20.49710937 11.95703125 21.00146484 C10.7043042 21.78602051 10.7043042 21.78602051 9.42626953 22.58642578 C6.66832111 24.3123579 3.90674779 26.03237284 1.14453125 27.75146484 C-2.73123528 30.16690386 -6.60611453 32.5837612 -10.48046875 35.00146484 C-11.98806763 35.9416748 -11.98806763 35.9416748 -13.52612305 36.90087891 C-21.8891494 42.1257036 -30.19461093 47.4372999 -38.49194336 52.765625 C-46.6342928 57.98743876 -54.82588411 63.12637304 -63.03588867 68.2409668 C-71.59611785 73.57764336 -80.1082382 78.98758063 -88.61328125 84.41162109 C-94.34867352 88.06880443 -100.09534118 91.7079898 -105.85327148 95.32958984 C-109.94692592 97.90564547 -114.02528648 100.502538 -118.0859375 103.13037109 C-118.94678955 103.6838623 -119.8076416 104.23735352 -120.69458008 104.80761719 C-122.34301138 105.86805985 -123.987619 106.93447839 -125.62768555 108.0078125 C-126.74203979 108.72203369 -126.74203979 108.72203369 -127.87890625 109.45068359 C-128.52778809 109.8718042 -129.17666992 110.2929248 -129.84521484 110.72680664 C-132.2788523 111.96727014 -134.12169803 112.54163198 -136.85546875 112.75146484 C-139.44262695 111.76342773 -139.44262695 111.76342773 -142.15625 110.22412109 C-143.13271484 109.67949219 -144.10917969 109.13486328 -145.11523438 108.57373047 C-146.62633789 107.70264648 -146.62633789 107.70264648 -148.16796875 106.81396484 C-149.19470703 106.23710937 -150.22144531 105.66025391 -151.27929688 105.06591797 C-153.81221317 103.64041624 -156.33685342 102.20203768 -158.85546875 100.75146484 C-157.61010765 97.01538153 -156.48444479 96.61724215 -153.17578125 94.59912109 C-152.19375732 93.99366455 -151.2117334 93.38820801 -150.19995117 92.7644043 C-148.60630737 91.79893677 -148.60630737 91.79893677 -146.98046875 90.81396484 C-144.77056821 89.45502089 -142.56093576 88.09564088 -140.3515625 86.73583984 C-139.24925293 86.06101562 -138.14694336 85.38619141 -137.01123047 84.69091797 C-132.66445004 82.01949419 -128.35115059 79.29704353 -124.04296875 76.56396484 C-122.50138899 75.58856706 -120.95972278 74.61330589 -119.41796875 73.63818359 C-118.66515625 73.16171387 -117.91234375 72.68524414 -117.13671875 72.19433594 C-114.83573042 70.73898052 -112.5333377 69.28587367 -110.23046875 67.83349609 C-102.78035582 63.13414617 -95.33727005 58.42439082 -87.91064453 53.68798828 C-78.18038476 47.48293389 -68.41609674 41.33545203 -58.62426758 35.22802734 C-52.35579575 31.31743979 -46.09901885 27.38921467 -39.85546875 23.43896484 C-32.78419676 18.96610529 -25.70701481 14.50345249 -18.59765625 10.09130859 C-16.08343311 8.52857198 -13.59242353 6.93563858 -11.11328125 5.31787109 C-10.5207959 4.93727539 -9.92831055 4.55667969 -9.31787109 4.16455078 C-7.71595114 3.13497348 -6.12135888 2.09401994 -4.52734375 1.05224609 C-1.85546875 -0.24853516 -1.85546875 -0.24853516 0 0 Z " fill="#E8B262" transform="translate(739.85546875,315.24853515625)"/>
<path d="M0 0 C8.44139457 4.10864338 16.66086898 8.25413996 24.6640625 13.15893555 C30.89759423 16.97157811 37.2261523 20.61134174 43.5625 24.25 C52.68215139 29.49412665 61.76619505 34.79245982 70.81518555 40.1574707 C77.48630677 44.11092877 84.17523743 48.03278362 90.875 51.9375 C91.86491943 52.51459717 92.85483887 53.09169434 93.87475586 53.6862793 C99.04583355 56.69956271 104.21933225 59.7086446 109.39453125 62.71484375 C138.8202271 79.8202271 138.8202271 79.8202271 142 83 C142.18810219 85.77126729 142.25176684 88.44180522 142.22705078 91.21337891 C142.22734283 92.0622316 142.22763489 92.91108429 142.22793579 93.78565979 C142.22653928 96.59939699 142.21096303 99.41287139 142.1953125 102.2265625 C142.19158351 104.17426407 142.188736 106.12196752 142.18673706 108.06967163 C142.17909161 113.20224158 142.15943532 118.33469879 142.1373291 123.46722412 C142.11689028 128.70209223 142.10773955 133.93697851 142.09765625 139.171875 C142.07619027 149.44796627 142.04204336 159.72397377 142 170 C139.00744323 170.89737191 137.36947865 171.1211424 134.36624146 170.13645935 C130.02024181 167.53201227 127.44062241 165.63371339 126.08685303 160.61428833 C125.74249295 156.30677434 125.7171378 152.10071085 125.8046875 147.78515625 C125.80089656 146.20330703 125.79270132 144.62146278 125.78030396 143.03965759 C125.75956198 138.8942538 125.79831419 134.75149742 125.84979248 130.60644531 C125.89177305 126.36976172 125.87703888 122.1333084 125.8671875 117.89648438 C125.85619306 109.59684249 125.90809604 101.29913753 126 93 C124.35 92.34 122.7 91.68 121 91 C121 90.34 121 89.68 121 89 C118.69997169 87.84721473 116.3965392 86.70191467 114.08984375 85.5625 C113.04957031 85.046875 112.00929688 84.53125 110.9375 84 C109.89464844 83.484375 108.85179687 82.96875 107.77734375 82.4375 C105 81 105 81 102 79 C102 78.34 102 77.68 102 77 C101.21625 76.855625 100.4325 76.71125 99.625 76.5625 C97 76 97 76 95 75 C95 74.34 95 73.68 95 73 C94.46632813 72.85304688 93.93265625 72.70609375 93.3828125 72.5546875 C87.07537972 70.65591016 81.29410907 67.96781869 76 64 C76 63.34 76 62.68 76 62 C75.27981689 61.89115479 74.55963379 61.78230957 73.81762695 61.67016602 C70.77609775 60.94674537 68.61404725 59.84867785 65.91796875 58.27734375 C64.98662109 57.73916016 64.05527344 57.20097656 63.09570312 56.64648438 C62.13599609 56.08251953 61.17628906 55.51855469 60.1875 54.9375 C59.20845703 54.36966797 58.22941406 53.80183594 57.22070312 53.21679688 C54.81006652 51.81745173 52.4034149 50.41170071 50 49 C50 48.34 50 47.68 50 47 C49.26789307 46.88519287 48.53578613 46.77038574 47.78149414 46.65209961 C44.93619193 45.98504069 42.99697839 45.05437712 40.49609375 43.56640625 C39.67302734 43.08236328 38.84996094 42.59832031 38.00195312 42.09960938 C37.15568359 41.59236328 36.30941406 41.08511719 35.4375 40.5625 C33.74925335 39.56286343 32.06047027 38.56413215 30.37109375 37.56640625 C29.2562561 36.90040405 29.2562561 36.90040405 28.11889648 36.22094727 C26.11254496 35.06485048 24.08198652 34.01229346 22 33 C22 32.34 22 31.68 22 31 C18.67097845 29.57327648 15.62175925 28.29522346 12 28 C9.05470701 29.39260444 9.05470701 29.39260444 6.25 31.4375 C1.03522505 35 1.03522505 35 0 35 C0 23.45 0 11.9 0 0 Z " fill="#D35910" transform="translate(471,427)"/>
<path d="M0 0 C3.52589831 1.33153259 6.66694731 3.11214919 9.8984375 5.0390625 C10.86620117 5.60463867 10.86620117 5.60463867 11.85351562 6.18164062 C13.43471902 7.10693743 15.0108521 8.04088931 16.5859375 8.9765625 C15.3405764 12.71264581 14.21491354 13.1107852 10.90625 15.12890625 C9.43357666 16.03684937 9.43357666 16.03684937 7.93115234 16.96313477 C6.86848145 17.60694092 5.80581055 18.25074707 4.7109375 18.9140625 C2.49714252 20.27562988 0.28360358 21.63761365 -1.9296875 23 C-3.03248047 23.67514648 -4.13527344 24.35029297 -5.27148438 25.04589844 C-9.5502003 27.67455642 -13.79776637 30.35058813 -18.0390625 33.0390625 C-18.79429199 33.51657959 -19.54952148 33.99409668 -20.32763672 34.48608398 C-27.29992056 38.89656499 -34.25791762 43.32950481 -41.21655273 47.76147461 C-51.0361565 54.01376339 -60.88097038 60.22584928 -70.72753906 66.43554688 C-80.89881111 72.85094289 -91.05521342 79.2890234 -101.19775391 85.74975586 C-108.11086616 90.15172614 -115.02668208 94.54969944 -121.97314453 98.89892578 C-125.31202896 100.99263226 -128.62707436 103.09775849 -131.86328125 105.34765625 C-132.82878906 106.00894531 -133.79429687 106.67023438 -134.7890625 107.3515625 C-135.58054687 107.91617188 -136.37203125 108.48078125 -137.1875 109.0625 C-139.4140625 109.9765625 -139.4140625 109.9765625 -141.80859375 109.35546875 C-142.66839844 108.90042969 -143.52820313 108.44539063 -144.4140625 107.9765625 C-145.95513672 107.17412109 -145.95513672 107.17412109 -147.52734375 106.35546875 C-149.11095703 105.45634766 -149.11095703 105.45634766 -150.7265625 104.5390625 C-152.32951172 103.64380859 -152.32951172 103.64380859 -153.96484375 102.73046875 C-154.77308594 102.15167969 -155.58132813 101.57289063 -156.4140625 100.9765625 C-156.4140625 99.9865625 -156.4140625 98.9965625 -156.4140625 97.9765625 C-155.04736328 96.70898438 -155.04736328 96.70898438 -153.109375 95.4453125 C-152.38999756 94.9702124 -151.67062012 94.4951123 -150.92944336 94.00561523 C-150.14061768 93.50102783 -149.35179199 92.99644043 -148.5390625 92.4765625 C-147.72767822 91.94683838 -146.91629395 91.41711426 -146.08032227 90.87133789 C-139.82075215 86.81086393 -133.46984034 82.90348249 -127.08496094 79.04394531 C-122.09435266 76.0237111 -117.17324088 72.91576418 -112.2890625 69.7265625 C-105.38569004 65.22009204 -98.41289343 60.83318979 -91.4140625 56.4765625 C-84.54350375 52.19864724 -77.6931809 47.89808836 -70.9140625 43.4765625 C-63.22402117 38.46286966 -55.44198389 33.60231126 -47.65087891 28.74755859 C-40.67587654 24.39825761 -33.72338862 20.01540973 -26.7890625 15.6015625 C-25.4275708 14.73845459 -25.4275708 14.73845459 -24.03857422 13.85791016 C-20.02649264 11.30865105 -16.03628607 8.73958364 -12.10546875 6.06640625 C-11.4623877 5.63440918 -10.81930664 5.20241211 -10.15673828 4.75732422 C-8.49372044 3.63500085 -6.84199775 2.49598871 -5.19140625 1.35546875 C-2.4140625 -0.0234375 -2.4140625 -0.0234375 0 0 Z " fill="#E9B262" transform="translate(697.4140625,291.0234375)"/>
<path d="M0 0 C1.24873901 0.67736206 1.24873901 0.67736206 2.52270508 1.3684082 C3.86389404 2.082146 3.86389404 2.082146 5.23217773 2.81030273 C6.20719238 3.36830566 7.18220703 3.92630859 8.18676758 4.5012207 C9.2947168 5.13415039 10.40266602 5.76708008 11.54418945 6.41918945 C12.74547276 7.11040209 13.94664151 7.80181382 15.14770508 8.4934082 C16.40353507 9.21351153 17.65939495 9.93356273 18.9152832 10.65356445 C28.45315761 16.13218926 37.91701708 21.73040791 47.36621094 27.3605957 C55.43338265 32.15745066 63.55367562 36.85101668 71.71020508 41.4934082 C80.808924 46.67546634 89.90121928 51.86712384 98.96020508 57.1184082 C99.9549585 57.69091309 100.94971191 58.26341797 101.97460938 58.85327148 C106.41747587 61.43630632 110.63734696 63.969751 114.52270508 67.3684082 C102.02270508 74.8684082 102.02270508 74.8684082 89.52270508 82.3684082 C89.03543945 82.0280957 88.54817383 81.6877832 88.04614258 81.3371582 C79.47214702 75.47566305 70.41347421 70.4732913 61.28833008 65.5324707 C55.50586101 62.38413885 49.82302402 59.08005889 44.14770508 55.7434082 C36.4632766 51.2421888 28.76324288 46.77245602 21.02270508 42.3684082 C12.29298001 37.40155349 3.61261592 32.35333588 -5.0456543 27.26293945 C-11.45690806 23.50507348 -17.93315315 19.88972664 -24.47729492 16.3684082 C-24.47729492 15.3784082 -24.47729492 14.3884082 -24.47729492 13.3684082 C-21.18900268 10.55927066 -17.43720841 8.37074501 -13.78979492 6.0559082 C-12.78239258 5.38495117 -11.77499023 4.71399414 -10.73706055 4.02270508 C-9.7605957 3.3981543 -8.78413086 2.77360352 -7.77807617 2.13012695 C-6.88258057 1.55222412 -5.98708496 0.97432129 -5.06445312 0.37890625 C-2.47729492 -0.6315918 -2.47729492 -0.6315918 0 0 Z " fill="#DE873C" transform="translate(745.477294921875,259.631591796875)"/>
<path d="M0 0 C0.33 0 0.66 0 1 0 C1.33 11.55 1.66 23.1 2 35 C5.63 32.69 9.26 30.38 13 28 C17.37524803 28.87504961 19.46940792 29.54819995 23 32 C23.33 32.66 23.66 33.32 24 34 C25.74006246 34.9542278 27.51881372 35.83834891 29.3125 36.6875 C34.88386354 39.39321004 40.19832283 42.39022608 45.50390625 45.58203125 C48.00436179 47.10902784 48.00436179 47.10902784 51 48 C51 48.66 51 49.32 51 50 C51.63679687 50.22558594 52.27359375 50.45117188 52.9296875 50.68359375 C57.17272906 52.50281132 61.11297528 54.78601406 65.125 57.0625 C66.73043345 57.97241578 68.33715257 58.88006789 69.9453125 59.78515625 C70.65187988 60.18613525 71.35844727 60.58711426 72.08642578 61.00024414 C74.12576632 62.13026715 74.12576632 62.13026715 77 63 C77 63.66 77 64.32 77 65 C77.680625 65.2475 78.36125 65.495 79.0625 65.75 C81.90546206 66.95977109 84.49085448 68.41867175 87.15234375 69.98046875 C90.01107911 71.55791046 92.97862562 72.76678597 96 74 C96 74.66 96 75.32 96 76 C98.31 76.66 100.62 77.32 103 78 C103 78.66 103 79.32 103 80 C103.70898438 80.268125 104.41796875 80.53625 105.1484375 80.8125 C108.09521181 82.03964985 110.82990677 83.46000373 113.625 85 C114.56601562 85.515625 115.50703125 86.03125 116.4765625 86.5625 C118.36085409 87.6359045 120.19562992 88.79708661 122 90 C122 90.66 122 91.32 122 92 C123.2065625 92.185625 123.2065625 92.185625 124.4375 92.375 C125.283125 92.58125 126.12875 92.7875 127 93 C127.33 93.66 127.66 94.32 128 95 C125.4392208 96.77333172 122.87607333 98.54321049 120.3125 100.3125 C119.59126953 100.81201172 118.87003906 101.31152344 118.12695312 101.82617188 C116.72063124 102.7958276 115.3094361 103.75845988 113.89306641 104.71337891 C112.33757586 105.77056683 110.81086239 106.86997514 109.29296875 107.98046875 C107 109 107 109 104.46875 108.3828125 C101.21853458 106.56228044 98.27812096 104.44763127 95.28125 102.2421875 C93.08501165 100.79920544 93.08501165 100.79920544 90.625 101.06274414 C87.59900609 100.99041523 86.27746442 100.32468549 83.71875 98.75390625 C82.89181641 98.25503906 82.06488281 97.75617188 81.21289062 97.2421875 C80.31763672 96.68789063 79.42238281 96.13359375 78.5 95.5625 C76.52142552 94.36490651 74.54222615 93.16834498 72.5625 91.97265625 C71.50417969 91.3295752 70.44585938 90.68649414 69.35546875 90.02392578 C64.05263199 86.82540157 58.70399869 83.70611906 53.35598755 80.58392334 C50.26549689 78.77903248 47.1775519 76.96980205 44.08984375 75.16015625 C43.48849106 74.80775879 42.88713837 74.45536133 42.26756287 74.09228516 C35.62046008 70.19473949 28.99199774 66.26577538 22.36279297 62.33789062 C17.30786881 59.34789582 12.23321761 56.39795797 7.125 53.5 C1.28462327 50.18462447 -4.41088672 46.72607552 -10 43 C-9.36263916 42.78585449 -8.72527832 42.57170898 -8.06860352 42.35107422 C-4.95442233 40.89319137 -3.20176994 39.6728005 -1 37 C0.73800345 30.96877479 0.16631733 24.33548 0.0625 18.125 C0.06557649 16.36977975 0.07269542 14.61456164 0.08398438 12.859375 C0.10277734 8.57152761 0.06626642 4.28734233 0 0 Z " fill="#E5A14E" transform="translate(470,426)"/>
<path d="M0 0 C3.38551709 0.76354522 5.63458447 1.89983007 8.51171875 3.87109375 C9.35154297 4.44537109 10.19136719 5.01964844 11.05664062 5.61132812 C11.92482422 6.21396484 12.79300781 6.81660156 13.6875 7.4375 C14.56728516 8.03626953 15.44707031 8.63503906 16.35351562 9.25195312 C22.86895576 13.73791152 22.86895576 13.73791152 24 16 C24.06290075 18.18611898 24.05751139 20.37430419 24.02172852 22.56103516 C24.01212097 23.23432358 24.00251343 23.907612 23.99261475 24.6013031 C23.95958733 26.83066137 23.91926946 29.05982596 23.87890625 31.2890625 C23.85460878 32.83319411 23.83076503 34.37733291 23.80735779 35.92147827 C23.74447971 39.98877149 23.67542366 44.05593747 23.60510254 48.12310791 C23.53445268 52.27211708 23.4696157 56.42121658 23.40429688 60.5703125 C23.27523655 68.71364167 23.13965278 76.85684563 23 85 C18.48624079 83.22373583 14.51703395 81.06632716 10.375 78.5625 C9.37339844 77.96985352 9.37339844 77.96985352 8.3515625 77.36523438 C7.38476562 76.78418945 7.38476562 76.78418945 6.3984375 76.19140625 C5.81755371 75.84279541 5.23666992 75.49418457 4.63818359 75.13500977 C2.72559363 73.80987851 1.42663914 72.86782963 0 71 C-0.36076355 67.94380188 -0.36076355 67.94380188 -0.34057617 64.1418457 C-0.34101425 63.44890411 -0.34145233 62.75596252 -0.34190369 62.04202271 C-0.33981465 59.75298832 -0.31647926 57.46468758 -0.29296875 55.17578125 C-0.28737318 53.58823548 -0.2831029 52.00068452 -0.28010559 50.41313171 C-0.26865368 46.23564337 -0.23918373 42.05846817 -0.20599365 37.88110352 C-0.17530011 33.61804439 -0.1616018 29.35493465 -0.14648438 25.09179688 C-0.11431417 16.72772092 -0.06311387 8.36389942 0 0 Z " fill="#BA420A" transform="translate(650,486)"/>
<path d="M0 0 C5.74660776 2.17529876 10.91838751 5.2217525 16.25 8.25 C17.24902344 8.81074219 18.24804688 9.37148438 19.27734375 9.94921875 C21.25802088 11.0703079 23.22720898 12.21196018 25.18383789 13.37451172 C27.94028667 15.02267226 27.94028667 15.02267226 30.72045898 16.25439453 C33.38908441 17.62064243 35.10104277 18.67052147 37 21 C38.08945547 25.8372739 37.85154361 30.44890633 37.5625 35.375 C37.5015918 37.33759766 37.5015918 37.33759766 37.43945312 39.33984375 C37.33356047 42.56368674 37.18580949 45.77993742 37 49 C33.52389335 47.90388327 30.32444576 46.79551458 27.1875 44.93359375 C26.51066162 44.53672363 25.83382324 44.13985352 25.13647461 43.73095703 C23.67589203 42.8466962 22.22119657 41.95265711 20.77172852 41.05029297 C17.17177582 38.81877961 13.74847545 36.81842849 9.77734375 35.32421875 C5.63530736 33.5955473 2.19570805 32.08832457 0 28 C-1.72807741 18.80605453 -0.84730249 9.25794363 0 0 Z " fill="#858688" transform="translate(172,732)"/>
<path d="M0 0 C0.36282861 9.15234914 0.67077465 18.30443981 0.90927315 27.46087837 C1.02174254 31.71300201 1.1528687 35.96281594 1.32714844 40.21289062 C1.4947385 44.31677578 1.61264275 48.41939627 1.69659042 52.52581406 C1.73721984 54.09001229 1.79557091 55.65385615 1.87210464 57.21670914 C2.09672188 61.93812935 2.19336843 66.38373085 1 71 C-1.95840436 74.07024265 -4.97221144 75.66981258 -9 77 C-9.33 77 -9.66 77 -10 77 C-10.33 61.49 -10.66 45.98 -11 30 C-13.475 31.485 -13.475 31.485 -16 33 C-16.66 33 -17.32 33 -18 33 C-19.33328519 30.33342962 -19.3753305 27.96750037 -19.625 25 C-19.72039063 23.9275 -19.81578125 22.855 -19.9140625 21.75 C-20 19 -20 19 -19 17 C-20.04414062 16.61134766 -20.04414062 16.61134766 -21.109375 16.21484375 C-24.30608559 14.87136133 -27.24116066 13.28554224 -30.25 11.5625 C-31.83554687 10.66724609 -31.83554687 10.66724609 -33.453125 9.75390625 C-36 8 -36 8 -37 5 C-32.4465612 6.63538999 -29.09167641 9.02822022 -25.28125 11.953125 C-23.02465365 13.27747058 -23.02465365 13.27747058 -20.5625 12.3828125 C-17.79959574 10.89185502 -15.14087429 9.32376464 -12.5 7.625 C-11.12328125 6.74714844 -11.12328125 6.74714844 -9.71875 5.8515625 C-6.94005135 4.01767511 -6.94005135 4.01767511 -4.28125 1.7734375 C-2 0 -2 0 0 0 Z " fill="#D17C2E" transform="translate(598,521)"/>
<path d="M0 0 C4.93725772 1.97490309 9.24610775 4.3206416 13.8125 7 C14.60076172 7.45117188 15.38902344 7.90234375 16.20117188 8.3671875 C17.31782227 9.02074219 17.31782227 9.02074219 18.45703125 9.6875 C19.13741455 10.08324219 19.81779785 10.47898437 20.51879883 10.88671875 C21.00759521 11.25410156 21.4963916 11.62148438 22 12 C22 12.66 22 13.32 22 14 C19.46220246 16.17346234 16.6037928 17.91956923 13.8125 19.75 C13.04357422 20.28238281 12.27464844 20.81476563 11.48242188 21.36328125 C10.73154297 21.85699219 9.98066406 22.35070312 9.20703125 22.859375 C8.5210083 23.31795898 7.83498535 23.77654297 7.12817383 24.24902344 C5 25 5 25 0 23 C0 15.41 0 7.82 0 0 Z " fill="#C35212" transform="translate(492,393)"/>
<path d="M0 0 C0.33 0 0.66 0 1 0 C1 20.13 1 40.26 1 61 C-0.65 60.34 -2.3 59.68 -4 59 C-3.34 58.34 -2.68 57.68 -2 57 C-1.67 57.33 -1.34 57.66 -1 58 C-0.67 38.86 -0.34 19.72 0 0 Z " fill="#C05417" transform="translate(613,539)"/>
<path d="M0 0 C3.89006773 1.38780795 6.96558708 3.2152227 10.3125 5.625 C11.19550781 6.25664063 12.07851563 6.88828125 12.98828125 7.5390625 C13.65214844 8.02117188 14.31601562 8.50328125 15 9 C14.01 9.495 14.01 9.495 13 10 C10.21484375 8.671875 10.21484375 8.671875 6.9375 6.75 C5.31134766 5.81414063 5.31134766 5.81414063 3.65234375 4.859375 C1 3 1 3 0 0 Z " fill="#D85B0F" transform="translate(561,526)"/>
<path d="M0 0 C2.9719385 1.12451727 5.33440687 2.22293791 8 4 C8 4.66 8 5.32 8 6 C7.236875 5.979375 6.47375 5.95875 5.6875 5.9375 C2.89814214 5.87057159 2.89814214 5.87057159 0 7 C0 4.69 0 2.38 0 0 Z " fill="#A3410B" transform="translate(543,638)"/>
<path d="M0 0 C2.12508244 3.18762365 2.5020163 5.26512223 3 9 C2.01 9.33 1.02 9.66 0 10 C0 6.7 0 3.4 0 0 Z " fill="#A14311" transform="translate(505,555)"/>
</svg>
